<svg xmlns="http://www.w3.org/2000/svg" xmlns:xlink="http://www.w3.org/1999/xlink" width="587" height="244" viewBox="0 0 587 244"><defs><clipPath id="a"><rect width="587" height="244" transform="translate(55.504 87.048)" fill="#fff" stroke="#707070" stroke-width="1"/></clipPath></defs><g transform="translate(-55.504 -87.048)" clip-path="url(#a)"><path d="M71.5,347.166V304.739h28.66l1.912-6.388c.3-.97,8.154-25.012,35.519-25.012a59.4,59.4,0,0,1,12.352,1.4l10.832,2.318V173.1h51.041L213.876,167a106.273,106.273,0,0,1,20.144-32.459c18.852-20.934,43.206-31.548,72.382-31.548a132.335,132.335,0,0,1,18.055,1.286l.611.085h51.289l.611-.085a132.325,132.325,0,0,1,18.055-1.286c29.171,0,53.524,10.614,72.378,31.549a106.3,106.3,0,0,1,20.157,32.48l2.076,6.05,6.4.022h44.608V277.053l10.831-2.318a59.409,59.409,0,0,1,12.353-1.4c27.361,0,35.215,24.044,35.536,25.068l1.914,6.387,6.65-.054h21.992v42.427l-279.21,23.765Z" transform="translate(-1.668 -1.667)" fill="none" stroke="#f4cd62" stroke-miterlimit="10" stroke-width="2"/><g transform="translate(55.504 87.008)"><path d="M335.236,384.822v-2.35L55.5,358.664V288.741H88.142A55.961,55.961,0,0,1,99.8,271.668c8.19-8.111,22.449-16.655,44.979-13.736V157.1h55.264a123.34,123.34,0,0,1,25.2-37.575c17.68-17.976,49.213-37.944,99.138-31.155h49.322c49.923-6.794,81.458,13.178,99.138,31.155a123.317,123.317,0,0,1,25.2,37.575h55.265V257.932c22.534-2.92,36.789,5.624,44.979,13.736a55.976,55.976,0,0,1,11.659,17.073h32.638v69.924L362.854,382.472v2.35l-13.81-1.175Zm13.809-11.963,3.061.26v-.52l279.732-23.808v-49.3H602.262l-1.147-3.832c-.434-1.41-11.221-34.836-52.054-26.093l-6.5,1.391V167.845h-52.05l-1.233-3.656a110.668,110.668,0,0,0-24.4-37.433C441.649,103.324,411.344,94,374.81,99.065l-.367.051h-50.8l-.366-.051c-36.7-5.078-67.1,4.338-90.371,27.993a109.727,109.727,0,0,0-24.1,37.131l-1.233,3.656h-52.05V270.956l-6.5-1.391c-40.838-8.738-51.621,24.684-52.06,26.111l-1.167,3.8-3.975.019H66.253v49.3L345.985,372.6v.52Z" transform="translate(-55.504 -87.008)" fill="#f4cd62"/><path d="M71.5,347.166V304.739h28.66l1.912-6.388c.3-.97,8.154-25.012,35.519-25.012a59.4,59.4,0,0,1,12.352,1.4l10.832,2.318V173.1h51.041L213.876,167a106.273,106.273,0,0,1,20.144-32.459c18.852-20.934,43.206-31.548,72.382-31.548a132.335,132.335,0,0,1,18.055,1.286l.611.085h51.289l.611-.085a132.325,132.325,0,0,1,18.055-1.286c29.171,0,53.524,10.614,72.378,31.549a106.3,106.3,0,0,1,20.157,32.48l2.076,6.05,6.4.022h44.608V277.053l10.831-2.318a59.409,59.409,0,0,1,12.353-1.4c27.361,0,35.215,24.044,35.536,25.068l1.914,6.387,6.65-.054h21.992v42.427l-279.21,23.765Z" transform="translate(-57.172 -88.674)" fill="#fff6d6"/></g></g></svg>