<svg xmlns="http://www.w3.org/2000/svg" width="185.658" height="185.658" viewBox="0 0 185.658 185.658"><g transform="translate(0 0)"><path d="M1098.77,58.478a68.576,68.576,0,0,0-33.125.059,16.285,16.285,0,0,1,2.723-10.689c4.457-6.033,13.8-16.408,13.84-16.448.032.04,9.379,10.415,13.836,16.448A16.228,16.228,0,0,1,1098.77,58.478Z" transform="translate(-990.511 -31.401)" fill="#ffe068"/><path d="M1018.189,76.705a68.386,68.386,0,0,0-28.732,16.6,15.981,15.981,0,0,1-2.667-10.121c.845-7.45,3.751-21.111,3.762-21.163.048.02,13.328,4.33,20.206,7.327A16,16,0,0,1,1018.189,76.705Z" transform="translate(-945.12 -49.018)" fill="#ffe068"/><path d="M947.49,136.4a68.415,68.415,0,0,0-16.61,28.752,15.667,15.667,0,0,1-6.831-7.136c-3-6.874-7.307-20.159-7.323-20.21.048-.008,13.709-2.913,21.163-3.759A15.684,15.684,0,0,1,947.49,136.4Z" transform="translate(-904.854 -90.412)" fill="#ffe068"/><path d="M914.35,246.789a15.455,15.455,0,0,1-9.133-2.759c-6.033-4.457-16.408-13.8-16.448-13.84.04-.031,10.415-9.378,16.448-13.836A15.37,15.37,0,0,1,914.1,213.6a68.571,68.571,0,0,0,.246,33.189Z" transform="translate(-888.77 -136.228)" fill="#ffe068"/><path d="M949.847,326.8a15.526,15.526,0,0,1-9.3,2.175c-7.45-.846-21.111-3.751-21.163-3.763.02-.048,4.33-13.332,7.327-20.206a15.211,15.211,0,0,1,6.033-6.66A68.526,68.526,0,0,0,949.847,326.8Z" transform="translate(-906.386 -184.986)" fill="#ffe068"/><path d="M1022.478,385.955a15.634,15.634,0,0,1-7.093,6.755c-6.874,3-20.158,7.307-20.21,7.323-.008-.048-2.913-13.709-3.759-21.163a15.227,15.227,0,0,1,1.913-8.812A68.329,68.329,0,0,0,1022.478,385.955Z" transform="translate(-947.781 -226.247)" fill="#ffe068"/><path d="M1101.4,416.4c-4.457,6.033-13.8,16.408-13.84,16.448-.032-.04-9.379-10.415-13.836-16.448a15.327,15.327,0,0,1-2.754-8.867,68.666,68.666,0,0,0,33.185-1.071A15.892,15.892,0,0,1,1101.4,416.4Z" transform="translate(-993.598 -247.192)" fill="#ffe068"/><path d="M1185.74,373.831c-.845,7.454-3.75,21.115-3.762,21.167-.048-.02-13.332-4.33-20.206-7.327a15.6,15.6,0,0,1-7.1-6.775,68.568,68.568,0,0,0,28.128-17.622A16.256,16.256,0,0,1,1185.74,373.831Z" transform="translate(-1041.753 -222.343)" fill="#ffe068"/><path d="M1255.639,318.9c-.047.008-13.709,2.917-21.163,3.759A15.968,15.968,0,0,1,1224.363,320a68.265,68.265,0,0,0,15.65-29.208c2.993,1.429,6.561,3.894,8.3,7.9C1251.312,305.569,1255.623,318.853,1255.639,318.9Z" transform="translate(-1081.852 -180.641)" fill="#ffe068"/><path d="M1288.138,224.839c-.04.031-10.415,9.378-16.448,13.836a16.229,16.229,0,0,1-10.6,2.731,68.642,68.642,0,0,0-.877-33.07c3.346-.306,7.839-.024,11.474,2.663C1277.723,215.456,1288.1,224.8,1288.138,224.839Z" transform="translate(-1102.48 -133.143)" fill="#ffe068"/><path d="M1251.335,133.183c-.02.048-4.33,13.328-7.326,20.206-1.707,3.917-5.152,6.363-8.1,7.807a68.507,68.507,0,0,0-17.059-28.311c2.746-1.945,6.8-3.977,11.32-3.465C1237.622,130.266,1251.284,133.171,1251.335,133.183Z" transform="translate(-1078.679 -87.75)" fill="#ffe068"/><path d="M1176.85,91.366a68.389,68.389,0,0,0-28.763-16.316c1.425-3,3.894-6.612,7.934-8.37,6.874-3,20.159-7.307,20.207-7.323.008.048,2.917,13.709,3.758,21.163C1180.47,84.782,1178.688,88.635,1176.85,91.366Z" transform="translate(-1037.967 -47.485)" fill="#ffe068"/><path d="M1013.669,227.609a67.4,67.4,0,1,1,67.4-67.4A67.48,67.48,0,0,1,1013.669,227.609Zm0-128.862a61.458,61.458,0,1,0,61.458,61.458A61.528,61.528,0,0,0,1013.669,98.747Z" transform="translate(-921.85 -66.728)" fill="#ffe068"/></g><ellipse cx="54.144" cy="54.144" rx="54.144" ry="54.144" transform="translate(38.685 38.685)" fill="#ffe068"/></svg>