<svg xmlns="http://www.w3.org/2000/svg" xmlns:xlink="http://www.w3.org/1999/xlink" width="132" height="251" viewBox="0 0 132 251"><defs><clipPath id="a"><rect width="132" height="251" transform="translate(-13 3221)" fill="#fff" stroke="#707070" stroke-width="1"/></clipPath><clipPath id="b"><path d="M50.828,158.769a25.627,25.627,0,0,0,47.32,0,66.8,66.8,0,0,1-10.812-1.187c-6.188-1.327-13.035-3-22.87-1.906A54.614,54.614,0,0,0,50.828,158.769Z" transform="translate(-50.828 -155.322)" fill="none"/></clipPath><clipPath id="c"><path d="M50.828,158.139a20.936,20.936,0,0,0,38.66,0,54.578,54.578,0,0,1-8.833-.97c-5.056-1.084-10.649-2.45-18.684-1.557A44.618,44.618,0,0,0,50.828,158.139Z" transform="translate(-50.828 -155.322)" fill="none"/></clipPath><clipPath id="d"><path d="M50.828,157.892a19.1,19.1,0,0,0,35.269,0,49.791,49.791,0,0,1-8.059-.885c-4.612-.989-9.715-2.235-17.046-1.421A40.7,40.7,0,0,0,50.828,157.892Z" transform="translate(-50.828 -155.322)" fill="none"/></clipPath></defs><g transform="translate(13 -3221)" clip-path="url(#a)"><g transform="translate(1.584 3227.779)" style="isolation:isolate"><g transform="translate(49.171 -275.779)"><rect width="0.268" height="362.293" transform="translate(23.482 1.073)" fill="#f4c064"/><g transform="translate(22.541)"><path d="M78.552,154.723a1.044,1.044,0,0,1-.407-.075,1.08,1.08,0,0,1-.343-.235.943.943,0,0,1-.236-.343,1.121,1.121,0,0,1-.086-.417,1.077,1.077,0,0,1,.086-.408.94.94,0,0,1,.236-.343.7.7,0,0,1,.161-.14.953.953,0,0,1,.182-.1,1.174,1.174,0,0,1,.2-.064,1.065,1.065,0,0,1,.964.3,1.319,1.319,0,0,1,.236.343,1.066,1.066,0,0,1,.074.408,1.11,1.11,0,0,1-.074.417,1.087,1.087,0,0,1-.236.343A1.059,1.059,0,0,1,78.552,154.723Z" transform="translate(-77.48 209.709)" fill="#9a1f04"/><path d="M77.48,83.231a1.076,1.076,0,0,1,1.072-1.072h0a1.075,1.075,0,0,1,1.072,1.072h0A1.075,1.075,0,0,1,78.552,84.3h0A1.076,1.076,0,0,1,77.48,83.231Zm0-5.325a1.069,1.069,0,0,1,1.072-1.072h0a1.068,1.068,0,0,1,1.072,1.072h0a1.074,1.074,0,0,1-1.072,1.072h0A1.075,1.075,0,0,1,77.48,77.906Zm0-5.334A1.075,1.075,0,0,1,78.552,71.5h0a1.075,1.075,0,0,1,1.072,1.072h0a1.068,1.068,0,0,1-1.072,1.072h0A1.069,1.069,0,0,1,77.48,72.571Zm0-5.324a1.076,1.076,0,0,1,1.072-1.072h0a1.075,1.075,0,0,1,1.072,1.072h0a1.074,1.074,0,0,1-1.072,1.071h0A1.074,1.074,0,0,1,77.48,67.247Zm0-5.324a1.068,1.068,0,0,1,1.072-1.071h0a1.067,1.067,0,0,1,1.072,1.071h0a1.075,1.075,0,0,1-1.072,1.072h0A1.075,1.075,0,0,1,77.48,61.923Zm0-5.334a1.075,1.075,0,0,1,1.072-1.072h0a1.075,1.075,0,0,1,1.072,1.072h0a1.074,1.074,0,0,1-1.072,1.071h0A1.075,1.075,0,0,1,77.48,56.589Zm0-5.325a1.075,1.075,0,0,1,1.072-1.071h0a1.074,1.074,0,0,1,1.072,1.071h0a1.075,1.075,0,0,1-1.072,1.072h0A1.075,1.075,0,0,1,77.48,51.264Zm0-5.323a1.068,1.068,0,0,1,1.072-1.072h0a1.068,1.068,0,0,1,1.072,1.072h0a1.074,1.074,0,0,1-1.072,1.071h0A1.075,1.075,0,0,1,77.48,45.941Zm0-5.335a1.075,1.075,0,0,1,1.072-1.072h0a1.075,1.075,0,0,1,1.072,1.072h0a1.075,1.075,0,0,1-1.072,1.072h0A1.075,1.075,0,0,1,77.48,40.606Zm0-5.324a1.075,1.075,0,0,1,1.072-1.072h0a1.075,1.075,0,0,1,1.072,1.072h0a1.074,1.074,0,0,1-1.072,1.071h0A1.075,1.075,0,0,1,77.48,35.282Zm0-5.324a1.077,1.077,0,0,1,1.072-1.082h0a1.077,1.077,0,0,1,1.072,1.082h0a1.065,1.065,0,0,1-1.072,1.061h0A1.066,1.066,0,0,1,77.48,29.958Zm0-5.335a1.076,1.076,0,0,1,1.072-1.072h0a1.075,1.075,0,0,1,1.072,1.072h0a1.075,1.075,0,0,1-1.072,1.072h0A1.075,1.075,0,0,1,77.48,24.623Zm0-5.324a1.074,1.074,0,0,1,1.072-1.071h0A1.074,1.074,0,0,1,79.623,19.3h0a1.075,1.075,0,0,1-1.072,1.072h0A1.075,1.075,0,0,1,77.48,19.3Zm0-5.334a1.075,1.075,0,0,1,1.072-1.072h0a1.075,1.075,0,0,1,1.072,1.072h0a1.067,1.067,0,0,1-1.072,1.071h0A1.068,1.068,0,0,1,77.48,13.964Zm0-5.325a1.075,1.075,0,0,1,1.072-1.071h0a1.074,1.074,0,0,1,1.072,1.071h0a1.075,1.075,0,0,1-1.072,1.072h0A1.075,1.075,0,0,1,77.48,8.639Zm0-5.323a1.068,1.068,0,0,1,1.072-1.072h0a1.068,1.068,0,0,1,1.072,1.072h0a1.074,1.074,0,0,1-1.072,1.071h0A1.075,1.075,0,0,1,77.48,3.316Zm0-5.335A1.074,1.074,0,0,1,78.552-3.09h0a1.074,1.074,0,0,1,1.072,1.071h0A1.068,1.068,0,0,1,78.552-.947h0A1.068,1.068,0,0,1,77.48-2.019Zm0-5.324a1.076,1.076,0,0,1,1.072-1.072h0a1.075,1.075,0,0,1,1.072,1.072h0a1.074,1.074,0,0,1-1.072,1.071h0A1.075,1.075,0,0,1,77.48-7.343Zm0-5.324a1.068,1.068,0,0,1,1.072-1.071h0a1.067,1.067,0,0,1,1.072,1.071h0A1.075,1.075,0,0,1,78.552-11.6h0A1.075,1.075,0,0,1,77.48-12.667Zm0-5.335a1.075,1.075,0,0,1,1.072-1.071h0A1.074,1.074,0,0,1,79.623-18h0a1.075,1.075,0,0,1-1.072,1.072h0A1.075,1.075,0,0,1,77.48-18Zm0-5.324A1.075,1.075,0,0,1,78.552-24.4h0a1.074,1.074,0,0,1,1.072,1.071h0a1.075,1.075,0,0,1-1.072,1.072h0A1.075,1.075,0,0,1,77.48-23.326Zm0-5.324a1.068,1.068,0,0,1,1.072-1.071h0a1.067,1.067,0,0,1,1.072,1.071h0a1.075,1.075,0,0,1-1.072,1.072h0A1.075,1.075,0,0,1,77.48-28.65Zm0-5.334a1.075,1.075,0,0,1,1.072-1.072h0a1.075,1.075,0,0,1,1.072,1.072h0a1.074,1.074,0,0,1-1.072,1.071h0A1.074,1.074,0,0,1,77.48-33.984Zm0-5.324a1.075,1.075,0,0,1,1.072-1.072h0a1.075,1.075,0,0,1,1.072,1.072h0a1.075,1.075,0,0,1-1.072,1.072h0A1.076,1.076,0,0,1,77.48-39.308Zm0-5.324a1.077,1.077,0,0,1,1.072-1.082h0a1.076,1.076,0,0,1,1.072,1.082h0a1.074,1.074,0,0,1-1.072,1.071h0A1.074,1.074,0,0,1,77.48-44.633Zm0-5.335a1.076,1.076,0,0,1,1.072-1.072h0a1.075,1.075,0,0,1,1.072,1.072h0A1.068,1.068,0,0,1,78.552-48.9h0A1.069,1.069,0,0,1,77.48-49.968Zm0-5.324a1.074,1.074,0,0,1,1.072-1.071h0a1.074,1.074,0,0,1,1.072,1.071h0a1.075,1.075,0,0,1-1.072,1.072h0A1.075,1.075,0,0,1,77.48-55.292Zm0-5.334A1.075,1.075,0,0,1,78.552-61.7h0a1.075,1.075,0,0,1,1.072,1.072h0a1.068,1.068,0,0,1-1.072,1.071h0A1.068,1.068,0,0,1,77.48-60.626Zm0-5.324a1.075,1.075,0,0,1,1.072-1.072h0a1.075,1.075,0,0,1,1.072,1.072h0a1.074,1.074,0,0,1-1.072,1.071h0A1.075,1.075,0,0,1,77.48-65.95Zm0-5.325a1.068,1.068,0,0,1,1.072-1.071h0a1.068,1.068,0,0,1,1.072,1.071h0A1.075,1.075,0,0,1,78.552-70.2h0A1.075,1.075,0,0,1,77.48-71.275Zm0-5.334a1.066,1.066,0,0,1,1.072-1.061h0a1.065,1.065,0,0,1,1.072,1.061h0a1.067,1.067,0,0,1-1.072,1.071h0A1.068,1.068,0,0,1,77.48-76.609Zm0-5.324A1.075,1.075,0,0,1,78.552-83h0a1.075,1.075,0,0,1,1.072,1.072h0a1.075,1.075,0,0,1-1.072,1.072h0A1.076,1.076,0,0,1,77.48-81.933Zm0-5.324a1.068,1.068,0,0,1,1.072-1.072h0a1.068,1.068,0,0,1,1.072,1.072h0a1.074,1.074,0,0,1-1.072,1.071h0A1.074,1.074,0,0,1,77.48-87.257Zm0-5.335a1.075,1.075,0,0,1,1.072-1.071h0a1.074,1.074,0,0,1,1.072,1.071h0a1.068,1.068,0,0,1-1.072,1.072h0A1.069,1.069,0,0,1,77.48-92.592Zm0-5.324a1.074,1.074,0,0,1,1.072-1.071h0a1.074,1.074,0,0,1,1.072,1.071h0a1.075,1.075,0,0,1-1.072,1.072h0A1.075,1.075,0,0,1,77.48-97.916Zm0-5.324a1.068,1.068,0,0,1,1.072-1.071h0a1.067,1.067,0,0,1,1.072,1.071h0a1.075,1.075,0,0,1-1.072,1.072h0A1.075,1.075,0,0,1,77.48-103.24Zm0-5.334a1.075,1.075,0,0,1,1.072-1.072h0a1.075,1.075,0,0,1,1.072,1.072h0a1.074,1.074,0,0,1-1.072,1.071h0A1.075,1.075,0,0,1,77.48-108.575Zm0-5.324a1.075,1.075,0,0,1,1.072-1.072h0a1.075,1.075,0,0,1,1.072,1.072h0a1.075,1.075,0,0,1-1.072,1.072h0A1.076,1.076,0,0,1,77.48-113.9Zm0-5.324a1.068,1.068,0,0,1,1.072-1.072h0a1.068,1.068,0,0,1,1.072,1.072h0a1.074,1.074,0,0,1-1.072,1.071h0A1.075,1.075,0,0,1,77.48-119.223Zm0-5.335a1.075,1.075,0,0,1,1.072-1.071h0a1.074,1.074,0,0,1,1.072,1.071h0a1.068,1.068,0,0,1-1.072,1.072h0A1.069,1.069,0,0,1,77.48-124.558Zm0-5.324a1.076,1.076,0,0,1,1.072-1.072h0a1.075,1.075,0,0,1,1.072,1.072h0a1.075,1.075,0,0,1-1.072,1.072h0A1.075,1.075,0,0,1,77.48-129.882Zm0-5.324a1.077,1.077,0,0,1,1.072-1.082h0a1.077,1.077,0,0,1,1.072,1.082h0a1.075,1.075,0,0,1-1.072,1.072h0A1.075,1.075,0,0,1,77.48-135.206Zm0-5.334a1.075,1.075,0,0,1,1.072-1.072h0a1.075,1.075,0,0,1,1.072,1.072h0a1.074,1.074,0,0,1-1.072,1.071h0A1.075,1.075,0,0,1,77.48-140.54Zm0-5.325a1.075,1.075,0,0,1,1.072-1.071h0a1.074,1.074,0,0,1,1.072,1.071h0a1.075,1.075,0,0,1-1.072,1.072h0A1.075,1.075,0,0,1,77.48-145.865Zm0-5.334a1.066,1.066,0,0,1,1.072-1.061h0a1.065,1.065,0,0,1,1.072,1.061h0a1.067,1.067,0,0,1-1.072,1.071h0A1.068,1.068,0,0,1,77.48-151.2Zm0-5.324a1.074,1.074,0,0,1,1.072-1.071h0a1.074,1.074,0,0,1,1.072,1.071h0a1.075,1.075,0,0,1-1.072,1.072h0A1.075,1.075,0,0,1,77.48-156.523Zm0-5.324a1.069,1.069,0,0,1,1.072-1.072h0a1.068,1.068,0,0,1,1.072,1.072h0a1.074,1.074,0,0,1-1.072,1.071h0A1.075,1.075,0,0,1,77.48-161.848Zm0-5.335a1.075,1.075,0,0,1,1.072-1.071h0a1.074,1.074,0,0,1,1.072,1.071h0a1.076,1.076,0,0,1-1.072,1.082h0A1.077,1.077,0,0,1,77.48-167.183Zm0-5.324a1.076,1.076,0,0,1,1.072-1.072h0a1.075,1.075,0,0,1,1.072,1.072h0a1.075,1.075,0,0,1-1.072,1.072h0A1.075,1.075,0,0,1,77.48-172.507Zm0-5.324a1.068,1.068,0,0,1,1.072-1.071h0a1.067,1.067,0,0,1,1.072,1.071h0a1.075,1.075,0,0,1-1.072,1.072h0A1.075,1.075,0,0,1,77.48-177.831Zm0-5.334a1.075,1.075,0,0,1,1.072-1.072h0a1.075,1.075,0,0,1,1.072,1.072h0a1.067,1.067,0,0,1-1.072,1.071h0A1.068,1.068,0,0,1,77.48-183.165Zm0-5.324a1.075,1.075,0,0,1,1.072-1.072h0a1.075,1.075,0,0,1,1.072,1.072h0a1.074,1.074,0,0,1-1.072,1.071h0A1.074,1.074,0,0,1,77.48-188.489Zm0-5.324a1.075,1.075,0,0,1,1.072-1.072h0a1.075,1.075,0,0,1,1.072,1.072h0a1.074,1.074,0,0,1-1.072,1.071h0A1.075,1.075,0,0,1,77.48-193.813Zm0-5.335a1.074,1.074,0,0,1,1.072-1.071h0a1.074,1.074,0,0,1,1.072,1.071h0a1.068,1.068,0,0,1-1.072,1.072h0A1.068,1.068,0,0,1,77.48-199.148Zm0-5.324a1.076,1.076,0,0,1,1.072-1.072h0a1.075,1.075,0,0,1,1.072,1.072h0a1.075,1.075,0,0,1-1.072,1.072h0A1.075,1.075,0,0,1,77.48-204.472Zm0-5.324a1.068,1.068,0,0,1,1.072-1.071h0a1.067,1.067,0,0,1,1.072,1.071h0a1.075,1.075,0,0,1-1.072,1.072h0A1.075,1.075,0,0,1,77.48-209.8Zm0-5.334a1.075,1.075,0,0,1,1.072-1.072h0a1.075,1.075,0,0,1,1.072,1.072h0a1.068,1.068,0,0,1-1.072,1.071h0A1.068,1.068,0,0,1,77.48-215.131Zm0-5.325a1.075,1.075,0,0,1,1.072-1.071h0a1.074,1.074,0,0,1,1.072,1.071h0a1.075,1.075,0,0,1-1.072,1.072h0A1.075,1.075,0,0,1,77.48-220.455Zm0-5.324a1.068,1.068,0,0,1,1.072-1.071h0a1.067,1.067,0,0,1,1.072,1.071h0a1.065,1.065,0,0,1-1.072,1.061h0A1.066,1.066,0,0,1,77.48-225.78Zm0-5.334a1.075,1.075,0,0,1,1.072-1.072h0a1.075,1.075,0,0,1,1.072,1.072h0a1.074,1.074,0,0,1-1.072,1.071h0A1.074,1.074,0,0,1,77.48-231.114Zm0-5.324a1.075,1.075,0,0,1,1.072-1.072h0a1.075,1.075,0,0,1,1.072,1.072h0a1.075,1.075,0,0,1-1.072,1.072h0A1.076,1.076,0,0,1,77.48-236.438Zm0-5.335a1.066,1.066,0,0,1,1.072-1.061h0a1.065,1.065,0,0,1,1.072,1.061h0a1.076,1.076,0,0,1-1.072,1.082h0A1.077,1.077,0,0,1,77.48-241.773Zm0-5.324a1.075,1.075,0,0,1,1.072-1.071h0a1.074,1.074,0,0,1,1.072,1.071h0a1.075,1.075,0,0,1-1.072,1.072h0A1.075,1.075,0,0,1,77.48-247.1Zm0-5.324a1.074,1.074,0,0,1,1.072-1.071h0a1.074,1.074,0,0,1,1.072,1.071h0a1.075,1.075,0,0,1-1.072,1.072h0A1.075,1.075,0,0,1,77.48-252.421Zm0-5.324a1.077,1.077,0,0,1,1.072-1.082h0a1.077,1.077,0,0,1,1.072,1.082h0a1.065,1.065,0,0,1-1.072,1.061h0A1.066,1.066,0,0,1,77.48-257.745Zm0-5.334a1.075,1.075,0,0,1,1.072-1.072h0a1.075,1.075,0,0,1,1.072,1.072h0a1.074,1.074,0,0,1-1.072,1.071h0A1.075,1.075,0,0,1,77.48-263.079Zm0-5.325a1.075,1.075,0,0,1,1.072-1.071h0a1.074,1.074,0,0,1,1.072,1.071h0a1.075,1.075,0,0,1-1.072,1.072h0A1.075,1.075,0,0,1,77.48-268.4Z" transform="translate(-77.48 274.807)" fill="#9a1f04"/><path d="M78.552-273.64a.662.662,0,0,1-.2-.021,1.1,1.1,0,0,1-.2-.053c-.064-.032-.129-.064-.182-.1a.7.7,0,0,1-.161-.139.95.95,0,0,1-.236-.343,1.129,1.129,0,0,1-.086-.418,1.047,1.047,0,0,1,.322-.75.7.7,0,0,1,.161-.139c.053-.032.118-.064.182-.1s.129-.043.2-.065a1.07,1.07,0,0,1,.964.3,1.039,1.039,0,0,1,.31.75,1.117,1.117,0,0,1-.074.418,1.337,1.337,0,0,1-.236.343A1.062,1.062,0,0,1,78.552-273.64Z" transform="translate(-77.48 275.779)" fill="#9a1f04"/></g><path d="M81.818,154.65a3.688,3.688,0,1,0-3.688,3.688A3.688,3.688,0,0,0,81.818,154.65Z" transform="translate(-54.47 209.959)" fill="#f49453"/><path d="M75.342,153.706a.281.281,0,0,1-.11-.023.27.27,0,0,1-.134-.355,3.45,3.45,0,0,1,1.96-1.821.268.268,0,0,1,.182.5,2.9,2.9,0,0,0-1.653,1.537A.269.269,0,0,1,75.342,153.706Z" transform="translate(-54.568 209.878)" fill="#fff" opacity="0.2"/><path d="M78.8,150.962a3.007,3.007,0,0,1,2.288,2.712,4.244,4.244,0,0,1-2.105,4.646,3.681,3.681,0,0,0-.183-7.358Z" transform="translate(-55.143 209.959)" fill="#999" opacity="0.2" style="mix-blend-mode:multiply;isolation:isolate"/><rect width="9.958" height="2.506" rx="1.049" transform="translate(18.681 385.903)" fill="#9a1f04"/><rect width="7.452" height="3.392" transform="translate(19.934 382.511)" fill="#f49453"/><path d="M80.215,179.88h2.218v-3.391H79.461c-.774.584-1.276,1.056-1.276,1.056C81.072,177.783,80.332,179.626,80.215,179.88Z" transform="translate(-55.047 206.022)" fill="#999" opacity="0.2" style="mix-blend-mode:multiply;isolation:isolate"/><rect width="5.471" height="1.578" transform="translate(20.924 388.409)" fill="#a74000"/><path d="M50.828,158.769a25.627,25.627,0,0,0,47.32,0,66.8,66.8,0,0,1-10.812-1.187c-6.188-1.327-13.035-3-22.87-1.906A54.614,54.614,0,0,0,50.828,158.769Z" transform="translate(-50.828 209.287)" fill="#9a1f04"/><g transform="translate(0 364.609)"><g clip-path="url(#b)"><g transform="translate(-0.532 3.155)"><path d="M50.734,164.191a.746.746,0,0,1-.214-.032.965.965,0,0,1-.172-.118.623.623,0,0,1-.118-.172.691.691,0,0,1-.031-.213.536.536,0,0,1,.15-.376.542.542,0,0,1,.922.376.692.692,0,0,1-.043.213.605.605,0,0,1-.118.172.965.965,0,0,1-.172.118A.674.674,0,0,1,50.734,164.191Z" transform="translate(-50.199 -159.682)" fill="#f49453"/><path d="M74.006,179.8a.531.531,0,0,1,.535-.536h0a.531.531,0,0,1,.535.536h0a.537.537,0,0,1-.535.535h0A.537.537,0,0,1,74.006,179.8Zm2.153-.043a.532.532,0,0,1,.492-.578h0a.536.536,0,0,1,.578.493h0a.535.535,0,0,1-.492.567h0a.06.06,0,0,1-.043.012h0A.538.538,0,0,1,76.159,179.758Zm-3.814.482h0a.524.524,0,0,1-.482-.579h0a.52.52,0,0,1,.568-.481h0a.532.532,0,0,1,.493.578h0a.528.528,0,0,1-.535.482h-.043Zm5.956-.707a.534.534,0,0,1,.439-.621h0a.533.533,0,0,1,.611.439h0a.527.527,0,0,1-.439.621h-.085A.528.528,0,0,1,78.3,179.533Zm-8.131.439a.534.534,0,0,1-.439-.621h0a.526.526,0,0,1,.611-.439h0a.53.53,0,0,1,.44.621h0a.53.53,0,0,1-.525.439H70.17Zm10.242-.835a.537.537,0,0,1,.385-.654h0a.533.533,0,0,1,.654.387h0a.536.536,0,0,1-.386.652h0a.516.516,0,0,1-.129.011h0A.547.547,0,0,1,80.413,179.137Zm-12.395.375h0a.535.535,0,0,1-.387-.654h0a.535.535,0,0,1,.655-.385h0a.533.533,0,0,1,.386.653h0a.528.528,0,0,1-.525.4h0A.549.549,0,0,1,68.018,179.511Zm14.472-.964a.53.53,0,0,1,.333-.675h0a.516.516,0,0,1,.674.321h0a.521.521,0,0,1-.332.686h0a.446.446,0,0,1-.171.032h0A.539.539,0,0,1,82.49,178.547Zm-16.572.322v.01a.538.538,0,0,1-.332-.686h0a.543.543,0,0,1,.685-.332h0a.527.527,0,0,1,.321.686h0a.532.532,0,0,1-.5.354h0A.516.516,0,0,1,65.918,178.87ZM84.5,177.8a.534.534,0,0,1,.28-.707h0a.54.54,0,0,1,.706.267h0a.54.54,0,0,1-.279.708h0a.494.494,0,0,1-.214.053h0A.538.538,0,0,1,84.5,177.8Zm-20.632.268h0a.553.553,0,0,1-.268-.719h0a.54.54,0,0,1,.708-.268h0a.542.542,0,0,1,.267.719h0a.527.527,0,0,1-.482.31h0A.576.576,0,0,1,63.872,178.066Zm22.582-1.19a.535.535,0,0,1,.214-.728h-.01a.54.54,0,0,1,.728.214h0a.533.533,0,0,1-.2.729h0a.565.565,0,0,1-.256.063h0A.523.523,0,0,1,86.454,176.876Zm-24.542.2a.541.541,0,0,1-.214-.728h0a.545.545,0,0,1,.729-.214h0a.546.546,0,0,1,.214.729h0a.526.526,0,0,1-.472.278h0A.568.568,0,0,1,61.912,177.079Zm26.406-1.285a.534.534,0,0,1,.15-.739h0a.536.536,0,0,1,.74.15h0a.534.534,0,0,1-.151.739h0a.489.489,0,0,1-.3.086h0A.5.5,0,0,1,88.318,175.794Zm-28.281.14a.534.534,0,0,1-.15-.74h0a.534.534,0,0,1,.738-.15h0a.536.536,0,0,1,.151.739h0a.53.53,0,0,1-.45.247h0A.5.5,0,0,1,60.037,175.934Zm30.047-1.372a.523.523,0,0,1,.086-.75h0a.53.53,0,0,1,.749.086h0a.539.539,0,0,1-.085.75h0a.487.487,0,0,1-.332.118h0A.513.513,0,0,1,90.085,174.562Zm-31.826.075h0a.541.541,0,0,1-.086-.75h0a.546.546,0,0,1,.762-.085h0a.539.539,0,0,1,.085.75h0a.564.564,0,0,1-.428.2h0A.551.551,0,0,1,58.259,174.637Zm33.476-1.446a.541.541,0,0,1,.022-.761h0a.541.541,0,0,1,.76.022h0a.541.541,0,0,1-.022.761h0a.545.545,0,0,1-.375.139h0A.544.544,0,0,1,91.735,173.191ZM56.6,173.2a.539.539,0,0,1-.021-.76h0a.541.541,0,0,1,.76-.022h0a.539.539,0,0,1,.021.76h0a.538.538,0,0,1-.385.162h0A.544.544,0,0,1,56.6,173.2Zm36.679-1.521a.532.532,0,0,1-.042-.762h0a.537.537,0,0,1,.749-.041h0a.541.541,0,0,1,.043.76h0a.537.537,0,0,1-.4.171h0A.538.538,0,0,1,93.278,171.681Zm-38.211-.054h0a.551.551,0,0,1,.043-.761h0a.541.541,0,0,1,.76.043h0a.551.551,0,0,1-.043.76h0a.569.569,0,0,1-.354.129h0A.542.542,0,0,1,55.067,171.627Zm39.6-1.585a.531.531,0,0,1-.1-.75h0a.53.53,0,0,1,.75-.1h0a.542.542,0,0,1,.107.75h0a.548.548,0,0,1-.44.213h0A.545.545,0,0,1,94.67,170.042Zm-41-.118h0a.533.533,0,0,1,.107-.75h0a.544.544,0,0,1,.75.107h0a.533.533,0,0,1-.108.75h0a.527.527,0,0,1-.321.107h0A.542.542,0,0,1,53.675,169.924Zm42.259-1.617a.537.537,0,0,1-.16-.74h0a.525.525,0,0,1,.738-.171h0a.535.535,0,0,1,.161.739h0a.529.529,0,0,1-.45.247h0A.56.56,0,0,1,95.934,168.307Zm-43.513-.183a.545.545,0,0,1,.17-.739h0a.536.536,0,0,1,.74.161h0a.53.53,0,0,1-.172.739h0a.524.524,0,0,1-.278.085h0A.545.545,0,0,1,52.421,168.124Zm44.627-1.66a.545.545,0,0,1-.225-.729h0a.533.533,0,0,1,.718-.225h0a.535.535,0,0,1,.226.718h0a.537.537,0,0,1-.472.289h0A.656.656,0,0,1,97.048,166.464Zm-45.72-.247h0a.547.547,0,0,1,.236-.728h0a.537.537,0,0,1,.717.236h0a.532.532,0,0,1-.225.717h0a.552.552,0,0,1-.246.065h0A.538.538,0,0,1,51.328,166.217Z" transform="translate(-50.364 -160.037)" fill="#f49453"/><path d="M106.68,164.192a.637.637,0,0,1-.2-.032.71.71,0,0,1-.171-.118.441.441,0,0,1-.118-.172.46.46,0,0,1-.043-.2.509.509,0,0,1,.161-.386.548.548,0,0,1,.75,0,.512.512,0,0,1,.161.386.472.472,0,0,1-.043.2.45.45,0,0,1-.118.172A.536.536,0,0,1,106.68,164.192Z" transform="translate(-58.828 -159.682)" fill="#f49453"/><path d="M95.717,162.9a.544.544,0,0,1,.568-.5v.01a.525.525,0,0,1,.5.568h0a.537.537,0,0,1-.568.493h0A.524.524,0,0,1,95.717,162.9Zm-1.692.407a.538.538,0,0,1-.483-.579h0a.539.539,0,0,1,.578-.493h0a.548.548,0,0,1,.493.589h0a.543.543,0,0,1-.535.482h-.053Zm-2.185-.236a.523.523,0,0,1-.461-.59h0a.53.53,0,0,1,.589-.471h0a.539.539,0,0,1,.47.6h0a.542.542,0,0,1-.535.472h0A.128.128,0,0,1,91.839,163.07Zm-39.176-.6a.538.538,0,0,1,.354-.674h0a.526.526,0,0,1,.664.354h0a.52.52,0,0,1-.343.664h0v.011h0a.864.864,0,0,1-.161.022h0A.542.542,0,0,1,52.664,162.469Zm37,.3a.535.535,0,0,1-.45-.611h0a.545.545,0,0,1,.622-.45h0a.536.536,0,0,1,.44.622h0a.539.539,0,0,1-.525.45h0A.249.249,0,0,1,89.664,162.77Zm-2.174-.408a.528.528,0,0,1-.408-.632h0a.538.538,0,0,1,.633-.418h0a.555.555,0,0,1,.417.643h0a.556.556,0,0,1-.525.428h0A.441.441,0,0,1,87.49,162.362Zm-32.738-.525a.536.536,0,0,1,.376-.654h0a.52.52,0,0,1,.653.376h0a.519.519,0,0,1-.375.653h0a.57.57,0,0,1-.139.022h0A.538.538,0,0,1,54.753,161.837Zm30.606.064h0a.521.521,0,0,1-.407-.632h0a.522.522,0,0,1,.632-.407h0a.523.523,0,0,1,.407.632h0a.526.526,0,0,1-.514.419h0A.4.4,0,0,1,85.358,161.9Zm-28.5-.61a.54.54,0,0,1,.408-.644h0a.546.546,0,0,1,.643.408h0a.541.541,0,0,1-.407.643h0a.512.512,0,0,1-.118.01h0A.54.54,0,0,1,56.863,161.292Zm26.374.172a.543.543,0,0,1-.428-.633h0a.534.534,0,0,1,.632-.417h0a.529.529,0,0,1,.417.632h0a.52.52,0,0,1-.525.429h0A.31.31,0,0,1,83.237,161.463Zm-24.242-.633a.538.538,0,0,1,.429-.632h0a.535.535,0,0,1,.621.429h0a.535.535,0,0,1-.418.622h0a.421.421,0,0,1-.107.01h0A.536.536,0,0,1,58.995,160.83Zm22.111.226h0a.533.533,0,0,1-.439-.621h0a.534.534,0,0,1,.621-.429h0a.542.542,0,0,1,.438.621h0a.548.548,0,0,1-.535.44h0A.252.252,0,0,1,81.106,161.056Zm-19.968-.621a.534.534,0,0,1,.45-.611h0a.534.534,0,0,1,.611.45h0a.531.531,0,0,1-.45.6h0v.012h-.075A.532.532,0,0,1,61.137,160.435Zm17.826.278a.536.536,0,0,1-.451-.611h0a.536.536,0,0,1,.611-.45h0a.535.535,0,0,1,.45.611h0a.532.532,0,0,1-.535.45h-.074Zm-15.662-.6a.53.53,0,0,1,.46-.6h0a.547.547,0,0,1,.6.472h0a.547.547,0,0,1-.471.6h-.064A.532.532,0,0,1,63.3,160.113Zm13.52.322a.527.527,0,0,1-.472-.59h0a.532.532,0,0,1,.589-.471h0a.54.54,0,0,1,.472.589h0a.533.533,0,0,1-.525.482h0A.136.136,0,0,1,76.821,160.435Zm-11.356-.579a.535.535,0,0,1,.482-.578h0a.537.537,0,0,1,.578.481h0a.533.533,0,0,1-.482.59H66A.537.537,0,0,1,65.465,159.856Zm9.2.4v-.011h0a.524.524,0,0,1-.493-.567h0a.536.536,0,0,1,.568-.493h0a.53.53,0,0,1,.5.567h0a.547.547,0,0,1-.536.5h-.042Zm-6.471-.064a.52.52,0,0,1-.556-.5h0a.515.515,0,0,1,.5-.557v-.011a.549.549,0,0,1,.568.515h0a.546.546,0,0,1-.515.567h0Zm4.318-.043h0a.529.529,0,0,1-.513-.557h0a.521.521,0,0,1,.546-.514h0a.538.538,0,0,1,.524.546h0a.549.549,0,0,1-.535.525h-.022Zm-2.7-.546a.536.536,0,0,1,.524-.546h0a.54.54,0,0,1,.547.535h0a.536.536,0,0,1-.525.535H70.35A.535.535,0,0,1,69.815,159.6Z" transform="translate(-50.575 -159.053)" fill="#f49453"/></g></g></g><path d="M87.531,159l-1.054-.227c-5.916-1.278-12.616-2.726-21.989-1.687a58.225,58.225,0,0,0-13.128,2.88c.152.327.3.654.47.973a58.241,58.241,0,0,1,12.778-2.788c9.187-1.021,15.806.409,21.642,1.67l1.056.228a65.137,65.137,0,0,0,9.855,1.16q.277-.518.53-1.05A65.048,65.048,0,0,1,87.531,159Z" transform="translate(-50.91 209.07)" fill="#b52440"/><path d="M74.488,173.141c-10.663,0-19.8-4.477-23.66-13.743a25.627,25.627,0,0,0,47.32,0C94.291,168.664,85.152,173.141,74.488,173.141Z" transform="translate(-50.828 208.658)" fill="#9a1f04"/><path d="M116.5,134.983c0-9.884-12.011-17.9-12.011-17.9s-12.01,8.012-12.01,17.9,12.01,17.9,12.01,17.9S116.5,144.867,116.5,134.983Z" transform="translate(-57.252 215.184)" fill="#f4c064" opacity="0.1"/><path d="M114.557,138.29c0-8.583-9.637-15.54-9.637-15.54s-9.637,6.957-9.637,15.54,9.637,15.541,9.637,15.541S114.557,146.873,114.557,138.29Z" transform="translate(-57.685 214.311)" fill="#f4c064" opacity="0.2"/><path d="M112.666,141.59c0-7.247-7.325-13.123-7.325-13.123s-7.325,5.876-7.325,13.123,7.325,13.123,7.325,13.123S112.666,148.837,112.666,141.59Z" transform="translate(-58.106 213.429)" fill="#f4c064" opacity="0.3"/><path d="M110.654,145.373c0-5.717-4.864-10.35-4.864-10.35s-4.863,4.634-4.863,10.35,4.863,10.35,4.863,10.35S110.654,151.09,110.654,145.373Z" transform="translate(-58.555 212.418)" fill="#f4c064"/><path d="M109.528,149.109c0-4.1-3.487-7.422-3.487-7.422s-3.487,3.323-3.487,7.422,3.487,7.422,3.487,7.422S109.528,153.208,109.528,149.109Z" transform="translate(-58.806 211.39)" fill="#f49453"/><path d="M108.06,154.328a5.711,5.711,0,0,0-1.691-3.6,4.672,4.672,0,0,0,0,7.193A5.712,5.712,0,0,0,108.06,154.328Z" transform="translate(-59.134 209.995)" fill="#fff"/><path d="M81.039,185.328H75.568a2.736,2.736,0,0,0,5.471,0Z" transform="translate(-54.644 204.659)" fill="#9a1f04"/><path d="M81.538,185.04v-1.578h-1.45v.99c0,.48.307,2.644-1.286,3.323A2.735,2.735,0,0,0,81.538,185.04Z" transform="translate(-55.143 204.947)" fill="#999" opacity="0.2" style="mix-blend-mode:multiply;isolation:isolate"/><path d="M81.15,181.369H74.5a.268.268,0,0,1,0-.536H81.15a.268.268,0,0,1,0,.536Z" transform="translate(-54.438 205.352)" fill="#fff" opacity="0.4"/><g transform="translate(6.121 366.272)" opacity="0.3"><path d="M98.4,160.665c-1.7-.195-3.254-.443-4.622-.736l-1.28-.276a.8.8,0,1,0-.343,1.569l1.286.278c1.418.3,3.025.56,4.774.76a.887.887,0,0,0,.094.005.8.8,0,0,0,.09-1.6Z" transform="translate(-63.227 -157.651)" fill="#fff"/><path d="M83.373,158.47a57.04,57.04,0,0,0-17.879-.82,67.535,67.535,0,0,0-6.794,1.1.8.8,0,0,0,.169,1.588.835.835,0,0,0,.17-.018,66.128,66.128,0,0,1,6.632-1.078,55.613,55.613,0,0,1,17.4.8.8.8,0,0,0,.3-1.578Z" transform="translate(-58.066 -157.289)" fill="#fff"/></g></g><g transform="translate(-10.829 -145.779)"><rect width="0.219" height="295.984" transform="translate(19.184 0.876)" fill="#f4c064"/><g transform="translate(18.416)"><path d="M78.355,154.331a.853.853,0,0,1-.332-.061.883.883,0,0,1-.28-.192.77.77,0,0,1-.193-.281.916.916,0,0,1-.07-.341.88.88,0,0,1,.07-.333.768.768,0,0,1,.193-.28.576.576,0,0,1,.131-.114.779.779,0,0,1,.149-.079.958.958,0,0,1,.167-.053.87.87,0,0,1,.788.245,1.077,1.077,0,0,1,.193.28.871.871,0,0,1,.061.333.907.907,0,0,1-.061.341.888.888,0,0,1-.193.281A.865.865,0,0,1,78.355,154.331Z" transform="translate(-77.48 143.401)" fill="#9a1f04"/><path d="M77.48,18.677a.879.879,0,0,1,.875-.875h0a.878.878,0,0,1,.875.875h0a.878.878,0,0,1-.875.875h0A.879.879,0,0,1,77.48,18.677Zm0-4.35a.873.873,0,0,1,.875-.875h0a.873.873,0,0,1,.875.875h0a.877.877,0,0,1-.875.875h0A.878.878,0,0,1,77.48,14.327Zm0-4.358a.878.878,0,0,1,.875-.875h0a.878.878,0,0,1,.875.875h0a.873.873,0,0,1-.875.875h0A.873.873,0,0,1,77.48,9.969Zm0-4.35a.879.879,0,0,1,.875-.875h0a.878.878,0,0,1,.875.875h0a.877.877,0,0,1-.875.875h0A.878.878,0,0,1,77.48,5.619Zm0-4.35a.872.872,0,0,1,.875-.875h0a.872.872,0,0,1,.875.875h0a.878.878,0,0,1-.875.875h0A.878.878,0,0,1,77.48,1.269Zm0-4.358a.878.878,0,0,1,.875-.875h0a.878.878,0,0,1,.875.875h0a.878.878,0,0,1-.875.875h0A.878.878,0,0,1,77.48-3.088Zm0-4.35a.878.878,0,0,1,.875-.875h0a.878.878,0,0,1,.875.875h0a.878.878,0,0,1-.875.875h0A.878.878,0,0,1,77.48-7.439Zm0-4.349a.873.873,0,0,1,.875-.875h0a.872.872,0,0,1,.875.875h0a.878.878,0,0,1-.875.875h0A.878.878,0,0,1,77.48-11.788Zm0-4.359a.878.878,0,0,1,.875-.875h0a.878.878,0,0,1,.875.875h0a.878.878,0,0,1-.875.875h0A.878.878,0,0,1,77.48-16.146Zm0-4.35a.878.878,0,0,1,.875-.875h0a.878.878,0,0,1,.875.875h0a.878.878,0,0,1-.875.875h0A.878.878,0,0,1,77.48-20.5Zm0-4.35a.88.88,0,0,1,.875-.884h0a.88.88,0,0,1,.875.884h0a.87.87,0,0,1-.875.866h0A.871.871,0,0,1,77.48-24.846Zm0-4.359a.879.879,0,0,1,.875-.875h0a.878.878,0,0,1,.875.875h0a.878.878,0,0,1-.875.875h0A.878.878,0,0,1,77.48-29.2Zm0-4.35a.878.878,0,0,1,.875-.875h0a.877.877,0,0,1,.875.875h0a.878.878,0,0,1-.875.875h0A.878.878,0,0,1,77.48-33.554Zm0-4.358a.878.878,0,0,1,.875-.875h0a.878.878,0,0,1,.875.875h0a.872.872,0,0,1-.875.875h0A.872.872,0,0,1,77.48-37.912Zm0-4.35a.878.878,0,0,1,.875-.875h0a.878.878,0,0,1,.875.875h0a.878.878,0,0,1-.875.875h0A.878.878,0,0,1,77.48-42.262Zm0-4.349a.873.873,0,0,1,.875-.875h0a.872.872,0,0,1,.875.875h0a.878.878,0,0,1-.875.875h0A.878.878,0,0,1,77.48-46.611Zm0-4.359a.878.878,0,0,1,.875-.875h0a.877.877,0,0,1,.875.875h0a.872.872,0,0,1-.875.875h0A.873.873,0,0,1,77.48-50.97Zm0-4.35a.879.879,0,0,1,.875-.875h0a.878.878,0,0,1,.875.875h0a.878.878,0,0,1-.875.875h0A.878.878,0,0,1,77.48-55.319Zm0-4.35a.872.872,0,0,1,.875-.875h0a.872.872,0,0,1,.875.875h0a.878.878,0,0,1-.875.875h0A.878.878,0,0,1,77.48-59.669Zm0-4.359a.878.878,0,0,1,.875-.875h0a.878.878,0,0,1,.875.875h0a.878.878,0,0,1-.875.875h0A.878.878,0,0,1,77.48-64.028Zm0-4.35a.878.878,0,0,1,.875-.875h0a.878.878,0,0,1,.875.875h0a.878.878,0,0,1-.875.875h0A.878.878,0,0,1,77.48-68.377Zm0-4.35a.872.872,0,0,1,.875-.875h0a.872.872,0,0,1,.875.875h0a.878.878,0,0,1-.875.875h0A.878.878,0,0,1,77.48-72.727Zm0-4.358a.878.878,0,0,1,.875-.875h0a.878.878,0,0,1,.875.875h0a.877.877,0,0,1-.875.875h0A.878.878,0,0,1,77.48-77.085Zm0-4.35a.878.878,0,0,1,.875-.875h0a.878.878,0,0,1,.875.875h0a.878.878,0,0,1-.875.875h0A.879.879,0,0,1,77.48-81.434Zm0-4.35a.88.88,0,0,1,.875-.884h0a.879.879,0,0,1,.875.884h0a.877.877,0,0,1-.875.875h0A.878.878,0,0,1,77.48-85.784Zm0-4.359a.879.879,0,0,1,.875-.875h0a.878.878,0,0,1,.875.875h0a.873.873,0,0,1-.875.875h0A.873.873,0,0,1,77.48-90.143Zm0-4.35a.878.878,0,0,1,.875-.875h0a.877.877,0,0,1,.875.875h0a.878.878,0,0,1-.875.875h0A.878.878,0,0,1,77.48-94.492Zm0-4.358a.878.878,0,0,1,.875-.875h0a.878.878,0,0,1,.875.875h0a.872.872,0,0,1-.875.875h0A.873.873,0,0,1,77.48-98.85Zm0-4.35a.878.878,0,0,1,.875-.875h0a.878.878,0,0,1,.875.875h0a.878.878,0,0,1-.875.875h0A.878.878,0,0,1,77.48-103.2Zm0-4.35a.873.873,0,0,1,.875-.875h0a.872.872,0,0,1,.875.875h0a.878.878,0,0,1-.875.875h0A.878.878,0,0,1,77.48-107.55Zm0-4.358a.871.871,0,0,1,.875-.866h0a.87.87,0,0,1,.875.866h0a.872.872,0,0,1-.875.875h0A.872.872,0,0,1,77.48-111.908Zm0-4.35a.878.878,0,0,1,.875-.875h0a.878.878,0,0,1,.875.875h0a.878.878,0,0,1-.875.875h0A.879.879,0,0,1,77.48-116.258Zm0-4.35a.873.873,0,0,1,.875-.875h0a.872.872,0,0,1,.875.875h0a.877.877,0,0,1-.875.875h0A.878.878,0,0,1,77.48-120.607Zm0-4.359a.878.878,0,0,1,.875-.875h0a.878.878,0,0,1,.875.875h0a.873.873,0,0,1-.875.875h0A.873.873,0,0,1,77.48-124.966Zm0-4.35a.878.878,0,0,1,.875-.875h0a.877.877,0,0,1,.875.875h0a.878.878,0,0,1-.875.875h0A.878.878,0,0,1,77.48-129.316Zm0-4.35a.872.872,0,0,1,.875-.875h0a.872.872,0,0,1,.875.875h0a.878.878,0,0,1-.875.875h0A.878.878,0,0,1,77.48-133.665Zm0-4.358a.878.878,0,0,1,.875-.875h0a.878.878,0,0,1,.875.875h0a.878.878,0,0,1-.875.875h0A.878.878,0,0,1,77.48-138.023Zm0-4.35a.878.878,0,0,1,.875-.875h0a.878.878,0,0,1,.875.875h0a.878.878,0,0,1-.875.875h0A.879.879,0,0,1,77.48-142.373Zm0-4.35a.873.873,0,0,1,.875-.875h0a.872.872,0,0,1,.875.875h0a.878.878,0,0,1-.875.875h0A.878.878,0,0,1,77.48-146.723Zm0-4.359a.878.878,0,0,1,.875-.875h0a.878.878,0,0,1,.875.875h0a.873.873,0,0,1-.875.875h0A.873.873,0,0,1,77.48-151.081Zm0-4.35a.879.879,0,0,1,.875-.875h0a.878.878,0,0,1,.875.875h0a.878.878,0,0,1-.875.875h0A.878.878,0,0,1,77.48-155.431Zm0-4.35a.88.88,0,0,1,.875-.884h0a.88.88,0,0,1,.875.884h0a.878.878,0,0,1-.875.875h0A.878.878,0,0,1,77.48-159.78Zm0-4.358a.878.878,0,0,1,.875-.875h0a.878.878,0,0,1,.875.875h0a.878.878,0,0,1-.875.875h0A.878.878,0,0,1,77.48-164.138Zm0-4.35a.878.878,0,0,1,.875-.875h0a.878.878,0,0,1,.875.875h0a.878.878,0,0,1-.875.875h0A.878.878,0,0,1,77.48-168.489Zm0-4.358a.871.871,0,0,1,.875-.866h0a.87.87,0,0,1,.875.866h0a.872.872,0,0,1-.875.875h0A.872.872,0,0,1,77.48-172.847Zm0-4.35a.878.878,0,0,1,.875-.875h0a.877.877,0,0,1,.875.875h0a.878.878,0,0,1-.875.875h0A.878.878,0,0,1,77.48-177.2Zm0-4.35a.873.873,0,0,1,.875-.875h0a.873.873,0,0,1,.875.875h0a.878.878,0,0,1-.875.875h0A.878.878,0,0,1,77.48-181.546Zm0-4.359a.878.878,0,0,1,.875-.875h0a.878.878,0,0,1,.875.875h0a.879.879,0,0,1-.875.884h0A.88.88,0,0,1,77.48-185.9Zm0-4.35a.879.879,0,0,1,.875-.875h0a.878.878,0,0,1,.875.875h0a.878.878,0,0,1-.875.875h0A.878.878,0,0,1,77.48-190.254Zm0-4.35a.872.872,0,0,1,.875-.875h0a.872.872,0,0,1,.875.875h0a.878.878,0,0,1-.875.875h0A.878.878,0,0,1,77.48-194.6Zm0-4.358a.878.878,0,0,1,.875-.875h0a.878.878,0,0,1,.875.875h0a.872.872,0,0,1-.875.875h0A.872.872,0,0,1,77.48-198.962Zm0-4.35a.878.878,0,0,1,.875-.875h0a.878.878,0,0,1,.875.875h0a.877.877,0,0,1-.875.875h0A.878.878,0,0,1,77.48-203.311Zm0-4.35a.878.878,0,0,1,.875-.875h0a.878.878,0,0,1,.875.875h0a.878.878,0,0,1-.875.875h0A.878.878,0,0,1,77.48-207.661Zm0-4.359a.878.878,0,0,1,.875-.875h0a.877.877,0,0,1,.875.875h0a.872.872,0,0,1-.875.875h0A.873.873,0,0,1,77.48-212.02Zm0-4.35a.879.879,0,0,1,.875-.875h0a.878.878,0,0,1,.875.875h0a.878.878,0,0,1-.875.875h0A.878.878,0,0,1,77.48-216.369Zm0-4.35a.872.872,0,0,1,.875-.875h0a.872.872,0,0,1,.875.875h0a.878.878,0,0,1-.875.875h0A.878.878,0,0,1,77.48-220.719Zm0-4.358a.878.878,0,0,1,.875-.875h0a.878.878,0,0,1,.875.875h0a.872.872,0,0,1-.875.875h0A.873.873,0,0,1,77.48-225.077Zm0-4.35a.878.878,0,0,1,.875-.875h0a.878.878,0,0,1,.875.875h0a.878.878,0,0,1-.875.875h0A.878.878,0,0,1,77.48-229.427Zm0-4.35a.872.872,0,0,1,.875-.875h0a.872.872,0,0,1,.875.875h0a.87.87,0,0,1-.875.866h0A.871.871,0,0,1,77.48-233.777Zm0-4.358a.878.878,0,0,1,.875-.875h0a.878.878,0,0,1,.875.875h0a.877.877,0,0,1-.875.875h0A.878.878,0,0,1,77.48-238.135Zm0-4.35a.878.878,0,0,1,.875-.875h0a.878.878,0,0,1,.875.875h0a.878.878,0,0,1-.875.875h0A.879.879,0,0,1,77.48-242.484Zm0-4.359a.871.871,0,0,1,.875-.866h0a.87.87,0,0,1,.875.866h0a.879.879,0,0,1-.875.884h0A.88.88,0,0,1,77.48-246.843Zm0-4.35a.878.878,0,0,1,.875-.875h0a.878.878,0,0,1,.875.875h0a.878.878,0,0,1-.875.875h0A.878.878,0,0,1,77.48-251.193Zm0-4.35a.878.878,0,0,1,.875-.875h0a.877.877,0,0,1,.875.875h0a.878.878,0,0,1-.875.875h0A.878.878,0,0,1,77.48-255.542Zm0-4.35a.88.88,0,0,1,.875-.884h0a.88.88,0,0,1,.875.884h0a.87.87,0,0,1-.875.867h0A.871.871,0,0,1,77.48-259.892Zm0-4.358a.878.878,0,0,1,.875-.875h0a.878.878,0,0,1,.875.875h0a.878.878,0,0,1-.875.875h0A.878.878,0,0,1,77.48-264.25Zm0-4.35a.878.878,0,0,1,.875-.875h0a.878.878,0,0,1,.875.875h0a.878.878,0,0,1-.875.875h0A.878.878,0,0,1,77.48-268.6Z" transform="translate(-77.48 273.831)" fill="#9a1f04"/><path d="M78.355-274.032a.54.54,0,0,1-.166-.017.9.9,0,0,1-.167-.044c-.053-.026-.105-.052-.149-.079a.572.572,0,0,1-.131-.113.776.776,0,0,1-.193-.281.923.923,0,0,1-.07-.341.855.855,0,0,1,.263-.613.573.573,0,0,1,.131-.113c.044-.026.1-.053.149-.079s.105-.035.167-.053a.874.874,0,0,1,.788.245.849.849,0,0,1,.254.613.913.913,0,0,1-.061.341,1.093,1.093,0,0,1-.193.281A.868.868,0,0,1,78.355-274.032Z" transform="translate(-77.48 275.779)" fill="#9a1f04"/></g><path d="M80.468,153.975a3.013,3.013,0,1,0-3.013,3.013A3.013,3.013,0,0,0,80.468,153.975Z" transform="translate(-58.125 143.902)" fill="#f49453"/><path d="M75.293,153.3a.23.23,0,0,1-.09-.019.221.221,0,0,1-.11-.29,2.818,2.818,0,0,1,1.6-1.488.219.219,0,0,1,.149.412,2.372,2.372,0,0,0-1.35,1.255A.22.22,0,0,1,75.293,153.3Z" transform="translate(-58.321 143.738)" fill="#fff" opacity="0.2"/><path d="M78.8,150.962a2.457,2.457,0,0,1,1.869,2.216,3.467,3.467,0,0,1-1.72,3.8,3.007,3.007,0,0,0-.149-6.011Z" transform="translate(-59.473 143.902)" fill="#999" opacity="0.2" style="mix-blend-mode:multiply;isolation:isolate"/><rect width="8.135" height="2.047" rx="1.024" transform="translate(15.262 315.274)" fill="#9a1f04"/><rect width="6.088" height="2.771" transform="translate(16.285 312.502)" fill="#f49453"/><path d="M79.843,179.26h1.812v-2.771H79.228c-.632.477-1.043.862-1.043.862C80.544,177.546,79.939,179.052,79.843,179.26Z" transform="translate(-59.282 136.014)" fill="#999" opacity="0.2" style="mix-blend-mode:multiply;isolation:isolate"/><rect width="4.47" height="1.289" transform="translate(17.095 317.321)" fill="#a74000"/><path d="M50.828,158.139a20.936,20.936,0,0,0,38.66,0,54.578,54.578,0,0,1-8.833-.97c-5.056-1.084-10.649-2.45-18.684-1.557A44.618,44.618,0,0,0,50.828,158.139Z" transform="translate(-50.828 142.555)" fill="#9a1f04"/><g transform="translate(0 297.877)"><g clip-path="url(#c)"><g transform="translate(-0.435 2.578)"><path d="M50.636,164a.609.609,0,0,1-.175-.026.788.788,0,0,1-.14-.1.509.509,0,0,1-.1-.14.564.564,0,0,1-.026-.174.438.438,0,0,1,.122-.307.443.443,0,0,1,.753.307.565.565,0,0,1-.035.174.5.5,0,0,1-.1.14.788.788,0,0,1-.14.1A.55.55,0,0,1,50.636,164Z" transform="translate(-50.199 -160.312)" fill="#f49453"/><path d="M69.845,177.171a.434.434,0,0,1,.437-.438h0a.434.434,0,0,1,.437.438h0a.438.438,0,0,1-.437.437h0A.438.438,0,0,1,69.845,177.171Zm1.759-.035a.435.435,0,0,1,.4-.472h0a.438.438,0,0,1,.473.4h0a.437.437,0,0,1-.4.463h0a.049.049,0,0,1-.035.01h0A.439.439,0,0,1,71.6,177.136Zm-3.116.394h0a.428.428,0,0,1-.394-.473h0a.425.425,0,0,1,.464-.393h0a.435.435,0,0,1,.4.472h0a.431.431,0,0,1-.437.394h-.035Zm4.866-.578a.436.436,0,0,1,.359-.507h0a.436.436,0,0,1,.5.359h0a.431.431,0,0,1-.359.507h-.07A.432.432,0,0,1,73.354,176.952Zm-6.643.359a.437.437,0,0,1-.359-.507h0a.43.43,0,0,1,.5-.359h0a.433.433,0,0,1,.359.507h0a.433.433,0,0,1-.429.359h-.07Zm8.368-.682a.438.438,0,0,1,.314-.534h0a.436.436,0,0,1,.534.316h0a.438.438,0,0,1-.315.533h0a.421.421,0,0,1-.106.009h0A.447.447,0,0,1,75.079,176.629Zm-10.126.306h0a.437.437,0,0,1-.316-.534h0a.437.437,0,0,1,.535-.314h0a.435.435,0,0,1,.315.533h0a.432.432,0,0,1-.429.323h0A.449.449,0,0,1,64.953,176.935Zm11.823-.788a.433.433,0,0,1,.272-.551h0a.422.422,0,0,1,.551.263h0a.426.426,0,0,1-.272.56h0a.364.364,0,0,1-.14.026h0A.44.44,0,0,1,76.776,176.147Zm-13.539.263v.008a.439.439,0,0,1-.271-.56h0a.443.443,0,0,1,.56-.272h0a.431.431,0,0,1,.263.56h0a.434.434,0,0,1-.411.289h0A.421.421,0,0,1,63.237,176.41Zm15.184-.875a.436.436,0,0,1,.229-.578h0a.441.441,0,0,1,.577.218h0a.441.441,0,0,1-.228.578h0a.4.4,0,0,1-.175.044h0A.439.439,0,0,1,78.421,175.535Zm-16.855.219h0a.452.452,0,0,1-.219-.587h0a.441.441,0,0,1,.578-.219h0a.443.443,0,0,1,.218.587h0a.43.43,0,0,1-.394.254h0A.471.471,0,0,1,61.566,175.754Zm18.449-.972a.437.437,0,0,1,.175-.595h-.008a.441.441,0,0,1,.595.175h0a.436.436,0,0,1-.167.6h0a.461.461,0,0,1-.209.052h0A.427.427,0,0,1,80.015,174.782Zm-20.05.166a.442.442,0,0,1-.175-.595h0a.446.446,0,0,1,.6-.175h0a.446.446,0,0,1,.175.6h0a.43.43,0,0,1-.386.227h0A.464.464,0,0,1,59.964,174.947Zm21.573-1.05a.436.436,0,0,1,.122-.6h0a.438.438,0,0,1,.6.122h0a.437.437,0,0,1-.124.6h0a.4.4,0,0,1-.244.07h0A.41.41,0,0,1,81.538,173.9Zm-23.1.114a.437.437,0,0,1-.122-.6h0a.436.436,0,0,1,.6-.122h0a.438.438,0,0,1,.123.6h0a.433.433,0,0,1-.368.2h0A.407.407,0,0,1,58.433,174.012Zm24.548-1.121a.427.427,0,0,1,.07-.613h0a.433.433,0,0,1,.612.07h0a.441.441,0,0,1-.07.613h0a.4.4,0,0,1-.271.1h0A.419.419,0,0,1,82.981,172.891Zm-26,.061h0a.442.442,0,0,1-.07-.613h0a.446.446,0,0,1,.623-.07h0a.441.441,0,0,1,.069.613h0a.461.461,0,0,1-.35.166h0A.45.45,0,0,1,56.98,172.953Zm27.349-1.182a.442.442,0,0,1,.018-.622h0a.442.442,0,0,1,.621.018h0a.442.442,0,0,1-.018.622h0a.446.446,0,0,1-.306.113h0A.444.444,0,0,1,84.329,171.771Zm-28.706.009a.44.44,0,0,1-.017-.621h0a.442.442,0,0,1,.621-.018h0a.44.44,0,0,1,.017.621h0a.44.44,0,0,1-.314.132h0A.445.445,0,0,1,55.623,171.78Zm29.966-1.242a.435.435,0,0,1-.035-.623h0a.439.439,0,0,1,.612-.034h0a.442.442,0,0,1,.035.621h0a.439.439,0,0,1-.324.14h0A.439.439,0,0,1,85.589,170.538Zm-31.217-.044h0a.45.45,0,0,1,.035-.622h0a.442.442,0,0,1,.621.035h0a.45.45,0,0,1-.035.621h0a.465.465,0,0,1-.289.105h0A.443.443,0,0,1,54.372,170.493ZM86.727,169.2a.433.433,0,0,1-.079-.613h0a.433.433,0,0,1,.613-.079h0a.443.443,0,0,1,.087.613h0a.448.448,0,0,1-.359.174h0A.445.445,0,0,1,86.727,169.2Zm-33.493-.1h0a.435.435,0,0,1,.087-.613h0a.444.444,0,0,1,.613.088h0a.435.435,0,0,1-.088.613h0a.431.431,0,0,1-.263.087h0A.443.443,0,0,1,53.235,169.1Zm34.525-1.321a.439.439,0,0,1-.131-.6h0a.429.429,0,0,1,.6-.14h0a.437.437,0,0,1,.131.6h0a.432.432,0,0,1-.368.2h0A.458.458,0,0,1,87.76,167.781Zm-35.549-.149a.445.445,0,0,1,.139-.6h0a.438.438,0,0,1,.6.131h0a.433.433,0,0,1-.14.6h0a.428.428,0,0,1-.227.07h0A.446.446,0,0,1,52.211,167.631Zm36.459-1.356a.445.445,0,0,1-.184-.6h0a.435.435,0,0,1,.587-.184h0a.437.437,0,0,1,.184.587h0a.438.438,0,0,1-.386.236h0A.536.536,0,0,1,88.67,166.275Zm-37.352-.2h0a.447.447,0,0,1,.193-.595h0a.439.439,0,0,1,.586.193h0a.435.435,0,0,1-.184.586h0a.451.451,0,0,1-.2.053h0A.439.439,0,0,1,51.317,166.073Z" transform="translate(-50.53 -161.024)" fill="#f49453"/><path d="M106.582,164a.521.521,0,0,1-.167-.026.58.58,0,0,1-.14-.1.36.36,0,0,1-.1-.14.376.376,0,0,1-.035-.166.416.416,0,0,1,.131-.315.448.448,0,0,1,.613,0,.418.418,0,0,1,.131.315.386.386,0,0,1-.035.166.368.368,0,0,1-.1.14A.438.438,0,0,1,106.582,164Z" transform="translate(-67.488 -160.314)" fill="#f49453"/><path d="M87.833,162.195a.444.444,0,0,1,.464-.411v.008a.429.429,0,0,1,.411.464h0a.439.439,0,0,1-.464.4h0A.428.428,0,0,1,87.833,162.195Zm-1.383.332a.439.439,0,0,1-.395-.473h0a.44.44,0,0,1,.473-.4h0a.448.448,0,0,1,.4.482h0a.444.444,0,0,1-.437.394H86.45Zm-1.785-.193a.427.427,0,0,1-.377-.482h0a.433.433,0,0,1,.482-.385h0a.441.441,0,0,1,.384.49h0a.443.443,0,0,1-.437.386h0A.1.1,0,0,1,84.665,162.334Zm-32.006-.491a.439.439,0,0,1,.289-.551h0a.43.43,0,0,1,.542.289h0a.425.425,0,0,1-.28.542h0v.009h0a.707.707,0,0,1-.131.018h0A.443.443,0,0,1,52.659,161.844Zm30.228.246a.437.437,0,0,1-.368-.5h0a.445.445,0,0,1,.508-.368h0a.438.438,0,0,1,.359.508h0a.441.441,0,0,1-.429.368h0A.2.2,0,0,1,82.888,162.09Zm-1.776-.333a.431.431,0,0,1-.333-.516h0a.44.44,0,0,1,.517-.341h0a.453.453,0,0,1,.341.525h0a.454.454,0,0,1-.429.35h0A.361.361,0,0,1,81.112,161.757Zm-26.746-.429a.438.438,0,0,1,.307-.534h0a.424.424,0,0,1,.533.307h0a.424.424,0,0,1-.306.533h0a.465.465,0,0,1-.113.018h0A.439.439,0,0,1,54.366,161.328Zm25,.053h0a.426.426,0,0,1-.332-.516h0a.427.427,0,0,1,.516-.332h0a.427.427,0,0,1,.332.516h0a.43.43,0,0,1-.42.342h0A.324.324,0,0,1,79.37,161.38Zm-23.28-.5a.441.441,0,0,1,.333-.526h0a.446.446,0,0,1,.525.333h0a.442.442,0,0,1-.332.525h0a.419.419,0,0,1-.1.008h0A.441.441,0,0,1,56.09,160.882Zm21.547.14a.444.444,0,0,1-.35-.518h0a.436.436,0,0,1,.516-.341h0a.432.432,0,0,1,.341.516h0a.424.424,0,0,1-.429.35h0A.253.253,0,0,1,77.637,161.022ZM57.832,160.5a.439.439,0,0,1,.35-.516h0a.437.437,0,0,1,.507.35h0a.437.437,0,0,1-.341.508h0a.344.344,0,0,1-.087.008h0A.438.438,0,0,1,57.832,160.5Zm18.064.184h0a.435.435,0,0,1-.359-.507h0a.436.436,0,0,1,.507-.35h0a.443.443,0,0,1,.358.507h0a.447.447,0,0,1-.437.359h0A.206.206,0,0,1,75.9,160.689Zm-16.314-.507a.436.436,0,0,1,.368-.5h0a.436.436,0,0,1,.5.368h0a.433.433,0,0,1-.368.49h0v.01h-.061A.435.435,0,0,1,59.582,160.182Zm14.564.227a.438.438,0,0,1-.368-.5h0a.438.438,0,0,1,.5-.368h0a.437.437,0,0,1,.368.5h0a.435.435,0,0,1-.437.368h-.061Zm-12.8-.491a.433.433,0,0,1,.376-.49h0a.447.447,0,0,1,.49.386h0a.447.447,0,0,1-.385.49h-.053A.434.434,0,0,1,61.35,159.919Zm11.045.263a.43.43,0,0,1-.386-.482h0a.434.434,0,0,1,.481-.385h0a.441.441,0,0,1,.386.482h0a.435.435,0,0,1-.429.394h0A.111.111,0,0,1,72.4,160.182Zm-9.278-.473a.437.437,0,0,1,.394-.473h0a.439.439,0,0,1,.473.393h0a.435.435,0,0,1-.394.482h-.035A.439.439,0,0,1,63.118,159.709Zm7.518.323v-.009h0a.428.428,0,0,1-.4-.463h0a.438.438,0,0,1,.464-.4h0a.433.433,0,0,1,.411.463h0a.447.447,0,0,1-.438.412h-.035Zm-5.287-.053a.425.425,0,0,1-.454-.411h0a.42.42,0,0,1,.41-.455V159.1a.448.448,0,0,1,.464.421h0a.446.446,0,0,1-.421.463h0Zm3.527-.035h0a.432.432,0,0,1-.419-.455h0a.426.426,0,0,1,.446-.42h0a.439.439,0,0,1,.428.446h0a.449.449,0,0,1-.437.429h-.018Zm-2.2-.446a.438.438,0,0,1,.428-.446h0a.441.441,0,0,1,.447.437h0a.438.438,0,0,1-.429.437h-.009A.437.437,0,0,1,66.671,159.5Z" transform="translate(-50.953 -159.053)" fill="#f49453"/></g></g></g><path d="M80.911,158.583l-.861-.186c-4.833-1.044-10.307-2.227-17.964-1.378a47.569,47.569,0,0,0-10.725,2.353c.124.267.249.534.384.795a47.581,47.581,0,0,1,10.439-2.277c7.505-.834,12.913.334,17.681,1.364l.863.187a53.217,53.217,0,0,0,8.051.947q.226-.423.433-.857A53.142,53.142,0,0,1,80.911,158.583Z" transform="translate(-50.992 142.12)" fill="#b52440"/><path d="M70.158,170.626c-8.712,0-16.178-3.657-19.33-11.228a20.936,20.936,0,0,0,38.66,0C86.336,166.968,78.87,170.626,70.158,170.626Z" transform="translate(-50.828 141.295)" fill="#9a1f04"/><path d="M112.1,131.708c0-8.075-9.812-14.62-9.812-14.62s-9.812,6.546-9.812,14.62,9.812,14.62,9.812,14.62S112.1,139.783,112.1,131.708Z" transform="translate(-63.699 154.37)" fill="#f4c064" opacity="0.1"/><path d="M111.029,135.446c0-7.012-7.874-12.7-7.874-12.7s-7.873,5.684-7.873,12.7,7.873,12.7,7.873,12.7S111.029,142.458,111.029,135.446Z" transform="translate(-64.566 152.621)" fill="#f4c064" opacity="0.2"/><path d="M109.985,139.188c0-5.921-5.984-10.721-5.984-10.721s-5.984,4.8-5.984,10.721S104,149.909,104,149.909,109.985,145.109,109.985,139.188Z" transform="translate(-65.411 150.854)" fill="#f4c064" opacity="0.3"/><path d="M108.874,143.479c0-4.67-3.974-8.456-3.974-8.456s-3.973,3.786-3.973,8.456,3.973,8.456,3.973,8.456S108.874,148.149,108.874,143.479Z" transform="translate(-66.31 148.828)" fill="#f4c064"/><path d="M108.252,147.75c0-3.348-2.849-6.063-2.849-6.063s-2.849,2.715-2.849,6.063,2.849,6.063,2.849,6.063S108.252,151.1,108.252,147.75Z" transform="translate(-66.813 146.768)" fill="#f49453"/><path d="M107.441,153.67a4.666,4.666,0,0,0-1.381-2.938,3.817,3.817,0,0,0,0,5.877A4.667,4.667,0,0,0,107.441,153.67Z" transform="translate(-67.47 143.973)" fill="#fff"/><path d="M80.038,185.328h-4.47a2.235,2.235,0,0,0,4.47,0Z" transform="translate(-58.473 133.282)" fill="#9a1f04"/><path d="M81.038,184.751v-1.289H79.853v.809c0,.392.251,2.16-1.05,2.715A2.235,2.235,0,0,0,81.038,184.751Z" transform="translate(-59.473 133.859)" fill="#999" opacity="0.2" style="mix-blend-mode:multiply;isolation:isolate"/><path d="M79.885,181.271h-5.43a.219.219,0,0,1,0-.438h5.43a.219.219,0,0,1,0,.438Z" transform="translate(-58.062 134.671)" fill="#fff" opacity="0.4"/><g transform="translate(5.001 299.236)" opacity="0.3"><path d="M97.145,160.477c-1.388-.159-2.658-.362-3.776-.6l-1.046-.225a.656.656,0,1,0-.28,1.282l1.051.227c1.159.248,2.472.457,3.9.621a.723.723,0,0,0,.077,0,.656.656,0,0,0,.074-1.308Z" transform="translate(-68.406 -158.014)" fill="#fff"/><path d="M78.741,158.254a46.6,46.6,0,0,0-14.607-.67,55.172,55.172,0,0,0-5.551.9.656.656,0,0,0,.138,1.3.682.682,0,0,0,.139-.014,54.028,54.028,0,0,1,5.419-.881,45.434,45.434,0,0,1,14.216.656.656.656,0,0,0,.246-1.289Z" transform="translate(-58.066 -157.289)" fill="#fff"/></g></g><g transform="translate(38.416 -51.779)"><rect width="0.2" height="270.022" transform="translate(17.501 0.8)" fill="#f4c064"/><g transform="translate(16.8)"><path d="M78.279,154.178a.778.778,0,0,1-.3-.056.8.8,0,0,1-.255-.175.7.7,0,0,1-.176-.256.836.836,0,0,1-.064-.311.8.8,0,0,1,.064-.3.7.7,0,0,1,.176-.255.526.526,0,0,1,.12-.1.711.711,0,0,1,.136-.072.875.875,0,0,1,.152-.048.794.794,0,0,1,.719.224.983.983,0,0,1,.176.255.794.794,0,0,1,.055.3.827.827,0,0,1-.055.311.81.81,0,0,1-.176.256A.79.79,0,0,1,78.279,154.178Z" transform="translate(-77.48 117.439)" fill="#9a1f04"/><path d="M77.48-6.6a.8.8,0,0,1,.8-.8h0a.8.8,0,0,1,.8.8h0a.8.8,0,0,1-.8.8h0A.8.8,0,0,1,77.48-6.6Zm0-3.969a.8.8,0,0,1,.8-.8h0a.8.8,0,0,1,.8.8h0a.8.8,0,0,1-.8.8h0A.8.8,0,0,1,77.48-10.567Zm0-3.976a.8.8,0,0,1,.8-.8h0a.8.8,0,0,1,.8.8h0a.8.8,0,0,1-.8.8h0A.8.8,0,0,1,77.48-14.543Zm0-3.968a.8.8,0,0,1,.8-.8h0a.8.8,0,0,1,.8.8h0a.8.8,0,0,1-.8.8h0A.8.8,0,0,1,77.48-18.511Zm0-3.968a.8.8,0,0,1,.8-.8h0a.8.8,0,0,1,.8.8h0a.8.8,0,0,1-.8.8h0A.8.8,0,0,1,77.48-22.479Zm0-3.976a.8.8,0,0,1,.8-.8h0a.8.8,0,0,1,.8.8h0a.8.8,0,0,1-.8.8h0A.8.8,0,0,1,77.48-26.455Zm0-3.969a.8.8,0,0,1,.8-.8h0a.8.8,0,0,1,.8.8h0a.8.8,0,0,1-.8.8h0A.8.8,0,0,1,77.48-30.423Zm0-3.967a.8.8,0,0,1,.8-.8h0a.8.8,0,0,1,.8.8h0a.8.8,0,0,1-.8.8h0A.8.8,0,0,1,77.48-34.391Zm0-3.976a.8.8,0,0,1,.8-.8h0a.8.8,0,0,1,.8.8h0a.8.8,0,0,1-.8.8h0A.8.8,0,0,1,77.48-38.367Zm0-3.968a.8.8,0,0,1,.8-.8h0a.8.8,0,0,1,.8.8h0a.8.8,0,0,1-.8.8h0A.8.8,0,0,1,77.48-42.335Zm0-3.968a.8.8,0,0,1,.8-.806h0a.8.8,0,0,1,.8.806h0a.794.794,0,0,1-.8.79h0A.794.794,0,0,1,77.48-46.3Zm0-3.976a.8.8,0,0,1,.8-.8h0a.8.8,0,0,1,.8.8h0a.8.8,0,0,1-.8.8h0A.8.8,0,0,1,77.48-50.28Zm0-3.968a.8.8,0,0,1,.8-.8h0a.8.8,0,0,1,.8.8h0a.8.8,0,0,1-.8.8h0A.8.8,0,0,1,77.48-54.248Zm0-3.976a.8.8,0,0,1,.8-.8h0a.8.8,0,0,1,.8.8h0a.8.8,0,0,1-.8.8h0A.8.8,0,0,1,77.48-58.223Zm0-3.969a.8.8,0,0,1,.8-.8h0a.8.8,0,0,1,.8.8h0a.8.8,0,0,1-.8.8h0A.8.8,0,0,1,77.48-62.192Zm0-3.967a.8.8,0,0,1,.8-.8h0a.8.8,0,0,1,.8.8h0a.8.8,0,0,1-.8.8h0A.8.8,0,0,1,77.48-66.16Zm0-3.976a.8.8,0,0,1,.8-.8h0a.8.8,0,0,1,.8.8h0a.8.8,0,0,1-.8.8h0A.8.8,0,0,1,77.48-70.136Zm0-3.968a.8.8,0,0,1,.8-.8h0a.8.8,0,0,1,.8.8h0a.8.8,0,0,1-.8.8h0A.8.8,0,0,1,77.48-74.1Zm0-3.968a.8.8,0,0,1,.8-.8h0a.8.8,0,0,1,.8.8h0a.8.8,0,0,1-.8.8h0A.8.8,0,0,1,77.48-78.072Zm0-3.976a.8.8,0,0,1,.8-.8h0a.8.8,0,0,1,.8.8h0a.8.8,0,0,1-.8.8h0A.8.8,0,0,1,77.48-82.048Zm0-3.968a.8.8,0,0,1,.8-.8h0a.8.8,0,0,1,.8.8h0a.8.8,0,0,1-.8.8h0A.8.8,0,0,1,77.48-86.017Zm0-3.968a.8.8,0,0,1,.8-.8h0a.8.8,0,0,1,.8.8h0a.8.8,0,0,1-.8.8h0A.8.8,0,0,1,77.48-89.985Zm0-3.976a.8.8,0,0,1,.8-.8h0a.8.8,0,0,1,.8.8h0a.8.8,0,0,1-.8.8h0A.8.8,0,0,1,77.48-93.96Zm0-3.968a.8.8,0,0,1,.8-.8h0a.8.8,0,0,1,.8.8h0a.8.8,0,0,1-.8.8h0A.8.8,0,0,1,77.48-97.928Zm0-3.968a.8.8,0,0,1,.8-.806h0a.8.8,0,0,1,.8.806h0a.8.8,0,0,1-.8.8h0A.8.8,0,0,1,77.48-101.9Zm0-3.976a.8.8,0,0,1,.8-.8h0a.8.8,0,0,1,.8.8h0a.8.8,0,0,1-.8.8h0A.8.8,0,0,1,77.48-105.873Zm0-3.968a.8.8,0,0,1,.8-.8h0a.8.8,0,0,1,.8.8h0a.8.8,0,0,1-.8.8h0A.8.8,0,0,1,77.48-109.841Zm0-3.976a.8.8,0,0,1,.8-.8h0a.8.8,0,0,1,.8.8h0a.8.8,0,0,1-.8.8h0A.8.8,0,0,1,77.48-113.817Zm0-3.968a.8.8,0,0,1,.8-.8h0a.8.8,0,0,1,.8.8h0a.8.8,0,0,1-.8.8h0A.8.8,0,0,1,77.48-117.785Zm0-3.969a.8.8,0,0,1,.8-.8h0a.8.8,0,0,1,.8.8h0a.8.8,0,0,1-.8.8h0A.8.8,0,0,1,77.48-121.753Zm0-3.976a.794.794,0,0,1,.8-.79h0a.794.794,0,0,1,.8.79h0a.8.8,0,0,1-.8.8h0A.8.8,0,0,1,77.48-125.729Zm0-3.968a.8.8,0,0,1,.8-.8h0a.8.8,0,0,1,.8.8h0a.8.8,0,0,1-.8.8h0A.8.8,0,0,1,77.48-129.7Zm0-3.968a.8.8,0,0,1,.8-.8h0a.8.8,0,0,1,.8.8h0a.8.8,0,0,1-.8.8h0A.8.8,0,0,1,77.48-133.665Zm0-3.976a.8.8,0,0,1,.8-.8h0a.8.8,0,0,1,.8.8h0a.8.8,0,0,1-.8.8h0A.8.8,0,0,1,77.48-137.642Zm0-3.968a.8.8,0,0,1,.8-.8h0a.8.8,0,0,1,.8.8h0a.8.8,0,0,1-.8.8h0A.8.8,0,0,1,77.48-141.61Zm0-3.968a.8.8,0,0,1,.8-.8h0a.8.8,0,0,1,.8.8h0a.8.8,0,0,1-.8.8h0A.8.8,0,0,1,77.48-145.578Zm0-3.976a.8.8,0,0,1,.8-.8h0a.8.8,0,0,1,.8.8h0a.8.8,0,0,1-.8.8h0A.8.8,0,0,1,77.48-149.554Zm0-3.968a.8.8,0,0,1,.8-.8h0a.8.8,0,0,1,.8.8h0a.8.8,0,0,1-.8.8h0A.8.8,0,0,1,77.48-153.522Zm0-3.968a.8.8,0,0,1,.8-.8h0a.8.8,0,0,1,.8.8h0a.8.8,0,0,1-.8.8h0A.8.8,0,0,1,77.48-157.49Zm0-3.976a.8.8,0,0,1,.8-.8h0a.8.8,0,0,1,.8.8h0a.8.8,0,0,1-.8.8h0A.8.8,0,0,1,77.48-161.466Zm0-3.968a.8.8,0,0,1,.8-.8h0a.8.8,0,0,1,.8.8h0a.8.8,0,0,1-.8.8h0A.8.8,0,0,1,77.48-165.434Zm0-3.968a.8.8,0,0,1,.8-.806h0a.8.8,0,0,1,.8.806h0a.8.8,0,0,1-.8.8h0A.8.8,0,0,1,77.48-169.4Zm0-3.976a.8.8,0,0,1,.8-.8h0a.8.8,0,0,1,.8.8h0a.8.8,0,0,1-.8.8h0A.8.8,0,0,1,77.48-173.378Zm0-3.969a.8.8,0,0,1,.8-.8h0a.8.8,0,0,1,.8.8h0a.8.8,0,0,1-.8.8h0A.8.8,0,0,1,77.48-177.347Zm0-3.976a.794.794,0,0,1,.8-.79h0a.794.794,0,0,1,.8.79h0a.8.8,0,0,1-.8.8h0A.8.8,0,0,1,77.48-181.322Zm0-3.968a.8.8,0,0,1,.8-.8h0a.8.8,0,0,1,.8.8h0a.8.8,0,0,1-.8.8h0A.8.8,0,0,1,77.48-185.291Zm0-3.968a.8.8,0,0,1,.8-.8h0a.8.8,0,0,1,.8.8h0a.8.8,0,0,1-.8.8h0A.8.8,0,0,1,77.48-189.259Zm0-3.976a.8.8,0,0,1,.8-.8h0a.8.8,0,0,1,.8.8h0a.8.8,0,0,1-.8.806h0A.8.8,0,0,1,77.48-193.235Zm0-3.968a.8.8,0,0,1,.8-.8h0a.8.8,0,0,1,.8.8h0a.8.8,0,0,1-.8.8h0A.8.8,0,0,1,77.48-197.2Zm0-3.968a.8.8,0,0,1,.8-.8h0a.8.8,0,0,1,.8.8h0a.8.8,0,0,1-.8.8h0A.8.8,0,0,1,77.48-201.171Zm0-3.976a.8.8,0,0,1,.8-.8h0a.8.8,0,0,1,.8.8h0a.8.8,0,0,1-.8.8h0A.8.8,0,0,1,77.48-205.147Zm0-3.968a.8.8,0,0,1,.8-.8h0a.8.8,0,0,1,.8.8h0a.8.8,0,0,1-.8.8h0A.8.8,0,0,1,77.48-209.115Zm0-3.968a.8.8,0,0,1,.8-.8h0a.8.8,0,0,1,.8.8h0a.8.8,0,0,1-.8.8h0A.8.8,0,0,1,77.48-213.083Zm0-3.976a.8.8,0,0,1,.8-.8h0a.8.8,0,0,1,.8.8h0a.8.8,0,0,1-.8.8h0A.8.8,0,0,1,77.48-217.059Zm0-3.968a.8.8,0,0,1,.8-.8h0a.8.8,0,0,1,.8.8h0a.8.8,0,0,1-.8.8h0A.8.8,0,0,1,77.48-221.027Zm0-3.968a.8.8,0,0,1,.8-.8h0a.8.8,0,0,1,.8.8h0a.8.8,0,0,1-.8.8h0A.8.8,0,0,1,77.48-225Zm0-3.976a.8.8,0,0,1,.8-.8h0a.8.8,0,0,1,.8.8h0a.8.8,0,0,1-.8.8h0A.8.8,0,0,1,77.48-228.971Zm0-3.969a.8.8,0,0,1,.8-.8h0a.8.8,0,0,1,.8.8h0a.8.8,0,0,1-.8.8h0A.8.8,0,0,1,77.48-232.94Zm0-3.968a.8.8,0,0,1,.8-.8h0a.8.8,0,0,1,.8.8h0a.794.794,0,0,1-.8.79h0A.794.794,0,0,1,77.48-236.908Zm0-3.976a.8.8,0,0,1,.8-.8h0a.8.8,0,0,1,.8.8h0a.8.8,0,0,1-.8.8h0A.8.8,0,0,1,77.48-240.884Zm0-3.968a.8.8,0,0,1,.8-.8h0a.8.8,0,0,1,.8.8h0a.8.8,0,0,1-.8.8h0A.8.8,0,0,1,77.48-244.852Zm0-3.976a.794.794,0,0,1,.8-.79h0a.794.794,0,0,1,.8.79h0a.8.8,0,0,1-.8.806h0A.8.8,0,0,1,77.48-248.828Zm0-3.968a.8.8,0,0,1,.8-.8h0a.8.8,0,0,1,.8.8h0a.8.8,0,0,1-.8.8h0A.8.8,0,0,1,77.48-252.8Zm0-3.968a.8.8,0,0,1,.8-.8h0a.8.8,0,0,1,.8.8h0a.8.8,0,0,1-.8.8h0A.8.8,0,0,1,77.48-256.764Zm0-3.968a.8.8,0,0,1,.8-.806h0a.8.8,0,0,1,.8.806h0a.794.794,0,0,1-.8.791h0A.794.794,0,0,1,77.48-260.733Zm0-3.976a.8.8,0,0,1,.8-.8h0a.8.8,0,0,1,.8.8h0a.8.8,0,0,1-.8.8h0A.8.8,0,0,1,77.48-264.708Zm0-3.969a.8.8,0,0,1,.8-.8h0a.8.8,0,0,1,.8.8h0a.8.8,0,0,1-.8.8h0A.8.8,0,0,1,77.48-268.677Z" transform="translate(-77.48 273.449)" fill="#9a1f04"/><path d="M78.279-274.185a.493.493,0,0,1-.151-.016.824.824,0,0,1-.152-.04c-.048-.024-.1-.048-.136-.072a.522.522,0,0,1-.12-.1.709.709,0,0,1-.176-.256.842.842,0,0,1-.064-.311.78.78,0,0,1,.24-.559.523.523,0,0,1,.12-.1c.04-.024.088-.048.136-.072s.1-.032.152-.049a.8.8,0,0,1,.719.224.775.775,0,0,1,.231.559.833.833,0,0,1-.055.311,1,1,0,0,1-.176.256A.792.792,0,0,1,78.279-274.185Z" transform="translate(-77.48 275.779)" fill="#9a1f04"/></g><path d="M79.939,153.711a2.749,2.749,0,1,0-2.748,2.748A2.748,2.748,0,0,0,79.939,153.711Z" transform="translate(-59.557 118.038)" fill="#f49453"/><path d="M75.274,153.142a.21.21,0,0,1-.082-.017.2.2,0,0,1-.1-.265,2.571,2.571,0,0,1,1.461-1.357.2.2,0,0,1,.136.376,2.164,2.164,0,0,0-1.232,1.145A.2.2,0,0,1,75.274,153.142Z" transform="translate(-59.79 117.842)" fill="#fff" opacity="0.2"/><path d="M78.8,150.962a2.241,2.241,0,0,1,1.705,2.022,3.163,3.163,0,0,1-1.569,3.463,2.744,2.744,0,0,0-.136-5.484Z" transform="translate(-61.169 118.038)" fill="#999" opacity="0.2" style="mix-blend-mode:multiply;isolation:isolate"/><rect width="7.422" height="1.868" rx="0.934" transform="translate(13.923 287.619)" fill="#9a1f04"/><rect width="5.554" height="2.528" transform="translate(14.857 285.091)" fill="#f49453"/><path d="M79.7,179.017h1.653v-2.528H79.136c-.577.436-.951.787-.951.787C80.337,177.453,79.785,178.827,79.7,179.017Z" transform="translate(-60.94 108.602)" fill="#999" opacity="0.2" style="mix-blend-mode:multiply;isolation:isolate"/><rect width="4.078" height="1.176" transform="translate(15.595 289.487)" fill="#a74000"/><path d="M50.828,157.892a19.1,19.1,0,0,0,35.269,0,49.791,49.791,0,0,1-8.059-.885c-4.612-.989-9.715-2.235-17.046-1.421A40.7,40.7,0,0,0,50.828,157.892Z" transform="translate(-50.828 116.426)" fill="#9a1f04"/><g transform="translate(0 271.749)"><g clip-path="url(#d)"><g transform="translate(-0.396 2.352)"><path d="M50.6,163.92a.556.556,0,0,1-.159-.024.719.719,0,0,1-.128-.088.464.464,0,0,1-.088-.128.515.515,0,0,1-.023-.159.4.4,0,0,1,.112-.28.4.4,0,0,1,.687.28.516.516,0,0,1-.032.159.451.451,0,0,1-.088.128.718.718,0,0,1-.128.088A.5.5,0,0,1,50.6,163.92Z" transform="translate(-50.199 -160.559)" fill="#f49453"/><path d="M68.216,176.141a.4.4,0,0,1,.4-.4h0a.4.4,0,0,1,.4.4h0a.4.4,0,0,1-.4.4h0A.4.4,0,0,1,68.216,176.141Zm1.6-.032a.4.4,0,0,1,.367-.431h0a.4.4,0,0,1,.431.367h0a.4.4,0,0,1-.367.422h0a.045.045,0,0,1-.032.009h0A.4.4,0,0,1,69.821,176.109Zm-2.842.359h0a.39.39,0,0,1-.359-.431h0a.388.388,0,0,1,.423-.359h0a.4.4,0,0,1,.368.431h0a.393.393,0,0,1-.4.359h-.032Zm4.439-.527a.4.4,0,0,1,.327-.463h0a.4.4,0,0,1,.455.327h0a.393.393,0,0,1-.327.463h-.064A.394.394,0,0,1,71.417,175.941Zm-6.06.327a.4.4,0,0,1-.327-.463h0a.392.392,0,0,1,.455-.327h0a.4.4,0,0,1,.328.463h0a.4.4,0,0,1-.391.327h-.064Zm7.634-.622a.4.4,0,0,1,.287-.487h0a.4.4,0,0,1,.487.288h0a.4.4,0,0,1-.287.486h0a.385.385,0,0,1-.1.008h0A.408.408,0,0,1,72.991,175.646Zm-9.238.279h0a.4.4,0,0,1-.288-.487h0a.4.4,0,0,1,.488-.287h0a.4.4,0,0,1,.287.487h0a.394.394,0,0,1-.391.3h0A.41.41,0,0,1,63.753,175.926Zm10.786-.719a.4.4,0,0,1,.248-.5h0a.385.385,0,0,1,.5.24h0a.388.388,0,0,1-.248.511h0a.333.333,0,0,1-.127.024h0A.4.4,0,0,1,74.539,175.207Zm-12.351.24v.008a.4.4,0,0,1-.247-.511h0a.4.4,0,0,1,.511-.248h0a.393.393,0,0,1,.24.511h0a.4.4,0,0,1-.375.263h0A.384.384,0,0,1,62.188,175.447Zm13.852-.8a.4.4,0,0,1,.209-.527h0a.4.4,0,0,1,.526.2h0a.4.4,0,0,1-.208.528h0a.368.368,0,0,1-.159.04h0A.4.4,0,0,1,76.04,174.649Zm-15.377.2h0a.412.412,0,0,1-.2-.536h0a.4.4,0,0,1,.528-.2h0a.4.4,0,0,1,.2.536h0a.393.393,0,0,1-.359.231h0A.43.43,0,0,1,60.663,174.848Zm16.831-.887a.4.4,0,0,1,.159-.543h-.008a.4.4,0,0,1,.543.159h0a.4.4,0,0,1-.152.543h0a.421.421,0,0,1-.191.047h0A.389.389,0,0,1,77.493,173.962Zm-18.292.151a.4.4,0,0,1-.159-.543h0a.406.406,0,0,1,.543-.159h0a.407.407,0,0,1,.159.543h0a.392.392,0,0,1-.352.207h0A.423.423,0,0,1,59.2,174.113Zm19.681-.958a.4.4,0,0,1,.112-.551h0a.4.4,0,0,1,.552.112h0a.4.4,0,0,1-.113.551h0a.364.364,0,0,1-.223.064h0A.374.374,0,0,1,78.883,173.155Zm-21.078.1a.4.4,0,0,1-.112-.552h0a.4.4,0,0,1,.55-.112h0a.4.4,0,0,1,.112.551h0a.4.4,0,0,1-.335.184h0A.372.372,0,0,1,57.8,173.259ZM80.2,172.237a.39.39,0,0,1,.064-.559h0a.4.4,0,0,1,.558.064h0a.4.4,0,0,1-.064.559h0a.363.363,0,0,1-.247.088h0A.383.383,0,0,1,80.2,172.237Zm-23.72.056h0a.4.4,0,0,1-.064-.559h0a.407.407,0,0,1,.568-.064h0a.4.4,0,0,1,.063.559h0a.42.42,0,0,1-.319.151h0A.411.411,0,0,1,56.479,172.293Zm24.95-1.078a.4.4,0,0,1,.016-.567h0a.4.4,0,0,1,.567.016h0a.4.4,0,0,1-.016.567h0a.406.406,0,0,1-.279.1h0A.405.405,0,0,1,81.429,171.215Zm-26.188.008a.4.4,0,0,1-.016-.567h0a.4.4,0,0,1,.567-.016h0a.4.4,0,0,1,.016.567h0a.4.4,0,0,1-.287.12h0A.406.406,0,0,1,55.242,171.223Zm27.337-1.133a.4.4,0,0,1-.032-.568h0a.4.4,0,0,1,.558-.031h0a.4.4,0,0,1,.032.567h0a.4.4,0,0,1-.3.127h0A.4.4,0,0,1,82.579,170.09Zm-28.479-.04h0a.41.41,0,0,1,.032-.567h0a.4.4,0,0,1,.567.032h0a.411.411,0,0,1-.032.567h0a.424.424,0,0,1-.263.1h0A.4.4,0,0,1,54.1,170.049Zm29.517-1.181a.4.4,0,0,1-.072-.559h0a.4.4,0,0,1,.559-.072h0a.4.4,0,0,1,.079.559h0a.409.409,0,0,1-.328.159h0A.406.406,0,0,1,83.617,168.868Zm-30.555-.088h0a.4.4,0,0,1,.079-.559h0a.405.405,0,0,1,.559.08h0a.4.4,0,0,1-.081.559h0a.393.393,0,0,1-.24.079h0A.4.4,0,0,1,53.063,168.78Zm31.5-1.205a.4.4,0,0,1-.119-.552h0a.392.392,0,0,1,.55-.127h0a.4.4,0,0,1,.12.551h0a.394.394,0,0,1-.335.184h0A.418.418,0,0,1,84.559,167.575Zm-32.431-.136a.406.406,0,0,1,.127-.551h0a.4.4,0,0,1,.552.12h0a.4.4,0,0,1-.128.551h0a.39.39,0,0,1-.207.064h0A.406.406,0,0,1,52.128,167.439ZM85.389,166.2a.406.406,0,0,1-.168-.543h0a.4.4,0,0,1,.535-.168h0a.4.4,0,0,1,.168.535h0a.4.4,0,0,1-.352.216h0A.489.489,0,0,1,85.389,166.2Zm-34.076-.184h0a.408.408,0,0,1,.176-.543h0a.4.4,0,0,1,.535.176h0a.4.4,0,0,1-.168.535h0a.411.411,0,0,1-.183.049h0A.4.4,0,0,1,51.313,166.017Z" transform="translate(-50.595 -161.411)" fill="#f49453"/><path d="M106.544,163.922a.475.475,0,0,1-.153-.024.528.528,0,0,1-.127-.088.328.328,0,0,1-.088-.128.343.343,0,0,1-.032-.151.379.379,0,0,1,.12-.287.409.409,0,0,1,.559,0,.381.381,0,0,1,.12.287.352.352,0,0,1-.032.151.335.335,0,0,1-.088.128A.4.4,0,0,1,106.544,163.922Z" transform="translate(-70.879 -160.561)" fill="#f49453"/><path d="M84.746,161.919a.405.405,0,0,1,.423-.375v.008a.391.391,0,0,1,.375.423h0a.4.4,0,0,1-.423.367h0A.391.391,0,0,1,84.746,161.919Zm-1.261.3a.4.4,0,0,1-.36-.431h0a.4.4,0,0,1,.431-.367h0a.409.409,0,0,1,.368.439h0a.4.4,0,0,1-.4.359h-.04Zm-1.629-.176a.39.39,0,0,1-.344-.439h0a.4.4,0,0,1,.439-.351h0a.4.4,0,0,1,.35.447h0a.4.4,0,0,1-.4.352h0A.1.1,0,0,1,81.856,162.047Zm-29.2-.448a.4.4,0,0,1,.263-.5h0a.392.392,0,0,1,.495.263h0a.387.387,0,0,1-.255.495h0v.008h0a.645.645,0,0,1-.12.016h0A.4.4,0,0,1,52.657,161.6Zm27.577.224a.4.4,0,0,1-.335-.456h0a.406.406,0,0,1,.463-.335h0a.4.4,0,0,1,.328.463h0a.4.4,0,0,1-.391.335h0A.186.186,0,0,1,80.234,161.823Zm-1.62-.3a.393.393,0,0,1-.3-.471h0a.4.4,0,0,1,.472-.311h0a.414.414,0,0,1,.311.479h0a.415.415,0,0,1-.391.319h0A.329.329,0,0,1,78.614,161.52Zm-24.4-.391a.4.4,0,0,1,.28-.487h0a.387.387,0,0,1,.487.28h0a.387.387,0,0,1-.279.487h0a.425.425,0,0,1-.1.016h0A.4.4,0,0,1,54.214,161.128Zm22.811.048h0a.389.389,0,0,1-.3-.471h0a.389.389,0,0,1,.471-.3h0a.39.39,0,0,1,.3.471h0a.392.392,0,0,1-.383.312h0A.3.3,0,0,1,77.025,161.176Zm-21.238-.454a.4.4,0,0,1,.3-.48h0a.407.407,0,0,1,.479.3h0a.4.4,0,0,1-.3.479h0a.382.382,0,0,1-.088.008h0A.4.4,0,0,1,55.787,160.722Zm19.657.128a.4.4,0,0,1-.319-.472h0a.4.4,0,0,1,.471-.311h0a.394.394,0,0,1,.311.471h0a.387.387,0,0,1-.391.32h0A.231.231,0,0,1,75.444,160.85Zm-18.068-.472a.4.4,0,0,1,.32-.471h0a.4.4,0,0,1,.463.32h0a.4.4,0,0,1-.311.463h0a.314.314,0,0,1-.079.008h0A.4.4,0,0,1,57.376,160.377Zm16.479.168h0a.4.4,0,0,1-.327-.463h0a.4.4,0,0,1,.463-.32h0a.4.4,0,0,1,.327.463h0a.408.408,0,0,1-.4.328h0A.188.188,0,0,1,73.856,160.546Zm-14.883-.463a.4.4,0,0,1,.335-.456h0a.4.4,0,0,1,.455.335h0a.4.4,0,0,1-.335.447h0v.009h-.056A.4.4,0,0,1,58.973,160.083Zm13.286.207a.4.4,0,0,1-.336-.456h0a.4.4,0,0,1,.455-.335h0a.4.4,0,0,1,.335.456h0a.4.4,0,0,1-.4.335h-.055Zm-11.673-.448a.4.4,0,0,1,.343-.447h0a.408.408,0,0,1,.447.352h0a.408.408,0,0,1-.351.447h-.048A.4.4,0,0,1,60.586,159.843Zm10.076.24a.393.393,0,0,1-.352-.44h0a.4.4,0,0,1,.439-.351h0a.4.4,0,0,1,.352.439h0a.4.4,0,0,1-.391.359h0A.1.1,0,0,1,70.662,160.083Zm-8.464-.431a.4.4,0,0,1,.359-.431h0a.4.4,0,0,1,.431.359h0a.4.4,0,0,1-.359.439H62.6A.4.4,0,0,1,62.2,159.652Zm6.858.3v-.008h0a.391.391,0,0,1-.368-.422h0a.4.4,0,0,1,.424-.368h0a.4.4,0,0,1,.375.422h0a.408.408,0,0,1-.4.376h-.032Zm-4.823-.048a.388.388,0,0,1-.414-.375h0a.384.384,0,0,1,.374-.415V159.1a.409.409,0,0,1,.424.384h0a.407.407,0,0,1-.384.422h0Zm3.218-.032h0a.394.394,0,0,1-.383-.415h0a.388.388,0,0,1,.407-.383h0a.4.4,0,0,1,.391.407h0a.41.41,0,0,1-.4.391h-.016Zm-2.011-.407a.4.4,0,0,1,.391-.407h0a.4.4,0,0,1,.408.4h0a.4.4,0,0,1-.391.4H65.84A.4.4,0,0,1,65.441,159.46Z" transform="translate(-51.101 -159.053)" fill="#f49453"/></g></g></g><path d="M78.319,158.42l-.785-.17a46.727,46.727,0,0,0-16.389-1.258,43.4,43.4,0,0,0-9.784,2.146c.113.244.227.487.35.725a43.407,43.407,0,0,1,9.523-2.078,46.027,46.027,0,0,1,16.13,1.244l.787.17a48.548,48.548,0,0,0,7.345.864q.206-.386.4-.782A48.482,48.482,0,0,1,78.319,158.42Z" transform="translate(-51.025 115.907)" fill="#b52440"/><path d="M68.462,169.641c-7.948,0-14.759-3.337-17.634-10.243a19.1,19.1,0,0,0,35.269,0C83.222,166.3,76.41,169.641,68.462,169.641Z" transform="translate(-50.828 114.92)" fill="#9a1f04"/><path d="M110.38,130.426c0-7.366-8.952-13.338-8.952-13.338s-8.951,5.971-8.951,13.338,8.951,13.338,8.951,13.338S110.38,137.792,110.38,130.426Z" transform="translate(-66.223 130.559)" fill="#f4c064" opacity="0.1"/><path d="M109.648,134.332c0-6.4-7.183-11.582-7.183-11.582s-7.182,5.185-7.182,11.582,7.182,11.583,7.182,11.583S109.648,140.729,109.648,134.332Z" transform="translate(-67.26 128.466)" fill="#f4c064" opacity="0.2"/><path d="M108.935,138.248c0-5.4-5.46-9.781-5.46-9.781s-5.46,4.379-5.46,9.781,5.46,9.781,5.46,9.781S108.935,143.649,108.935,138.248Z" transform="translate(-68.271 126.353)" fill="#f4c064" opacity="0.3"/><path d="M108.177,142.737c0-4.261-3.625-7.714-3.625-7.714s-3.625,3.454-3.625,7.714,3.625,7.714,3.625,7.714S108.177,147,108.177,142.737Z" transform="translate(-69.347 123.93)" fill="#f4c064"/><path d="M107.752,147.218c0-3.055-2.6-5.531-2.6-5.531s-2.6,2.477-2.6,5.531,2.6,5.531,2.6,5.531S107.752,150.274,107.752,147.218Z" transform="translate(-69.948 121.467)" fill="#f49453"/><path d="M107.2,153.412a4.257,4.257,0,0,0-1.26-2.68,3.482,3.482,0,0,0,0,5.361A4.257,4.257,0,0,0,107.2,153.412Z" transform="translate(-70.734 118.123)" fill="#fff"/><path d="M79.646,185.328H75.568a2.039,2.039,0,0,0,4.078,0Z" transform="translate(-59.973 105.335)" fill="#9a1f04"/><path d="M80.842,184.638v-1.176h-1.08v.738c0,.357.229,1.971-.958,2.477A2.039,2.039,0,0,0,80.842,184.638Z" transform="translate(-61.169 106.025)" fill="#999" opacity="0.2" style="mix-blend-mode:multiply;isolation:isolate"/><path d="M79.389,181.233H74.435a.2.2,0,0,1,0-.4h4.954a.2.2,0,0,1,0,.4Z" transform="translate(-59.481 106.997)" fill="#fff" opacity="0.4"/><g transform="translate(4.562 272.988)" opacity="0.3"><path d="M96.652,160.4c-1.266-.145-2.425-.33-3.445-.548l-.954-.206A.6.6,0,1,0,92,160.818l.959.207c1.057.226,2.255.417,3.558.567a.66.66,0,0,0,.07,0,.6.6,0,0,0,.067-1.193Z" transform="translate(-70.434 -158.156)" fill="#fff"/><path d="M76.927,158.169a42.514,42.514,0,0,0-13.326-.611,50.329,50.329,0,0,0-5.064.823.6.6,0,0,0,.126,1.184.623.623,0,0,0,.127-.013,49.293,49.293,0,0,1,4.943-.8,41.449,41.449,0,0,1,12.969.6.6.6,0,0,0,.224-1.176Z" transform="translate(-58.066 -157.289)" fill="#fff"/></g></g></g></g></svg>