<svg xmlns="http://www.w3.org/2000/svg" xmlns:xlink="http://www.w3.org/1999/xlink" width="226.675" height="226.69" viewBox="0 0 226.675 226.69"><defs><linearGradient id="a" x1="0.5" y1="1.086" x2="0.5" y2="-1.014" gradientUnits="objectBoundingBox"><stop offset="0" stop-color="#ffd263"/><stop offset="1" stop-color="#e8942c"/></linearGradient><linearGradient id="b" x1="0.499" y1="648.857" x2="0.499" y2="-766.126" xlink:href="#a"/><linearGradient id="c" x1="0.501" y1="1096.766" x2="0.501" y2="-1262.891" xlink:href="#a"/><linearGradient id="d" x1="0.502" y1="526.402" x2="0.502" y2="-1533.511" xlink:href="#a"/><linearGradient id="e" x1="0.501" y1="235.137" x2="0.501" y2="-704.182" xlink:href="#a"/><linearGradient id="f" x1="0.5" y1="1103.764" x2="0.5" y2="-1097.22" xlink:href="#a"/><linearGradient id="g" x1="0.5" y1="640.241" x2="0.5" y2="-632.116" xlink:href="#a"/><linearGradient id="h" x1="0.499" y1="238.88" x2="0.499" y2="-473.089" xlink:href="#a"/><linearGradient id="i" x1="0.498" y1="648.513" x2="0.498" y2="-1251.811" xlink:href="#a"/><linearGradient id="ab" x1="0.5" y1="4.1" x2="0.5" y2="-3.826" xlink:href="#a"/><linearGradient id="ac" x1="0.5" y1="5.563" x2="0.5" y2="-9.047" xlink:href="#a"/><linearGradient id="ad" x1="0.5" y1="156.892" x2="0.5" y2="-263.627" xlink:href="#a"/><linearGradient id="ae" x1="0.5" y1="233.291" x2="0.5" y2="-379.015" xlink:href="#a"/><linearGradient id="af" x1="0.5" y1="50.373" x2="0.5" y2="-110.672" xlink:href="#a"/><linearGradient id="ag" x1="0.5" y1="163.299" x2="0.5" y2="-160.073" xlink:href="#a"/><linearGradient id="ah" x1="0.5" y1="40.812" x2="0.5" y2="-91.348" xlink:href="#a"/><linearGradient id="ai" x1="0.5" y1="146.655" x2="0.5" y2="-144.761" xlink:href="#a"/><linearGradient id="aj" x1="0.5" y1="48.099" x2="0.5" y2="-92.856" xlink:href="#a"/><linearGradient id="ak" x1="0.5" y1="144.781" x2="0.5" y2="-142.635" xlink:href="#a"/><linearGradient id="al" x1="0.5" y1="6.394" x2="0.5" y2="-30.455" xlink:href="#a"/><linearGradient id="am" x1="0.5" y1="10.676" x2="0.5" y2="-21.255" xlink:href="#a"/><linearGradient id="an" x1="0.5" y1="7.242" x2="0.5" y2="-29.231" xlink:href="#a"/><linearGradient id="ao" x1="0.5" y1="12.508" x2="0.5" y2="-18.398" xlink:href="#a"/><linearGradient id="ap" x1="0.5" y1="4.915" x2="0.5" y2="-31.21" xlink:href="#a"/><linearGradient id="aq" x1="0.5" y1="14.739" x2="0.5" y2="-19.538" xlink:href="#a"/><linearGradient id="ar" x1="0.5" y1="55.719" x2="0.5" y2="-164.533" xlink:href="#a"/><linearGradient id="as" x1="0.5" y1="127.456" x2="0.5" y2="-148.724" xlink:href="#a"/><linearGradient id="at" x1="0.5" y1="66.085" x2="0.5" y2="-192.554" xlink:href="#a"/><linearGradient id="au" x1="0.5" y1="126.258" x2="0.5" y2="-145.343" xlink:href="#a"/></defs><g transform="translate(0 0)" opacity="0.35"><path d="M297.739,446.69A43.457,43.457,0,0,0,295.558,430a92.116,92.116,0,0,0-6.83-15.415,34.392,34.392,0,0,0-5.37-7.348,71.314,71.314,0,0,0-5.871-5.344,3.487,3.487,0,0,0-3.8-.809c-1.18.336-2.332,1.049-3.51,1.311-.837.186-1.872-.176-2.419,1-.024,1.4.793,1.736,1.285,2.481,4.309,6.426,8.448,13.03,11.328,20.245a46.431,46.431,0,0,1,3.267,23.977,39.107,39.107,0,0,1-11.52,22.732,146.065,146.065,0,0,0-12.1,13.245,65.32,65.32,0,0,0-9.285,15.3,2.941,2.941,0,0,1-.561.913V488.169a5.767,5.767,0,0,0,1.608-.723c3.615-2.25,5.858-7.248,6.484-12.44s-.248-10.589-2.555-13.688c-.978-1.307-1.953-2.185-3.625-2.143l-1.911.049v-4.038a18.141,18.141,0,0,0,6.11-3.643,16.625,16.625,0,0,0,3.968-5.708c1.892-4.361,2.189-9.654,1.069-15.406-.991-5.095-2.332-10.078-3.417-15.378a11.689,11.689,0,0,0,2.852.608,8.3,8.3,0,0,0,2.6-.308,6.613,6.613,0,0,0,3.907-2.739,3.7,3.7,0,0,0-.458-5.025c-1.414-1.359-2.854-.889-4.315-.677a3.838,3.838,0,0,1-2.142-.133,4.265,4.265,0,0,1-1.94-2.315c-.19-.419-1.391-.286-1.759.3-1.381,2.15-3.318.143-4.8,1.274-.356,2.331.769,3.457,1.31,5.035a88.115,88.115,0,0,1,2.663,9.228,48.674,48.674,0,0,1,1.235,9.76c.137,5.486-3,11-6.886,12.883v-4.381a11.525,11.525,0,0,0,4.338-7.719,14.229,14.229,0,0,0,.107-2.365,101.963,101.963,0,0,0-3.225-19.85,3.851,3.851,0,0,0-1.22-2.319v-4.982a9.067,9.067,0,0,0,6.4-4.27c0-.043.02-.044.02-.044.046,0,.208.285.342.491l.01.127c.1,1.112-1.2,3.152.452,3.068a26.057,26.057,0,0,0,6.189-.772,9.57,9.57,0,0,0,2.832-1.427,8.357,8.357,0,0,0,2.4-2.623c.009.042-.013.047,0,.089a.3.3,0,0,0,.172-.084c.6.521.527,2.3,1.5,2.339,8.578.249,12-5.456,9.729-18.875-.289-1.759-.55-3.483-.918-5.481-.845-.189-1.467-.561-1.83-.344-3.5,2.054-6.486,4.283-6.5,14.243.037,3.162.318,7.171-1.977,8.118a.425.425,0,0,0-.117-.1c-.014.047-.036.053-.05.1-.039-3.436.282-6.565.507-9.723a58.766,58.766,0,0,0-.049-10.15c-4.72,2.356-8.708,4.386-10.3,16.692-.109,1.026-.265,3-1.326,1.955l-.079-.123c-.023,0-.1-.122-.15-.162l-.007-.086a42.286,42.286,0,0,1,.888-8.257c.5-2.637,1.108-5.2,1.6-7.955-2.366.994-4.519-.125-6.419,1.522a18.314,18.314,0,0,0-3.32,3.227v-6.657l1-.047a58.194,58.194,0,0,0,10.644-1.152,59.006,59.006,0,0,0,10.128-2.832,73.351,73.351,0,0,0,9.537-4.418,75.56,75.56,0,0,0,14.708-11.049,70.173,70.173,0,0,0,5.152-5.9,67.919,67.919,0,0,0,10.4-18.288,60.63,60.63,0,0,0,2.859-10.118,56.635,56.635,0,0,0,1.182-10.623l.054-1.237h7a17.415,17.415,0,0,0-3.57,3.546,4.325,4.325,0,0,0-1.011,3.036,10.391,10.391,0,0,1-.537,3.394c5.51-.966,10.253-2.441,16.221-2.459l.043,0,.043,0a2.28,2.28,0,0,0,.286.208v.023c1.064,1.089-.959,1.21-1.978,1.339-12.274,1.53-14.354,5.523-16.713,10.237a59.6,59.6,0,0,0,10.157.083c3.152-.218,6.279-.534,9.713-.5-.006.023-.057.059-.1.073a.448.448,0,0,0,.1.119c-.921,2.3-4.967,1.971-8.125,1.947-9.923-.033-12.2,2.936-14.265,6.449-.209.348.158.989.348,1.837l5.469.932c13.421,2.319,19.147-1.079,18.915-9.66-.036-.993-1.818-.908-2.341-1.5a.367.367,0,0,0,.09-.2c-.042-.009-.047.014-.089,0a10.032,10.032,0,0,0,1.533-1.115,9.494,9.494,0,0,0,1.105-1.273,10.665,10.665,0,0,0,1.444-2.822,26.866,26.866,0,0,0,.78-6.166c.083-1.676-1.955-.339-3.066-.464-.043,0-.083-.03-.126-.033a2.619,2.619,0,0,1-.492-.321s0-.024.044-.02c3.021-1.838,3.838-4.256,4.335-6.705h4.681a3.659,3.659,0,0,0,2.568,1.537,102.373,102.373,0,0,0,19.851,3.321,14.371,14.371,0,0,0,2.363-.1c3.446-.434,6.675-2.505,7.942-4.76h4.381c-1.613,4.048-7.388,7.484-13.13,7.3-6.791-.163-12.913-1.9-18.962-3.964-1.578-.547-2.706-1.7-5.035-1.351-1.108,1.5.852,3.416-1.293,4.816-.59.366-.72,1.568-.3,1.759,2.65,1.184,2.648,2.64,2.431,4.086a10.494,10.494,0,0,0-.241,2.169,2.833,2.833,0,0,0,.9,2.123,3.641,3.641,0,0,0,5.022.475,6.523,6.523,0,0,0,2.754-3.882,9.219,9.219,0,0,0,.321-2.588,11.27,11.27,0,0,0-.606-2.85c5.3,1.105,10.284,2.431,15.375,3.471,5.856,1.167,11.226.855,15.624-1.114a16.809,16.809,0,0,0,5.746-4.123,18.482,18.482,0,0,0,3.59-6.33h3.908c-.06.717-.08,1.515-.1,2.389-.043,1.711.835,2.69,2.14,3.673,3.116,2.318,8.43,3.219,13.677,2.6,5.209-.607,10.2-2.834,12.453-6.442a6.3,6.3,0,0,0,.906-2.222h14.516a2.548,2.548,0,0,1-1.483,1.172c-11.388,4.842-19.983,12.784-28.6,21.3-.775.786-1.558,1.539-2.376,2.256q-1.269,1.069-2.59,2.031a42.058,42.058,0,0,1-5.479,3.39,38.664,38.664,0,0,1-12.333,3.806,42.931,42.931,0,0,1-12.645-.158,51.978,51.978,0,0,1-11.332-3.208c-7.149-2.9-13.819-7.073-20.189-11.382-.744-.5-1.082-1.314-2.479-1.294a1.382,1.382,0,0,0-.873,1.1c-.1.425-.073.893-.15,1.314-.272,1.177-.948,2.331-1.327,3.5a3.529,3.529,0,0,0,.81,3.814,67.452,67.452,0,0,0,5.318,5.888,34.566,34.566,0,0,0,7.319,5.393,91.508,91.508,0,0,0,15.4,6.869,43.732,43.732,0,0,0,16.7,2.225,90.849,90.849,0,0,0,11.485-1.579,74.666,74.666,0,0,0,11.132-3.278,62.563,62.563,0,0,0,10.639-5.248,60.327,60.327,0,0,0,9.875-7.506c12.118-11.249,24.123-22.024,40.139-29.579l-1.274-.819h8.375c.66,1.689.069,3.333-1.779,5.148-2.555,2.444-6.184,1.746-8.314,5.3.295,2.039,1.42,2.69,2.431,3.751,3.754,3.935,4.013,8.708.581,13.721-2.313,3.472-5.34,4.962-8.509,6.482-2.437,1.22-5.3.694-7.833,3.838a20.9,20.9,0,0,1,2.209,13.336,25.79,25.79,0,0,1-2.077,6.694,31.987,31.987,0,0,1-3.824,6.452c4.124,1.884,7.972,2.985,10.532,6.674a12.168,12.168,0,0,1,1.678,10.52,13.839,13.839,0,0,1-7.312,8.508c-2.877,1.477-5.629,1.5-8.406,1.482-2.687-.06-4.939-1.791-8.879-.534a13.515,13.515,0,0,1-1.892,9.848A60.343,60.343,0,0,1,428.5,419.8c-3.373,3.522-6.874,3.494-10.218,5.5,1.758,1.532,3.513,3.142,5.357,4.551a17.432,17.432,0,0,1,6.468,8.184,11.346,11.346,0,0,1-1.93,11.293,12.009,12.009,0,0,1-5.048,4,14.775,14.775,0,0,1-5.453.833c-3.1-.023-5.211-1.659-7.37-3.169-1.427-1.042-1.8-3.5-5.066-2.749a20.011,20.011,0,0,0,.7,10.121c.868,3.175,1.95,6.358,1.676,10.092-3.769.269-6.944-.8-10.123-1.673a20.214,20.214,0,0,0-10.128-.737c-.713,3.238,1.7,3.648,2.733,5.079,1.5,2.165,3.132,4.279,3.148,7.384a14.374,14.374,0,0,1-.853,5.438,11.93,11.93,0,0,1-3.967,5.008,11.4,11.4,0,0,1-11.349,1.928,17.857,17.857,0,0,1-8.157-6.491c-1.4-1.85-3.006-3.609-4.486-5.4-2.057,3.273-2,6.839-5.577,10.231a64.131,64.131,0,0,1-8.107,6.665,13.684,13.684,0,0,1-9.856,1.857c-1.29,3.9.5,6.163.5,8.867.011,2.78-.021,5.534-1.452,8.386-3.832,7.546-12.672,10.072-19.105,5.589-3.678-2.568-4.764-6.421-6.635-10.549-8.37,6.123-17.92,8.24-26.5,3.589-3.149,2.527-2.635,5.4-3.862,7.832-1.533,3.154-3.036,6.16-6.512,8.479-5.023,3.43-9.737,3.108-13.717-.624-1.058-1.019-1.648-2.124-3.682-2.462-3.616,2.129-2.873,5.756-5.383,8.31-1.527,1.582-2.982,2.255-4.371,1.976v-7.471c.059.042.059.127.117.169,7.547-16.025,18.364-27.948,29.655-40.042a63.1,63.1,0,0,0,12.848-20.475,77.175,77.175,0,0,0,3.32-11.117A91.837,91.837,0,0,0,297.739,446.69Zm-19.2,53.893c-3.3,4.388-6.638,8.469-9.881,12.4-2.7,3.358-2.7,7.058-2.01,10.8.315,1.87,1.044,3.844,3.722,4.23,2.8.409,4.549-1.533,6.051-3.038a36.377,36.377,0,0,0,2.61-3.58,15.093,15.093,0,0,0,3.148-10.317C281.932,507.632,280.568,504.244,278.542,500.583ZM460.973,340.1c1.154-.876,2.457-1.573,3.582-2.6,1.512-1.5,3.436-3.242,3.069-6.041-.384-2.68-2.355-3.416-4.224-3.736-3.734-.766-7.431-.776-10.8,1.971-3.987,3.228-8.034,6.551-12.434,9.84a25.647,25.647,0,0,0,10.463,3.675A15.134,15.134,0,0,0,460.973,340.1Zm-74.463-8c-.189-1.117-.654-2.225-.8-3.353-.338-2.793-1.834-3.941-5.244-3.359a41.593,41.593,0,0,1-6.174.213c-.888,1.678-.368,3.313.086,4.953s1.041,3.307.537,4.929l-.034.2-.169-.034c-3.658-.524-3.106,2.405-4.791,3.474,1.915,1.444,4.031,1.636,6.064,1.8,2.041.13.686-1.449,1.16-2.157a.445.445,0,0,1,.165-.142l.349-.173.05-.026a.407.407,0,0,1,.275-.047c4.917,1.318,7.437,1.955,8.581,1.135C387.744,338.708,387.333,336.383,386.51,332.094Zm18.106-10.7c.644,4.482.706,4.431,3.774,9.079,1.257-1.243,2.421-2.385,3.589-3.59,1.13-1.211,2.295-2.484,3.638-4.011Zm-14.164,8.518c1.376,1.337,2.637,2.353,2.375,3.686l-.013.076a4.522,4.522,0,0,1-1.214,1.91c-.742.732-1.137,2.943.64,3.742,1.377.6,2.929-.279,4.612-1.882l-4.013-2.94a3.407,3.407,0,0,1,.016-.822l.014-.076c.117-.412.4-.525.873-.491,2.939.271,6.468,2.887,8.784-.13a4.607,4.607,0,0,0,.455-4.643,15.291,15.291,0,0,0-1.108-2.248c-.454-.734-.93-1.45-1.328-2.146-1.1-2.006-2.421-3.859-3.659-5.7-2.84-.023-3.756,2.4-5.524,3.552C387.7,324.332,387.2,326.859,390.452,329.91ZM361.312,334.6a4.949,4.949,0,0,0,4.287,2.415,3.359,3.359,0,0,0,3.179-2.1c.561-1.473.968-3.021,1.245-3.832.135-.786.255-1.48.335-2.1.05-.621.076-1.162.066-1.639a3.725,3.725,0,0,0-.558-2.167c-.757-1.055-2.391-1.479-5.511-2.114-4.511-.913-4.982-.707-5.491,2.3a10.948,10.948,0,0,0,.208,4.6A17.315,17.315,0,0,0,361.312,334.6Zm-4.091-.613c.415-1.406.239-2.721-1.467-4.345C352.455,331.892,352.455,331.784,357.22,333.99Zm-87.627,134.8c-4.635-3.065-4.59-3.179-9.066-3.8.452,3.453.893,6.824,1.44,11C265.021,473.306,267.1,471.352,269.594,468.786Zm8.906-16.129c-.753-1.785-3-1.383-3.736-.641a4.053,4.053,0,0,1-1.99,1.227c-1.336.232-2.348-1.026-3.642-2.406-1.539-1.623-2.94-2.322-4.269-2.13-1.328.172-2.594,1.147-3.842,3.018-1.2,1.764-3.58,2.7-3.609,5.513,1.874,1.268,3.683,2.573,5.685,3.676,2.794,1.656,5.941,4.245,9.027,2.01,3.032-2.268.422-5.834.163-8.765-.033-.472.082-.754.494-.872a4.218,4.218,0,0,1,.9-.03c.714,1.008,1.734,2.352,2.963,4.008C278.212,455.587,279.091,454.034,278.5,452.656Zm-.123-22.316c-1.071,1.7-4,1.119-3.459,4.767a.316.316,0,0,0,0,.175l-.2.034c-1.606.5-3.272-.072-4.91-.538-1.652-.5-3.287-.983-4.967-.106a41.647,41.647,0,0,1-.235,6.177c-.594,3.411.55,4.907,3.376,5.241,1.092.162,2.193.593,3.315.832,4.286.833,6.6,1.21,7.421.074s.209-3.669-1.076-8.594c-.053-.077-.011-.219.073-.326a1.591,1.591,0,0,0,.14-.341c.016-.092.084-.107.143-.166.709-.472,2.316.875,2.159-1.16S279.812,432.258,278.376,430.34Zm-4.486-8.612a16.6,16.6,0,0,0-4.617-2.265,9.318,9.318,0,0,0-2.282-.341,9.1,9.1,0,0,0-2.326.114c-3.011.514-3.217.985-2.319,5.5.624,3.122,1.041,4.756,2.1,5.512a3.734,3.734,0,0,0,2.175.557,18.09,18.09,0,0,0,3.758-.382c.812-.278,2.328-.681,3.8-1.243a3.3,3.3,0,0,0,2.112-3.159A4.929,4.929,0,0,0,273.89,421.728Zm-4.937-5.583c1.612,1.688,2.933,1.905,4.34,1.489C271.134,412.865,271.232,412.818,268.952,416.145Zm22.364,67.538c3.394-.389,5.8-.852,8.356-1.349-.5-3.116-2.245-5.032-4.02-7.52-.7,1.5-1.344,2.893-2.014,4.335C292.94,480.559,292.2,482.022,291.316,483.682Zm17.28,6.393c-.989-.621-2-1.251-3.046-1.817a21.055,21.055,0,0,0-3.274-1.532,11.64,11.64,0,0,0-7.445-.25c-5.061,1.356-7.73,5.175-9.128,9.563-.624,2.165.165,4.2.7,7.337.291,2.08.906,5.043,4.973,6.675a18.806,18.806,0,0,0,10,.932,14.614,14.614,0,0,0,8.123-4.618C313.887,501.147,313.343,492.976,308.6,490.076Zm25.673,8.578c-4.425-4.388-7.822-9.371-13.047-13.424-.942,7.723-2.236,15.338-1.271,22.671a15.684,15.684,0,0,0,3.818,7.815,5.747,5.747,0,0,0,6.612,2.326,7.854,7.854,0,0,0,5.947-6.149C337.6,506.911,337.548,501.883,334.27,498.653Zm-10.19-25.934c2.23-8.565-2.059-14.529-9.985-17.073-7.748-2.554-11.537-.435-13.654,7.675-.882,3.388-1.152,6.811-.365,9.382,2.293,7.292,6.944,10.751,13.137,10.223a12.616,12.616,0,0,0,6.741-3.305A14.3,14.3,0,0,0,324.08,472.719Zm33.611-1.731c-1.746-2.449-5.473-3.728-9.494-3.927a29.292,29.292,0,0,0-6.171.458,18.182,18.182,0,0,0-5.708,2.116A14.046,14.046,0,0,0,329.8,476.5a10.4,10.4,0,0,0,.2,8.573c1.861,4.013,4.526,6.744,7.8,7.985,3.234,1.178,7.059.819,11.014-1.187a20.681,20.681,0,0,0,9.415-10.127C359.84,477.8,359.747,473.852,357.691,470.989Zm-23.377-6.332c-2.308-.7-3.45-2.265-5.589-1.592C328.237,467.305,329.367,468.85,334.314,464.657Zm49.476,6.452a23.783,23.783,0,0,0-9.654-4.326,45.545,45.545,0,0,0-11.428-.684c4.541,6.1,7.229,13.256,13.494,17.753,2.842,2.057,5.914,5.318,10.492,1.215,4.027-3.643,2.273-7.58.467-10.623A12.352,12.352,0,0,0,383.79,471.109Zm21.625-47.573a44.424,44.424,0,0,0,.628,11.451,24.307,24.307,0,0,0,4.267,9.681,13.571,13.571,0,0,0,3.323,3.381c3.026,1.809,7.03,3.56,10.668-.471,4.067-4.528.856-7.581-1.178-10.492C418.61,430.853,411.468,428.138,405.415,423.536Zm-4.242-10.944a46.205,46.205,0,0,0-2.385-17.558,50.411,50.411,0,0,0-9.095-16.207,57.418,57.418,0,0,0-14.784-12.486,76.237,76.237,0,0,0-18.77-7.836,45.608,45.608,0,0,0-13.741-1.572c-2.086.056-4.056.229-5.984.424l-5.759.534a3.141,3.141,0,0,0-2.6,1.877,16.77,16.77,0,0,1-1.512,3.068c4.169-.269,8.783.763,13.454,1.651a59,59,0,0,1,20.672,7.361,43.439,43.439,0,0,1,15.216,15.933c4.5,8.05,5.374,17.3,4.615,26.707-.084,1.071.116,2.58-1.434,2.7.593-.033,1.109.156,1.1.965a75.715,75.715,0,0,0,.54,11.746c.381,3.847.942,7.693,1.387,11.534a3.331,3.331,0,0,1-.667.739,4.262,4.262,0,0,1-.783.694c-3.816-.472-7.657-1.041-11.5-1.426a74.475,74.475,0,0,0-11.762-.574c-.823-.006-1.006-.518-.963-1.1-.136,1.532-1.631,1.343-2.668,1.394-9.448.753-18.69-.152-26.718-4.671a43.672,43.672,0,0,1-15.86-15.285,59.361,59.361,0,0,1-7.32-20.7c-.822-4.647-1.881-9.327-1.595-13.444a19.93,19.93,0,0,1-3.076,1.5,3.772,3.772,0,0,0-1.244.975,2.767,2.767,0,0,0-.644,1.612c-.183,1.943-.365,3.882-.541,5.753-.2,1.913-.374,3.9-.435,5.985a45.909,45.909,0,0,0,1.5,13.753,76.279,76.279,0,0,0,7.77,18.8,57.655,57.655,0,0,0,12.437,14.832,52.956,52.956,0,0,0,7.729,5.354q2.04,1.16,4.172,2.134c1.4.621,2.827,1.168,4.272,1.656a47.742,47.742,0,0,0,8.808,2.1,49.255,49.255,0,0,0,8.738.339l12.341-1c4.08-.421,8.317-.641,12.416-.872,8.314-.314,16.6-.043,25.056,2.381-2.424-8.449-2.66-16.713-2.333-25.032C399.616,429.072,400.578,420.739,401.173,412.592ZM313.6,385.4c3.924,8.459,8.827,16.308,15.952,22.938a20.255,20.255,0,0,0,7.387,4.62,11.923,11.923,0,0,0,8.2-.2,14.933,14.933,0,0,0,4.3-2.677,14.352,14.352,0,0,0,2.661-4.269,10.826,10.826,0,0,0,.859-4.184,12.657,12.657,0,0,0-.613-4.03,20.035,20.035,0,0,0-4.6-7.374c-6.608-7.149-14.437-12.079-22.876-16.06-1.426-.651-3.049-.48-4.17-2.336.017-.019.082-.029.1-.049l.033-.037c3.839-.233,8.073,2.2,12.493,4.369.641-3.207,1.893-6.137.641-9.812a16.271,16.271,0,0,0-8.531.857,7.119,7.119,0,0,0-4.6,4.585.348.348,0,0,0-.212-.019.239.239,0,0,0,.08.1,16.463,16.463,0,0,0-9.424,9.392.234.234,0,0,0-.1-.08.313.313,0,0,0,.037.2.155.155,0,0,1,.066-.116C313.1,382.357,312.947,383.968,313.6,385.4Zm28.446-17.953a.252.252,0,0,1-.077-.117l-.063.1c-4.935-1.641-4.821-1.676-4.207,2.628a4.051,4.051,0,0,0,4.207-2.628c.036.023.089.022.125.044l.016-.024c.322.371.943.517.872.232C342.666,366.564,342.337,367.15,342.043,367.445Zm34.822,37.9a22.909,22.909,0,0,0-.159-7.048,26.714,26.714,0,0,0-2-6.134,28.857,28.857,0,0,0-3.361,3.174,7.958,7.958,0,0,1-3.912,2.4C370.293,400.887,374.116,401.318,376.866,405.345Zm-7.955-19.737c-2.4-1.953-6.358-2.421-9.82-1.954-3.583.412-6.62,1.805-7.629,4.053-.409.933.1,1.678.663,2.56a56.6,56.6,0,0,1,3.131,5.261c.82,1.6,1.881,2.541,3.562,2.07a40.683,40.683,0,0,0,5.937-2.144,15.147,15.147,0,0,0,4.4-3.1C371.466,389.381,371.081,387.419,368.91,385.608Zm2.8,19.485c-3.812-3.161-7.859-3.512-11.941-3.544-2.219-.062-2.887,1.17-3.075,3.091-.208,2.209,1.072,3.354,2.952,3.872a80.2,80.2,0,0,0,9.879,2.238c1.762.289,4.046.61,4.677-1.668C374.827,406.973,372.718,406.039,371.715,405.093Zm6.816,12.054c-1.679-4.61-4.873-3.522-8.923-1.83l5.718,5.8c2.53-.422.826-3.706,3.179-3.872.125-.013.216-.053.278-.059A.96.96,0,0,1,378.53,417.147ZM366.677,380.1a24.414,24.414,0,0,0-9.547-7.264c-.952,2.11.193,4.86-2.366,7.068C359.381,380.138,362.987,380.213,366.677,380.1Zm-22.241-9.156a12.587,12.587,0,0,0-5.579,4.431c-1.788,2.445-1.7,2.754,2.192,5.35,6.989,4.627,7.161,4.678,10.323-.865a19.5,19.5,0,0,0,1.045-2.186c.817-1.855,1.7-3.974-.641-5.941C349.231,369.586,346.585,370.165,344.437,370.946Zm15.373,41.642c-2.949-1.643-5.059-1.462-7.194.683-2.189,2.147-2.363,4.272-.733,7.225a39.88,39.88,0,0,0,4.893,6.784c3.625,3.9,6.7,6.786,10.593,8.535,2.338,1.1,5,1.767,7.318-.4,2.152-2.266,1.476-4.946.421-7.32-1.771-3.871-4.645-6.956-8.533-10.593A39.8,39.8,0,0,0,359.81,412.589Zm-3.43,26.647a.835.835,0,0,1,.033.25,2.557,2.557,0,0,0,.063-.276c.169-2.356,3.444-.646,3.872-3.177l-5.775-5.736a13.218,13.218,0,0,0-1.433,5.331C353.211,437.117,354.068,438.36,356.38,439.236ZM347.8,420.313c-.515-1.885-1.655-3.168-3.859-2.963-1.891.16-3.149.853-3.092,3.076-.007,4.051.356,8.133,3.5,11.946.975.981,1.87,3.119,3.975,2.5,2.263-.644,1.98-2.893,1.691-4.661A80.451,80.451,0,0,0,347.8,420.313Zm-10.805,7.739a7.851,7.851,0,0,1-2.392,3.908,29.767,29.767,0,0,0-3.2,3.351,23.154,23.154,0,0,0,13.175,2.206C340.551,434.745,340.138,430.927,336.994,428.052Zm-.1-8.609c.474-1.684-.437-2.77-2.059-3.572a56.268,56.268,0,0,1-5.245-3.142c-.852-.587-1.593-1.1-2.554-.667-2.279.962-3.636,4.06-4.086,7.6-.471,3.467-.006,7.431,1.955,9.822,1.778,2.2,3.715,2.562,6.717.286a15.181,15.181,0,0,0,3.1-4.4A37.311,37.311,0,0,0,336.889,419.443ZM306.8,402.574c-.319.309-.857.661.255.859.283.072.139-.551-.255-.859l.049-.03c-.023-.037-.022-.09-.044-.126a4.065,4.065,0,0,0,2.621-4.18c-4.32-.657-4.267-.739-2.621,4.18-.026.067-.073.047-.122.079C306.733,402.518,306.755,402.554,306.8,402.574Zm4.247,9.733c1.978,2.386,4.083,1.479,5.968.649a22.151,22.151,0,0,0,2.17-1.008c5.563-3.187,5.539-3.321.922-10.343-2.59-3.91-2.879-3.971-5.348-2.216a13.37,13.37,0,0,0-2.575,2.416,10.774,10.774,0,0,0-1.9,3.168,9.483,9.483,0,0,0-.7,3.524A5.905,5.905,0,0,0,311.05,412.307Zm1.089,5.364a24.376,24.376,0,0,0,7.226,9.568c.146-3.656.092-7.317-.126-11.932C317.014,417.907,314.244,416.713,312.139,417.671Zm-.956-36.323a6.99,6.99,0,0,0-4.607,4.567,16.332,16.332,0,0,0-.9,8.558,9.814,9.814,0,0,0,5.083.4c.794-.122,1.6-.266,2.379-.461s1.558-.407,2.378-.56C313.32,389.425,310.931,385.218,311.183,381.348Zm91.3,8.2c-.7,2.175.888,3.338,1.54,5.629C408.265,390.254,406.693,389.1,402.487,389.544Zm21.987,1.393a10.316,10.316,0,0,0-8.571-.253A14.186,14.186,0,0,0,409,397.2c-2.06,3.4-2.737,7.866-2.614,11.87.192,4.027,1.465,7.763,3.905,9.515,2.873,2.046,6.826,2.137,10.774.531a20.592,20.592,0,0,0,10.154-9.391c2.038-3.905,2.361-7.74,1.205-10.964C431.221,395.5,428.474,392.808,424.475,390.937Zm22.863-9.968c-7.322-.988-14.98.265-22.659,1.145,4.017,5.285,8.963,8.689,13.352,13.137,3.222,3.293,8.269,3.308,13.249,2.049a7.662,7.662,0,0,0,6.153-5.868,5.763,5.763,0,0,0-2.292-6.617A15.2,15.2,0,0,0,447.338,380.969Zm-25.5-20.371c.478-2.558.993-4.955,1.39-8.4-3.287,1.759-5.921,2.993-8.9,4.35C416.811,358.335,418.723,360.085,421.836,360.6Zm7.7,8.949c2.9,4.764,11.034,5.325,16.3.968a14.768,14.768,0,0,0,4.641-8.108,18.718,18.718,0,0,0-.912-10.008c-1.578-4.066-4.574-4.7-6.642-4.993-3.129-.55-5.159-1.394-7.331-.727-4.383,1.383-8.253,4.033-9.591,9.1C424.291,361.236,427.124,365.581,429.539,369.546Zm-34.446,5.38a15.631,15.631,0,0,0,6.244,8.818c2.87,1.792,6.536,2.346,10.8,1.228a14.8,14.8,0,0,0,6.93-4.116,12.6,12.6,0,0,0,3.305-6.72c.585-6.179-2.915-10.91-10.158-13.167-2.584-.8-6.02-.545-9.4.328-4.077,1.009-6.554,2.518-7.852,4.674C393.7,368.142,393.9,371.068,395.093,374.926Zm-17.74-12.686c5.045,3.655,8.433,6.3,12.213,9.377a10.791,10.791,0,0,0,1.944-4.4,10.844,10.844,0,0,1,2.677-4.8C388.255,362.559,383.7,362.5,377.354,362.24Zm-44.839-9.517c.458.359.941.736,1.379,1.078a47.094,47.094,0,0,1,5-.538c1.711-.116,3.489-.159,5.387-.109a93.078,93.078,0,0,1,12.724,1.334,47.132,47.132,0,0,1-17.453-15.237A81.655,81.655,0,0,1,332.515,352.723Zm-23.538-3.315c2.411,1.079,4.84,2.137,7.285,3.1,3.344,1.326,6.277,1.973,8.468,1.663a5.169,5.169,0,0,0,4.608-3.536c.752-1.881,1.692-3.681,2.719-5.9-4.99-.451-8.87-.955-11.832-1.217a29.488,29.488,0,0,0-6.737-.125,4.515,4.515,0,0,0-3.205,1.794A11.463,11.463,0,0,0,308.977,349.407Zm-7.2,8.372c6.227,4.545,9.966,6.645,12.928,6.574,2.883-.133,4.979-2.548,7.221-7.388-3.882-1.754-6.743-3.086-9-3.975a13.119,13.119,0,0,0-5.1-1.26,3.387,3.387,0,0,0-1.616.471,4.806,4.806,0,0,0-1.411,1.142A48.374,48.374,0,0,0,301.776,357.779Zm-.117,7a21.151,21.151,0,0,1,3.157,5.464,23.078,23.078,0,0,1,1.324,5.931,20.245,20.245,0,0,0,3-1.852c.89-.694,1.724-1.409,2.515-2.142a22.878,22.878,0,0,0,3.994-5.487,20.517,20.517,0,0,1-11.378-4.518c-1.91-1.487-3.5-2.356-4.381-1.8C299.318,361.249,300.182,362.867,301.659,364.779Zm-5.272,17.632,1.725-.794,1.457-.863a13.261,13.261,0,0,0,2.3-1.679,5.765,5.765,0,0,0,1.941-3.849c.083-2.966-2.026-6.743-6.516-12.963-.986.606-1.85,1.134-2.568,1.651a20.022,20.022,0,0,0-1.893,1.359A4.288,4.288,0,0,0,291.2,368.3a13.171,13.171,0,0,0,1.245,5.112C293.31,375.636,294.649,378.528,296.387,382.412Zm-12.263,10.079c1.14-.435,2.109-1.016,3.081-1.45.481-.229.958-.434,1.43-.631a14.486,14.486,0,0,1,1.4-.6,5.3,5.3,0,0,0,2.471-1.716,6.275,6.275,0,0,0,1.079-2.885c.309-2.2-.3-5.1-1.633-8.468-.956-2.451-2.007-4.887-3.079-7.3a14.317,14.317,0,0,0-2.425.543,6.442,6.442,0,0,0-1.794.753,3.443,3.443,0,0,0-1.157,1.291,5.237,5.237,0,0,0-.647,1.905C282.333,377.106,283.215,382.5,284.124,392.491Zm9.663,24.989a93.733,93.733,0,0,1-1.286-12.722c-.044-1.9,0-3.689.124-5.388.116-1.725.289-3.414.557-5l-1.072-1.38a83.483,83.483,0,0,1-13.494,7C284.564,404.386,289.472,409.06,293.787,417.48Zm7.789,37.2a11.266,11.266,0,0,1,4.816-2.654c1.59-.494,3.165-.8,4.415-1.92-3.019-3.8-5.675-7.232-9.338-12.255C301.7,444.2,301.764,448.793,301.576,454.685Z" transform="translate(-250.172 -310.498)" fill="url(#a)"/><path d="M338.866,330.337a.445.445,0,0,1,.165-.142l.349-.173a.95.95,0,0,1-.255.336A.654.654,0,0,0,338.866,330.337Z" transform="translate(-211.896 -302.072)" fill="url(#b)"/><path d="M337.343,328.15l-.169-.034a.177.177,0,0,1-.019-.142c.09-.017.175,0,.222-.026Z" transform="translate(-212.637 -302.967)" fill="url(#c)"/><path d="M267.317,397.759c.026-.047.009-.132.026-.222a.262.262,0,0,1,.176.013.315.315,0,0,0,0,.175Z" transform="translate(-242.773 -272.94)" fill="url(#d)"/><path d="M269.41,399.77a1.592,1.592,0,0,0,.14-.341c.016-.092.084-.107.143-.166a.659.659,0,0,0,.02.26A2.255,2.255,0,0,1,269.41,399.77Z" transform="translate(-241.87 -272.192)" fill="url(#e)"/><path d="M309.061,315.965a2.66,2.66,0,0,1-.376-.147l0-.069.043,0,.043,0A2.289,2.289,0,0,0,309.061,315.965Z" transform="translate(-224.921 -308.232)" fill="url(#f)"/><path d="M311.211,315.556c-.043,0-.083-.03-.126-.033a2.624,2.624,0,0,1-.492-.321s0-.024.044-.02l.04.026a1.146,1.146,0,0,1,.251.113l.334.145C311.26,315.488,311.213,315.533,311.211,315.556Z" transform="translate(-224.097 -308.477)" fill="url(#g)"/><path d="M254.644,370.979c0-.043.02-.044.02-.044.046,0,.208.285.342.491l.01.127c-.024,0-.067.049-.092.05l-.142-.334a1.167,1.167,0,0,1-.113-.249Z" transform="translate(-248.242 -284.416)" fill="url(#h)"/><path d="M255.241,369.114l-.007-.086.044,0a1.172,1.172,0,0,1,.113.251C255.369,369.277,255.29,369.154,255.241,369.114Z" transform="translate(-247.987 -285.241)" fill="url(#i)"/><path d="M337.343,328.15l-.169-.034a.177.177,0,0,1-.019-.142c.09-.017.175,0,.222-.026Z" transform="translate(-212.637 -302.967)" fill="url(#c)"/><path d="M267.317,397.759c.026-.047.009-.132.026-.222a.262.262,0,0,1,.176.013.315.315,0,0,0,0,.175Z" transform="translate(-242.773 -272.94)" fill="url(#d)"/><path d="M309.061,315.965a2.66,2.66,0,0,1-.376-.147l0-.069.043,0,.043,0A2.289,2.289,0,0,0,309.061,315.965Z" transform="translate(-224.921 -308.232)" fill="url(#f)"/><path d="M311.262,315.466c0,.023-.049.067-.05.09-.043,0-.083-.03-.126-.033a2.624,2.624,0,0,1-.492-.321s0-.024.044-.02l.04.026a1.146,1.146,0,0,1,.251.113Z" transform="translate(-224.097 -308.477)" fill="url(#g)"/><path d="M338.866,330.337a.445.445,0,0,1,.165-.142l.349-.173a.95.95,0,0,1-.255.336A.654.654,0,0,0,338.866,330.337Z" transform="translate(-211.896 -302.072)" fill="url(#b)"/><path d="M337.378,327.948l-.034.2-.169-.034a.177.177,0,0,1-.019-.142C337.246,327.957,337.331,327.974,337.378,327.948Z" transform="translate(-212.637 -302.967)" fill="url(#c)"/><path d="M338.866,330.337a.445.445,0,0,1,.165-.142l.349-.173a.95.95,0,0,1-.255.336A.654.654,0,0,0,338.866,330.337Z" transform="translate(-211.896 -302.072)" fill="url(#b)"/><path d="M337.378,327.948l-.034.2-.169-.034a.177.177,0,0,1-.019-.142C337.246,327.957,337.331,327.974,337.378,327.948Z" transform="translate(-212.637 -302.967)" fill="url(#c)"/><path d="M338.866,330.337a.445.445,0,0,1,.165-.142l.349-.173a.95.95,0,0,1-.255.336A.654.654,0,0,0,338.866,330.337Z" transform="translate(-211.896 -302.072)" fill="url(#b)"/><path d="M337.378,327.948l-.034.2-.169-.034a.177.177,0,0,1-.019-.142C337.246,327.957,337.331,327.974,337.378,327.948Z" transform="translate(-212.637 -302.967)" fill="url(#c)"/><path d="M267.317,397.759c.026-.047.009-.132.026-.222a.262.262,0,0,1,.176.013.315.315,0,0,0,0,.175Z" transform="translate(-242.773 -272.94)" fill="url(#d)"/><path d="M267.317,397.759c.026-.047.009-.132.026-.222a.262.262,0,0,1,.176.013.315.315,0,0,0,0,.175Z" transform="translate(-242.773 -272.94)" fill="url(#d)"/><path d="M337.343,328.15l-.169-.034a.177.177,0,0,1-.019-.142c.09-.017.175,0,.222-.026Z" transform="translate(-212.637 -302.967)" fill="url(#c)"/><path d="M338.866,330.337a.445.445,0,0,1,.165-.142l.349-.173a.95.95,0,0,1-.255.336A.654.654,0,0,0,338.866,330.337Z" transform="translate(-211.896 -302.072)" fill="url(#b)"/><path d="M337.343,328.15l-.169-.034a.177.177,0,0,1-.019-.142c.09-.017.175,0,.222-.026Z" transform="translate(-212.637 -302.967)" fill="url(#c)"/><path d="M338.866,330.337a.445.445,0,0,1,.165-.142l.349-.173a.95.95,0,0,1-.255.336A.654.654,0,0,0,338.866,330.337Z" transform="translate(-211.896 -302.072)" fill="url(#b)"/><path d="M311.211,315.556c-.043,0-.083-.03-.126-.033a2.624,2.624,0,0,1-.492-.321s0-.024.044-.02l.04.026a1.146,1.146,0,0,1,.251.113l.334.145C311.26,315.488,311.213,315.533,311.211,315.556Z" transform="translate(-224.097 -308.477)" fill="url(#g)"/><path d="M309.061,315.965a2.66,2.66,0,0,1-.376-.147l0-.069.043,0,.043,0A2.289,2.289,0,0,0,309.061,315.965Z" transform="translate(-224.921 -308.232)" fill="url(#f)"/><path d="M250.172,370.539V367.1a55.3,55.3,0,0,0,21.525-4.446,59.17,59.17,0,0,0,30.6-30.549,55.271,55.271,0,0,0,4.475-21.609h3.436a58.793,58.793,0,0,1-60.039,60.041Z" transform="translate(-250.172 -310.498)" fill="url(#ab)"/><path d="M325.536,386.118a8.727,8.727,0,0,1-6.8,2.309,13.846,13.846,0,0,1-7.746-3.68,52.588,52.588,0,0,1-15.435-24.123l-.162-.082c2.963,1.891,3.582,4.9,5.111,7.427,3.444,5.567,7.03,10.917,12.5,14.905,3.935,2.875,6.727,2.865,9.527.371l.076-.069.072-.07c2.51-2.787,2.492-5.612-.335-9.527-3.98-5.493-9.3-9.077-14.874-12.559-2.524-1.546-5.523-2.162-7.41-5.138l.082.163a54.516,54.516,0,0,1,12.748,5.855,52.738,52.738,0,0,1,11.325,9.664,13.86,13.86,0,0,1,3.66,7.765A8.77,8.77,0,0,1,325.536,386.118Z" transform="translate(-230.657 -290.913)" fill="url(#ac)"/><path d="M295.584,359.518l-.262-1.077c.242.235.594.47.7.7.206.442-.062.544-.6.293Z" transform="translate(-230.688 -289.808)" fill="url(#ad)"/><path d="M299.033,356.076l-1.074-.265c.235.243.468.6.7.707.441.208.543-.06.292-.6Z" transform="translate(-229.55 -290.943)" fill="url(#ae)"/><path d="M254.843,381.449c-.593-.835-1.227-1.925-.484-2.877.324-.419.872.943,1.132,1.817Q255.18,380.934,254.843,381.449Z" transform="translate(-248.51 -281.155)" fill="url(#af)"/><path d="M321.1,315.412c-.836-.6-1.927-1.234-2.877-.494-.419.322.943.875,1.817,1.138Q320.587,315.747,321.1,315.412Z" transform="translate(-220.837 -308.734)" fill="url(#ag)"/><path d="M255.244,379.817c.774,1.026,1.456,2.638.544,3.486-.664.613-.965-1.353-1.191-2.425Q254.932,380.362,255.244,379.817Z" transform="translate(-248.262 -280.583)" fill="url(#ah)"/><path d="M319.472,315.807c1.028.779,2.64,1.466,3.486.555.611-.661-1.354-.969-2.426-1.2Q320.016,315.5,319.472,315.807Z" transform="translate(-220.266 -308.485)" fill="url(#ai)"/><path d="M255.6,369.035c1.089,2.134.262,2.749-.61,3.377C253.974,370.33,254.588,369.5,255.6,369.035Z" transform="translate(-248.317 -285.236)" fill="url(#aj)"/><path d="M308.695,316.131c2.136,1.1,2.749.272,3.374-.6C309.986,314.5,309.154,315.116,308.695,316.131Z" transform="translate(-224.916 -308.554)" fill="url(#ak)"/><path d="M310.99,433.977c-1.238-2.615.488-6.038,3.682-7.832,3.971-2.26,7.826-1.63,9.911,1.678a6.435,6.435,0,0,1-2.671,9.025,8.53,8.53,0,0,1-6.247.532A7,7,0,0,1,310.99,433.977Zm5.062-1.54c.895,1.34,2.534,1.822,4.408.938a2.751,2.751,0,0,0,1.676-3.636c-.647-1.313-2.176-1.47-3.759-.713C316.924,429.708,315.5,430.422,316.052,432.436Z" transform="translate(-224.1 -261.169)" fill="url(#al)"/><path d="M367.25,385.316c-3.293-2.091-3.922-5.957-1.656-9.924,1.862-3.215,5.229-4.906,7.851-3.652a7.023,7.023,0,0,1,3.4,4.671,10.123,10.123,0,0,1,.318,3.254,7.566,7.566,0,0,1-.89,3A6.446,6.446,0,0,1,367.25,385.316Zm1.921-2.441a2.773,2.773,0,0,0,3.635-1.669c.876-1.88.448-3.553-.908-4.4-2.034-.568-2.751.852-3.407,2.262C367.706,380.692,367.861,382.222,369.171,382.875Z" transform="translate(-200.942 -284.248)" fill="url(#am)"/><path d="M287.687,425.107a4.68,4.68,0,0,1,.213-4.464,9.506,9.506,0,0,1,4.412-3.381,6.815,6.815,0,0,1,9.76,3.911,5.582,5.582,0,0,1,.059,4.634,6.659,6.659,0,0,1-3.771,3.2C294.505,430.56,289.1,428.454,287.687,425.107Zm4.741-1.3a4.55,4.55,0,0,0,5.022,1.721,2.443,2.443,0,0,0,2.013-3.013c-.663-2.416-2.727-2.1-4.643-1.582A2.97,2.97,0,0,0,292.428,423.811Z" transform="translate(-234.182 -264.764)" fill="url(#an)"/><path d="M360.666,362.78a7.409,7.409,0,0,1-4.24-3.987,7.5,7.5,0,0,1,.365-5.786,9.681,9.681,0,0,1,3.41-4.412,4.585,4.585,0,0,1,4.455-.183c3.363,1.429,5.43,6.785,3.861,10.686C367.165,362.758,363.889,364.215,360.666,362.78Zm1.37-2.6a2.48,2.48,0,0,0,3.029-2.049,4.667,4.667,0,0,0-1.715-5.032,2.991,2.991,0,0,0-2.873,2.385C359.953,357.4,359.622,359.51,362.036,360.181Z" transform="translate(-204.501 -294.347)" fill="url(#ao)"/><path d="M291.332,445.272a7.248,7.248,0,0,1-2.879,4.4,6.236,6.236,0,0,1-4.983.481c-3.847-.989-5.846-5.119-4.073-8.269a8.17,8.17,0,0,1,7.1-4.612c3.2-.133,4.9,1.533,5.225,4.166.147,1.291,2.258,2.674-.5,3.993-.64-.833-1.235-1.695-1.908-2.505-1.248-1.51-2.822-1.822-4.67-.418a2.792,2.792,0,0,0-1.074,2.1c.233,2.04,2.034,2.328,4.17,1.779C288.947,446.057,290.135,445.648,291.332,445.272Z" transform="translate(-237.842 -255.793)" fill="url(#ap)"/><path d="M384.814,352.113c4.127-1.115,5.961-3.917,4.909-7.843-.985-3.852-5.111-5.868-8.261-4.1a8.246,8.246,0,0,0-4.64,7.082c-.137,3.2,1.527,4.912,4.159,5.242,1.29.152,2.668,2.268,3.99-.49-.832-.643-1.692-1.243-2.5-1.918-1.5-1.251-1.842-2.836-.389-4.668a2.778,2.778,0,0,1,2.1-1.067c2.027.238,2.348,2.049,1.749,4.173C385.6,349.729,385.19,350.918,384.814,352.113Z" transform="translate(-195.52 -297.973)" fill="url(#aq)"/><path d="M268.425,398.52c.988-.4,1.56.056,1.715,1.369C268.616,401.316,268.379,400.2,268.425,398.52Z" transform="translate(-242.297 -272.572)" fill="url(#ar)"/><path d="M338.124,329.05c-.4.986.057,1.562,1.367,1.719C340.918,329.251,339.8,329.009,338.124,329.05Z" transform="translate(-212.276 -302.493)" fill="url(#as)"/><path d="M267.353,397.539a1.446,1.446,0,0,1,1.7,1.459C267.869,399.689,267.081,399.573,267.353,397.539Z" transform="translate(-242.781 -272.935)" fill="url(#at)"/><path d="M337.16,327.978c.007.835.145,1.535,1.434,1.7C339.333,328.507,339.181,327.71,337.16,327.978Z" transform="translate(-212.632 -302.977)" fill="url(#au)"/></g></svg>