<svg xmlns="http://www.w3.org/2000/svg" width="215.845" height="215.845" viewBox="0 0 215.845 215.845"><g transform="translate(0 0)"><path d="M1104.162,62.88a79.726,79.726,0,0,0-38.511.069c-.221-3.765.281-8.523,3.165-12.426,5.182-7.014,16.049-19.076,16.09-19.122.037.046,10.9,12.108,16.085,19.122C1103.862,54.4,1104.374,59.124,1104.162,62.88Z" transform="translate(-978.301 -31.401)" fill="#f5eac1"/><path d="M1023.307,79.093a79.506,79.506,0,0,0-33.4,19.3,18.58,18.58,0,0,1-3.1-11.767c.982-8.661,4.36-24.543,4.374-24.6.055.023,15.495,5.034,23.492,8.518A18.6,18.6,0,0,1,1023.307,79.093Z" transform="translate(-938.357 -46.903)" fill="#f5eac1"/><path d="M952.492,136.8a79.538,79.538,0,0,0-19.311,33.426,18.214,18.214,0,0,1-7.941-8.3c-3.484-7.992-8.5-23.436-8.513-23.5.055-.009,15.938-3.387,24.6-4.37A18.234,18.234,0,0,1,952.492,136.8Z" transform="translate(-902.924 -83.331)" fill="#f5eac1"/><path d="M918.51,252.185a17.967,17.967,0,0,1-10.618-3.207c-7.014-5.182-19.076-16.048-19.122-16.09.046-.037,12.108-10.9,19.122-16.085a17.869,17.869,0,0,1,10.332-3.2,79.719,79.719,0,0,0,.286,38.585Z" transform="translate(-888.77 -123.648)" fill="#f5eac1"/><path d="M954.8,331.424a18.05,18.05,0,0,1-10.807,2.529c-8.661-.983-24.543-4.361-24.6-4.375.023-.055,5.034-15.5,8.518-23.491a17.684,17.684,0,0,1,7.014-7.743A79.667,79.667,0,0,0,954.8,331.424Z" transform="translate(-904.272 -166.554)" fill="#f5eac1"/><path d="M1027.541,388.54a18.176,18.176,0,0,1-8.246,7.854c-7.992,3.484-23.436,8.495-23.5,8.513-.009-.056-3.387-15.938-4.37-24.6a17.7,17.7,0,0,1,2.224-10.244A79.439,79.439,0,0,0,1027.541,388.54Z" transform="translate(-940.699 -202.864)" fill="#f5eac1"/><path d="M1106.348,418.018c-5.182,7.014-16.049,19.076-16.09,19.122-.037-.046-10.9-12.108-16.086-19.122a17.819,17.819,0,0,1-3.2-10.308,79.831,79.831,0,0,0,38.58-1.246A18.476,18.476,0,0,1,1106.348,418.018Z" transform="translate(-981.018 -221.295)" fill="#f5eac1"/><path d="M1190.792,375.548c-.983,8.666-4.36,24.548-4.374,24.608-.056-.023-15.5-5.034-23.492-8.518a18.134,18.134,0,0,1-8.26-7.877,79.718,79.718,0,0,0,32.7-20.488C1189.422,366.421,1191.337,370.763,1190.792,375.548Z" transform="translate(-1023.393 -199.428)" fill="#f5eac1"/><path d="M1260.724,323.471c-.055.009-15.938,3.391-24.6,4.37a18.564,18.564,0,0,1-11.758-3.092,79.365,79.365,0,0,0,18.194-33.957c3.479,1.661,7.628,4.527,9.653,9.187C1255.694,307.971,1260.705,323.416,1260.724,323.471Z" transform="translate(-1058.681 -162.731)" fill="#f5eac1"/><path d="M1292.678,227.538c-.046.037-12.108,10.9-19.122,16.085-3.867,2.861-8.569,3.378-12.32,3.175a79.8,79.8,0,0,0-1.019-38.447c3.89-.355,9.113-.028,13.34,3.1C1280.57,216.63,1292.632,227.5,1292.678,227.538Z" transform="translate(-1076.833 -120.933)" fill="#f5eac1"/><path d="M1256.617,133.808c-.023.055-5.034,15.495-8.518,23.491-1.984,4.554-5.99,7.4-9.418,9.077a79.647,79.647,0,0,0-19.832-32.914c3.193-2.261,7.908-4.624,13.16-4.029C1240.674,130.416,1256.557,133.794,1256.617,133.808Z" transform="translate(-1055.889 -80.988)" fill="#f5eac1"/><path d="M1181.527,96.571a79.509,79.509,0,0,0-33.44-18.969c1.656-3.493,4.527-7.687,9.224-9.731,7.992-3.484,23.437-8.5,23.492-8.514.009.056,3.392,15.938,4.37,24.6C1185.735,88.916,1183.664,93.4,1181.527,96.571Z" transform="translate(-1020.062 -45.555)" fill="#f5eac1"/><path d="M1024.628,249.528a78.363,78.363,0,1,1,78.363-78.363A78.452,78.452,0,0,1,1024.628,249.528Zm0-149.814a71.451,71.451,0,1,0,71.451,71.451A71.532,71.532,0,0,0,1024.628,99.714Z" transform="translate(-917.88 -62.488)" fill="#f5eac1"/></g><ellipse cx="62.948" cy="62.948" rx="62.948" ry="62.948" transform="translate(44.975 44.975)" fill="#f5eac1"/></svg>