<svg xmlns="http://www.w3.org/2000/svg" xmlns:xlink="http://www.w3.org/1999/xlink" width="44" height="23" viewBox="0 0 44 23"><defs><clipPath id="a"><rect width="44" height="23" fill="#fff"/></clipPath></defs><g clip-path="url(#a)"><path d="M58.109,90.913a8.037,8.037,0,0,1-4.486,1.218,3.678,3.678,0,0,1-3.607-5.094,3.568,3.568,0,0,1,3.192-2.148q-.348-.184-.7-.4a3.676,3.676,0,0,1-.342-6.232A3.512,3.512,0,0,1,55.743,78a3.639,3.639,0,0,1-.709-3.73,3.759,3.759,0,0,1,.834-1.282,3.7,3.7,0,0,1,1.273-.84,3.427,3.427,0,0,1,3.031.258,3.559,3.559,0,0,1,.794-3.732,3.707,3.707,0,0,1,1.28-.831,3.747,3.747,0,0,1,1.508-.251,3.708,3.708,0,0,1,3.293,2.5q.156.384.279.77c-.021-.3-.03-.608-.028-.914a3.615,3.615,0,0,1,2.1-3.454,3.687,3.687,0,0,1,1.492-.311A3.643,3.643,0,0,1,74.552,70q.008.5-.029.981c.1-.341.219-.681.354-1.02a3.613,3.613,0,0,1,3.206-2.456,3.68,3.68,0,0,1,1.5.25,3.644,3.644,0,0,1,2.03,4.894q-.144.387-.3.742c.1-.1.2-.2.3-.3a3.616,3.616,0,0,1,3.925-.944,3.688,3.688,0,0,1,1.274.84,3.742,3.742,0,0,1,.834,1.282A3.637,3.637,0,0,1,86.936,78a3.511,3.511,0,0,1,3.574.254A3.694,3.694,0,0,1,91.55,79.37a3.65,3.65,0,0,1-1.382,5.116q-.331.207-.675.39l.135,0a3.614,3.614,0,0,1,3.413,2.159,3.666,3.666,0,0,1-3.608,5.094,8.439,8.439,0,0,1-3.839-.843,7.89,7.89,0,0,1-1.664-1.16,24.5,24.5,0,0,1-.829,2.515H82a15.7,15.7,0,0,0,1.355-5.767c-.07-2.787-2.281-5.692-4.153-7.6a24.632,24.632,0,0,0-4.617-3.706,8.851,8.851,0,0,0-3.757-1.465,8.6,8.6,0,0,0-3.718,1.445,23.237,23.237,0,0,0-4.529,3.71c-1.939,2.036-3.976,4.94-4.093,7.845a16.086,16.086,0,0,0,1.271,5.535H58.69c-.2-.534-.4-1.122-.581-1.731Zm22.05,1.731a12.171,12.171,0,0,0,.991-4.453c-.058-2.342-1.795-4.7-3.372-6.308a19.043,19.043,0,0,0-3.728-2.959,7.361,7.361,0,0,0-3.195-1.191,7.192,7.192,0,0,0-3.17,1.178,18.03,18.03,0,0,0-3.668,2.97c-1.616,1.7-3.221,4.057-3.317,6.47a12.424,12.424,0,0,0,.946,4.292h1.076a12.278,12.278,0,0,1-1-4.252c.086-2.147,1.6-4.3,3.037-5.805a17.365,17.365,0,0,1,3.361-2.758,6.367,6.367,0,0,1,2.736-1.071,6.552,6.552,0,0,1,2.766,1.086A18.4,18.4,0,0,1,77.049,82.6c1.379,1.4,3.029,3.559,3.08,5.615a11.96,11.96,0,0,1-1.068,4.429Zm-2.817,0a8.593,8.593,0,0,0,.715-3.171,7.252,7.252,0,0,0-2.345-4.41,13.111,13.111,0,0,0-2.59-2.049,5.152,5.152,0,0,0-2.245-.829,5.045,5.045,0,0,0-2.229.82,12.42,12.42,0,0,0-2.55,2.059,7.519,7.519,0,0,0-2.306,4.516,8.762,8.762,0,0,0,.685,3.064h1.079a8.667,8.667,0,0,1-.742-3.024,6.581,6.581,0,0,1,2.026-3.851,11.711,11.711,0,0,1,2.242-1.847,4.2,4.2,0,0,1,1.8-.713,4.342,4.342,0,0,1,1.816.723,12.438,12.438,0,0,1,2.289,1.847c.908.925,2.019,2.362,2.053,3.717a8.366,8.366,0,0,1-.8,3.146ZM57.488,86.792a7.672,7.672,0,0,0-4.034-.892,2.622,2.622,0,0,0-2.5,1.534,2.674,2.674,0,0,0-.205,1.084,2.627,2.627,0,0,0,2.866,2.59,6.957,6.957,0,0,0,4.2-1.245,10.465,10.465,0,0,1-.352-2.795c0-.092.01-.184.017-.276Zm26.7,2.185a7.971,7.971,0,0,0,1.77,1.34,7.352,7.352,0,0,0,3.476.791,2.629,2.629,0,0,0,2.867-2.59,2.674,2.674,0,0,0-.205-1.084A2.623,2.623,0,0,0,89.6,85.9a7.922,7.922,0,0,0-3.635.683,7.46,7.46,0,0,0-1.605,1.064,11.682,11.682,0,0,1-.171,1.33Zm.158-2.62a8.18,8.18,0,0,1,.862-.54c-.321-.027-.639-.073-.962-.13.044.223.078.446.1.67Zm-.394-1.768a8.194,8.194,0,0,0,2.307.21,7.366,7.366,0,0,0,3.364-1.182A2.626,2.626,0,0,0,90.673,79.9a2.678,2.678,0,0,0-.749-.808,2.626,2.626,0,0,0-2.931.032,7.867,7.867,0,0,0-2.731,2.54,7.446,7.446,0,0,0-.783,1.755,10.663,10.663,0,0,1,.477,1.171Zm-1.128-2.374a7.655,7.655,0,0,1,1.258-2.039,7.61,7.61,0,0,1-2.224.615,17.114,17.114,0,0,1,.966,1.424ZM81.1,79.832a6.779,6.779,0,0,0,4.852-2.264,2.625,2.625,0,0,0,.137-3.86,2.673,2.673,0,0,0-.92-.607,2.627,2.627,0,0,0-2.839.723,7.987,7.987,0,0,0-1.984,2.918,7.08,7.08,0,0,0-.4,1.831c.381.388.77.811,1.151,1.26Zm-2.066-2.148a7.61,7.61,0,0,1,.553-1.8,7.9,7.9,0,0,1-1.4,1.051q.435.368.85.752Zm-1.7-1.445a6.964,6.964,0,0,0,1.523-1.076,7.467,7.467,0,0,0,1.81-2.868,2.627,2.627,0,0,0-1.441-3.584,2.677,2.677,0,0,0-1.089-.182,2.623,2.623,0,0,0-2.3,1.813,7.392,7.392,0,0,0-.472,4.517c.672.421,1.332.884,1.97,1.379ZM74.2,74.188a7.425,7.425,0,0,1-.022-1.336,7.228,7.228,0,0,1-.442,1.1q.238.117.465.239Zm-1.407-.657a7.348,7.348,0,0,0,.739-3.516A2.629,2.629,0,0,0,70.886,67.2a2.673,2.673,0,0,0-1.08.227,2.622,2.622,0,0,0-1.487,2.522,7.943,7.943,0,0,0,.7,3.524,5.412,5.412,0,0,1,1.812-.389,5.645,5.645,0,0,1,1.958.449Zm-4.716.346a7.514,7.514,0,0,1-.343-.866,7.141,7.141,0,0,1-.024,1.049c.12-.062.243-.123.368-.183Zm-1.511.83a7,7,0,0,0-.466-4.239A2.626,2.626,0,0,0,62.615,68.8a2.668,2.668,0,0,0-.925.6,2.625,2.625,0,0,0-.476,2.892,7.213,7.213,0,0,0,3.17,3.951,22.366,22.366,0,0,1,2.179-1.531Zm-3.014,2.224-.084-.054c.01.034.019.069.028.1l.056-.048Zm-.926.845a7.389,7.389,0,0,0-2.27-3.954,2.625,2.625,0,0,0-2.839-.723,2.675,2.675,0,0,0-.921.607,2.626,2.626,0,0,0,.138,3.86,6.888,6.888,0,0,0,4.052,2.186c.347-.421.7-.821,1.062-1.2q.378-.4.778-.781ZM60.07,80.669a7.238,7.238,0,0,1-1.484-.5,7.376,7.376,0,0,1,.916,1.313q.274-.416.568-.816Zm-1.2,1.861a7.343,7.343,0,0,0-3.185-3.406,2.625,2.625,0,0,0-2.931-.032,2.678,2.678,0,0,0-.749.808,2.624,2.624,0,0,0,1.046,3.718A6.8,6.8,0,0,0,57.9,84.735,12.544,12.544,0,0,1,58.871,82.53Z" transform="translate(-49.731 -66.178)" fill="#c97918" fill-rule="evenodd"/></g></svg>