<svg xmlns="http://www.w3.org/2000/svg" xmlns:xlink="http://www.w3.org/1999/xlink" width="532" height="293.744" viewBox="0 0 532 293.744"><defs><linearGradient id="a" x1="0.824" y1="0.559" x2="0.017" y2="0.563" gradientUnits="objectBoundingBox"><stop offset="0" stop-color="#f06322"/><stop offset="0.067" stop-color="#f06623"/><stop offset="0.55" stop-color="#f26b24"/><stop offset="0.739" stop-color="#f26b24"/><stop offset="1" stop-color="#f26b24" stop-opacity="0.012"/></linearGradient></defs><path d="M807.455,592.063V735.3H275.582l-.064-70.985-.005-1.687-.058-66.409,15.412-49.284s-.639-3.841,4.563-4.931c0,0-.764-2.437,2.219-3.915,0,0-1.394-2.257,1.054-3.029l.994-3.686,1,3.686c2.446.772,1.054,3.029,1.054,3.029,2.989,1.478,2.219,3.915,2.219,3.915,5.208,1.09,4.563,4.931,4.563,4.931L322.111,592.9h1.884v-8.351L325.866,583l.943-2.059h.706v-1.973h1.629s-.744-1.878.877-2.3l.8-1.314.821,1.336s1.8-.047,1,2.366h1.079v-1.766h1.937V575.7h2.772v-1.511h-1.154v-.921H338.6a4.4,4.4,0,0,1,3.284-1.442s-3.2-2.394.3-4.469l1.405-3.7h.031l1.405,3.7c3.5,2.075.3,4.469.3,4.469a4.395,4.395,0,0,1,3.282,1.442h1.325v.921h-1.154V575.7h2.77v1.586h1.937v1.766h1.079c-.8-2.414,1-2.366,1-2.366l.825-1.336.8,1.314c1.624.421.879,2.3.879,2.3h1.622v1.973h.714L361.34,583l1.873,1.555H366.2v-2.368h-1.533v-3.1h4.267V571.2l1.92-1.58V567.4h2.6l3.506-2.889h-2.905v-1.48h2.736v-2.463h4.006V558.6h1.962v-2.257h2.559v-1.2l-1.707-1.129,3.074-1.127v-.985s-2.82-2.25.517-3.943H385.85v-1h2.3l1.453-3.713h.005l1.451,3.713h2.3v1h-1.342c3.331,1.693.512,3.943.512,3.943v.985l3.074,1.127-1.707,1.129v1.2h2.559V558.6h1.964v1.968h4v2.463h2.736v1.48h-2.9l3.5,2.889h2.6v2.219l2.213,1.713v-8.651h5.968v-.988h3.417v-5.772h-2.39l5.459-2.252v-2.676l2.565-2.111v-5.066h9.383l5.715-4.718v-3.873l2.43-2.006v-1.511l2.415-1.989V527.9l6.336-3.1v-1.265l4.778-1.411a4.285,4.285,0,0,1-3.613-3.639c-.34-2.841,3.757-4.128,3.757-4.128s-1.853-2.825,1.733-5.819l.027.026c3.58,2.991,1.735,5.821,1.735,5.821s4.1,1.292,3.75,4.128a4.284,4.284,0,0,1-3.611,3.639l4.776,1.405v1.27l6.342,3.1v1.815l2.4,1.984v1.516l2.437,2.006v3.873l5.714,4.713,9.123.047,2.39-2.537,1.707-3.943,2.048,3.289h1.25V531.4l3.868-7.98v-2.628h8.3l3.757-13.61-2.39-1.032s.57-2.814.91-2.723a20.53,20.53,0,0,0,3.3-1.027l1.027-1.505s-.228-1.129.229-1.314,1.362-.1,1.362-.755V496.2c0-.941.57-3.193.91-3.1s1.25,2.443,1.25,2.443l1.478.659,7.055-26.659,7.74.022a21.231,21.231,0,0,1-5.122-2.67c-2.07-1.6-1.362-5.528,4.485-6.267a4.812,4.812,0,0,1,3.65-2.814s-.459-1.926,2.33-2.113l1.367-.329v-.894s-1.027-1.782,1.2-2.341l.238-.835h1.575v-1.729s-2.643-2.181.384-3.835l1.292-3.835.106-.34,1.32,4.154c3.033,1.649.39,3.837.39,3.837v1.724H552.2l.238.834c2.219.564,1.2,2.346,1.2,2.346v.888l1.367.331c2.789.191,2.33,2.111,2.33,2.111,2.559.235,4.336,2.814,4.336,2.814,5.847.739,6.549,4.665,4.48,6.267a21.063,21.063,0,0,1-5.118,2.676l7.741-.026,7.05,26.663,1.478-.659s.916-2.346,1.25-2.443.91,2.161.91,3.1v2.628c0,.655.914.559,1.367.75s.229,1.309.229,1.309l1.027,1.505a20.331,20.331,0,0,0,3.3,1.032c.335-.095.9,2.725.9,2.725l-2.39,1.032,3.757,13.608h8.3V523.4l3.868,7.98v9.294h1.256l2.042-3.287,1.707,3.943,2.394,2.537-3.185,1.218v8.635l2.272.654-1.591.75v14.769h1v-5.071H615.1l2.729-2.25,2.991-2.468v-3.873l2.432-2.006V552.71l2.41-1.99v-1.815l6.336-3.1v-1.265l4.776-1.411a4.287,4.287,0,0,1-3.611-3.639c-.346-2.841,3.75-4.128,3.75-4.128s-1.846-2.831,1.74-5.819l.022-.022c3.59,2.989,1.733,5.814,1.733,5.814s4.1,1.294,3.762,4.134a4.291,4.291,0,0,1-3.613,3.635l4.778,1.409v1.267l6.331,3.1v1.813l2.415,1.986V554.2l2.432,2.009v3.868l2.983,2.463,2.73,2.257h9.383v5.064l2.565,2.117v2.672l5.459,2.255h-2.39v5.772h3.417v.985h4.831l10.852-36.719s-.644-3.841,4.565-4.931c0,0-.772-2.437,2.217-3.915,0,0-1.392-2.257,1.048-3.029l1-3.686.994,3.686c2.443.772,1.054,3.029,1.054,3.029,2.985,1.478,2.219,3.915,2.219,3.915,5.2,1.09,4.563,4.931,4.563,4.931l13.333,45.125h3.537l.5-.411v-5.069h9.385l2.728-2.255,2.991-2.463v-3.873l2.43-2.006v-1.511l2.41-1.99V570.67l6.336-3.1v-1.265l4.778-1.411a4.287,4.287,0,0,1-3.613-3.639c-.34-2.836,3.757-4.128,3.757-4.128s-1.851-2.825,1.735-5.821l.02.027c3.586,3,1.735,5.821,1.735,5.821s4.1,1.292,3.757,4.128a4.287,4.287,0,0,1-3.613,3.639l4.778,1.409V567.6l6.336,3.1v1.815l2.41,1.99v1.511l2.435,2.006v3.872l2.985,2.465,2.728,2.255,9.125.042-.064,5.412Z" transform="translate(-275.455 -441.56)" fill="url(#a)"/></svg>