<svg xmlns="http://www.w3.org/2000/svg" xmlns:xlink="http://www.w3.org/1999/xlink" width="260" height="443" viewBox="0 0 260 443"><defs><clipPath id="a"><rect width="260" height="443" transform="translate(0 100)" fill="#fff" stroke="#707070" stroke-width="1"/></clipPath><clipPath id="b"><path d="M107.3,195.681S95.533,199.335,95.126,217.6s-7.986,21.942-7.986,21.942a63.238,63.238,0,0,0,45.162,0s-5.383-11.547-6.175-19.229C125.087,210.214,122.069,193.321,107.3,195.681Z" transform="translate(-87.14 -195.458)" fill="none"/></clipPath></defs><g transform="translate(0 -100)" clip-path="url(#a)"><g transform="translate(17.827 84.698)"><g transform="translate(-26.827 -15.286)"><g transform="translate(0 16.306)"><g transform="translate(0 135.528)"><path d="M-16.544,106.583a5.224,5.224,0,0,1-3.889,6.453,5.191,5.191,0,0,1-6.311-4.135,5.4,5.4,0,0,1,3.929-6.275A5.353,5.353,0,0,1-16.544,106.583Z" transform="translate(26.827 -102.499)" fill="#f4b300"/></g><g transform="translate(10.109 132.906)"><path d="M-7.31,103.925a5.241,5.241,0,0,1-3.546,6.629,5.232,5.232,0,0,1-6.515-3.756,5.347,5.347,0,0,1,3.579-6.512A5.335,5.335,0,0,1-7.31,103.925Z" transform="translate(17.545 -100.092)" fill="#f4b300"/></g><g transform="translate(20.098 129.799)"><path d="M1.79,100.845a5.254,5.254,0,0,1-3.24,6.785,5.242,5.242,0,0,1-6.677-3.451A5.333,5.333,0,0,1-4.85,97.506,5.321,5.321,0,0,1,1.79,100.845Z" transform="translate(8.373 -97.238)" fill="#f4b300"/></g><g transform="translate(29.938 126.263)"><path d="M10.745,97.363a5.234,5.234,0,1,1-9.759,3.772,5.348,5.348,0,0,1,2.981-6.816A5.341,5.341,0,0,1,10.745,97.363Z" transform="translate(-0.662 -93.992)" fill="#f4b300"/></g><g transform="translate(39.609 122.281)"><path d="M19.545,93.513a5.233,5.233,0,1,1-9.592,4.176,5.354,5.354,0,0,1,2.68-6.933A5.355,5.355,0,0,1,19.545,93.513Z" transform="translate(-9.541 -90.335)" fill="#f4b300"/></g><g transform="translate(49.101 117.89)"><path d="M28.15,89.24a5.234,5.234,0,1,1-9.381,4.632A5.231,5.231,0,1,1,28.15,89.24Z" transform="translate(-18.257 -86.304)" fill="#f4b300"/></g><g transform="translate(58.372 113.052)"><path d="M36.566,84.607a5.234,5.234,0,1,1-9.174,5.029,5.232,5.232,0,1,1,9.174-5.029Z" transform="translate(-26.77 -81.861)" fill="#f4b300"/></g><g transform="translate(67.412 107.8)"><path d="M44.707,79.506a5.233,5.233,0,1,1-8.88,5.53,5.231,5.231,0,1,1,8.88-5.53Z" transform="translate(-35.07 -77.039)" fill="#f4b300"/></g><g transform="translate(76.146 102.056)"><path d="M52.587,74.011a5.231,5.231,0,1,1-7.278-1.319A5.295,5.295,0,0,1,52.587,74.011Z" transform="translate(-43.09 -71.765)" fill="#f4b300"/></g><g transform="translate(84.579 95.87)"><path d="M60.165,68.107A5.234,5.234,0,1,1,51.9,74.517a5.231,5.231,0,1,1,8.268-6.409Z" transform="translate(-50.833 -66.085)" fill="#f4b300"/></g><g transform="translate(92.645 89.239)"><path d="M67.361,61.742a5.147,5.147,0,0,1-.372,7.5,5.171,5.171,0,0,1-7.483-.6,5.412,5.412,0,0,1,.438-7.43A5.062,5.062,0,0,1,63.7,60.012,5.474,5.474,0,0,1,67.361,61.742Z" transform="translate(-58.24 -59.996)" fill="#f4b300"/></g><g transform="translate(100.265 82.097)"><path d="M74.14,54.934a5.311,5.311,0,0,1,1.677,3.741,5.248,5.248,0,0,1-.347,2.043,5.337,5.337,0,0,1-1.209,1.757,5.232,5.232,0,0,1-7.523-.149,5.346,5.346,0,0,1,0-7.426,4.9,4.9,0,0,1,1.716-1.076,5.191,5.191,0,0,1,1.927-.384A5.455,5.455,0,0,1,74.14,54.934Z" transform="translate(-65.236 -53.439)" fill="#f4b300"/></g><g transform="translate(107.43 74.484)"><path d="M80.474,47.715a5.23,5.23,0,1,1-7.36.473A5.29,5.29,0,0,1,80.474,47.715Z" transform="translate(-71.815 -46.449)" fill="#f4b300"/></g><g transform="translate(114.091 66.426)"><path d="M86.319,40.093a5.277,5.277,0,0,1,1.13,7.474,5.03,5.03,0,0,1-3.607,2,5.278,5.278,0,0,1-3.913-1.2,5.487,5.487,0,0,1-1.956-3.555,5.191,5.191,0,0,1,8.346-4.726Z" transform="translate(-77.931 -39.05)" fill="#f4b300"/></g><g transform="translate(120.203 57.94)"><path d="M91.627,32.089a5.223,5.223,0,0,1,1.611,7.355,5.168,5.168,0,0,1-7.419,1.344,5.421,5.421,0,0,1-1.472-7.26A5.355,5.355,0,0,1,91.627,32.089Z" transform="translate(-83.543 -31.258)" fill="#f4b300"/></g><g transform="translate(125.664 49.05)"><path d="M96.366,23.73a5.18,5.18,0,0,1,2.094,7.205,5.248,5.248,0,0,1-3.213,2.539,5.418,5.418,0,0,1-6.471-3.892,5.089,5.089,0,0,1,.4-3.92A5.407,5.407,0,0,1,96.366,23.73Z" transform="translate(-88.557 -23.095)" fill="#f4b300"/></g><g transform="translate(130.466 39.789)"><path d="M100.488,15.051a5.232,5.232,0,1,1-4.515,9.437,5.464,5.464,0,0,1-2.54-7.007A5.448,5.448,0,0,1,100.488,15.051Z" transform="translate(-92.966 -14.592)" fill="#f4b300"/></g><g transform="translate(134.606 30.196)"><path d="M103.96,6.092a5.125,5.125,0,0,1,3.085,6.832,5.153,5.153,0,0,1-6.9,2.911,5.437,5.437,0,0,1-3.044-6.818A5.468,5.468,0,0,1,103.96,6.092Z" transform="translate(-96.768 -5.783)" fill="#f4b300"/></g><g transform="translate(138.071 20.329)"><path d="M106.813-3.082a5.122,5.122,0,0,1,3.552,6.6A5.169,5.169,0,0,1,103.677,6.9a5.42,5.42,0,0,1-3.5-6.587A5.475,5.475,0,0,1,106.813-3.082Z" transform="translate(-99.949 3.277)" fill="#f4b300"/></g><g transform="translate(140.859 10.247)"><path d="M109.053-12.424a5.123,5.123,0,0,1,3.975,6.346,5.17,5.17,0,0,1-6.443,3.821,5.413,5.413,0,0,1-3.936-6.336A5.47,5.47,0,0,1,109.053-12.424Z" transform="translate(-102.509 12.534)" fill="#f4b300"/></g><g transform="translate(142.979)"><path d="M110.7-21.89a5.143,5.143,0,0,1,4.35,6.073,5.161,5.161,0,0,1-6.17,4.231,5.424,5.424,0,0,1-4.35-6.073A5.446,5.446,0,0,1,110.7-21.89Z" transform="translate(-104.456 21.943)" fill="#f4b300"/></g></g><g transform="translate(132.17)"><path d="M102.417-27.111a5.229,5.229,0,0,1-7.254-2.066,5.2,5.2,0,0,1,2.323-7.19,5.392,5.392,0,0,1,7.093,2.151A5.363,5.363,0,0,1,102.417-27.111Z" transform="translate(-94.531 36.915)" fill="#f4b300"/><g transform="translate(5.231 9.072)"><path d="M107.471-18.91a5.234,5.234,0,0,1-7.357-1.643,5.234,5.234,0,0,1,1.875-7.3,5.359,5.359,0,0,1,7.232,1.721A5.358,5.358,0,0,1,107.471-18.91Z" transform="translate(-99.334 28.585)" fill="#f4b300"/></g><g transform="translate(10.965 17.854)"><path d="M112.99-11.016a5.226,5.226,0,0,1-7.445-1.213,5.228,5.228,0,0,1,1.456-7.4,5.366,5.366,0,0,1,7.315,1.3A5.368,5.368,0,0,1,112.99-11.016Z" transform="translate(-104.599 20.522)" fill="#f4b300"/></g><g transform="translate(17.219 26.273)"><path d="M119.013-3.5a5.215,5.215,0,0,1-7.519-.72,5.219,5.219,0,0,1,.985-7.484,5.375,5.375,0,0,1,7.373.835A5.38,5.38,0,0,1,119.013-3.5Z" transform="translate(-110.341 12.792)" fill="#f4b300"/></g><g transform="translate(24.051 34.228)"><path d="M125.609,3.517a5.2,5.2,0,0,1-7.568-.118,5.2,5.2,0,0,1,.414-7.551,5.4,5.4,0,0,1,7.4.272A5.407,5.407,0,0,1,125.609,3.517Z" transform="translate(-116.614 5.487)" fill="#f4b300"/></g><g transform="translate(31.543 41.558)"><path d="M132.861,9.85a5.17,5.17,0,0,1-7.564.644,5.181,5.181,0,0,1-.3-7.577,5.425,5.425,0,0,1,7.373-.427A5.442,5.442,0,0,1,132.861,9.85Z" transform="translate(-123.493 -1.243)" fill="#f4b300"/></g><g transform="translate(39.794 48.005)"><path d="M140.859,15.207a5.008,5.008,0,0,1-3.275,2.449,5.445,5.445,0,0,1-2.118.042,5.688,5.688,0,0,1-2.053-.863,5.322,5.322,0,0,1-2.287-3.557,5.141,5.141,0,0,1,1.061-3.957,5.633,5.633,0,0,1,3.487-2.073,5.04,5.04,0,0,1,3.746.756,4.6,4.6,0,0,1,1.346,1.4,5.078,5.078,0,0,1,.724,1.786A5.805,5.805,0,0,1,140.859,15.207Z" transform="translate(-131.07 -7.163)" fill="#f4b300"/></g><g transform="translate(48.895 53.172)"><path d="M149.638,19.143a4.893,4.893,0,0,1-2.774,3.006,5.325,5.325,0,0,1-2.108.411,6.015,6.015,0,0,1-2.214-.517,5.347,5.347,0,0,1-2.878-3.189,5.042,5.042,0,0,1,.451-4.069,5.769,5.769,0,0,1,3.138-2.576,5,5,0,0,1,3.752.131,4.278,4.278,0,0,1,1.523,1.13,5.189,5.189,0,0,1,1,1.613A5.974,5.974,0,0,1,149.638,19.143Z" transform="translate(-139.426 -11.907)" fill="#f4b300"/></g><g transform="translate(58.825 56.497)"><path d="M159.052,21.1a4.815,4.815,0,0,1-2.013,3.562,5.259,5.259,0,0,1-1.991.872,6.194,6.194,0,0,1-2.32-.03,5.379,5.379,0,0,1-3.546-2.554,4.942,4.942,0,0,1-.356-4.08,5.921,5.921,0,0,1,2.57-3.14,4.958,4.958,0,0,1,3.622-.658,4.085,4.085,0,0,1,1.686.761,5.308,5.308,0,0,1,1.31,1.34A6.108,6.108,0,0,1,159.052,21.1Z" transform="translate(-148.544 -14.96)" fill="#f4b300"/></g><g transform="translate(69.309 57.443)"><path d="M168.65,20.649a4.831,4.831,0,0,1-1.041,3.949,5.526,5.526,0,0,1-8.09.3,4.865,4.865,0,0,1-1.325-3.875,6.038,6.038,0,0,1,1.741-3.665,4.735,4.735,0,0,1,6.71-.25A6.1,6.1,0,0,1,168.65,20.649Z" transform="translate(-158.17 -15.829)" fill="#f4b300"/></g><g transform="translate(79.712 55.758)"><path d="M177.831,17.806a5.035,5.035,0,0,1-.053,4.119,5.489,5.489,0,0,1-3.358,2.786,6.2,6.2,0,0,1-2.309.2,5.119,5.119,0,0,1-2.049-.725,4.821,4.821,0,0,1-2.263-3.4,6.088,6.088,0,0,1,.748-4,5.486,5.486,0,0,1,1.21-1.431,4.1,4.1,0,0,1,1.628-.883,4.844,4.844,0,0,1,3.667.411A5.8,5.8,0,0,1,177.831,17.806Z" transform="translate(-167.723 -14.282)" fill="#f4b300"/></g><g transform="translate(89.371 51.732)"><path d="M186.237,13.126a5.135,5.135,0,0,1-1.911,7.413,5.508,5.508,0,0,1-4.291.426,5.029,5.029,0,0,1-2.994-2.829,5.794,5.794,0,0,1-.166-4.03,4.835,4.835,0,0,1,2.321-2.934A5.5,5.5,0,0,1,186.237,13.126Z" transform="translate(-176.591 -10.585)" fill="#f4b300"/></g><g transform="translate(98.071 45.956)"><path d="M193.785,7.148a5.19,5.19,0,0,1,1.324,3.887,5.4,5.4,0,0,1-6.14,4.8,5.067,5.067,0,0,1-3.444-2.233,5.736,5.736,0,0,1-.894-3.949,4.927,4.927,0,0,1,5.547-4.333A5.576,5.576,0,0,1,193.785,7.148Z" transform="translate(-184.58 -5.282)" fill="#f4b300"/></g><g transform="translate(105.849 38.971)"><path d="M200.573.314a5.193,5.193,0,0,1,.162,7.571,5.172,5.172,0,0,1-7.587-.167,5.438,5.438,0,0,1,.029-7.38A5.412,5.412,0,0,1,200.573.314Z" transform="translate(-191.721 1.132)" fill="#f4b300"/></g><g transform="translate(112.861 31.202)"><path d="M206.7-7.116A5.241,5.241,0,0,1,207.549.4,5.224,5.224,0,0,1,200,.95a5.37,5.37,0,0,1-.674-7.369A5.352,5.352,0,0,1,206.7-7.116Z" transform="translate(-198.159 8.265)" fill="#f4b300"/></g><g transform="translate(119.227 22.883)"><path d="M212.29-14.963a5.254,5.254,0,0,1,1.356,7.417,5.246,5.246,0,0,1-7.464,1.111,5.347,5.347,0,0,1-1.225-7.322A5.337,5.337,0,0,1,212.29-14.963Z" transform="translate(-204.005 15.904)" fill="#f4b300"/></g></g></g><g transform="translate(64.354 -44.076)"><line y2="457.723" transform="translate(14.269)" fill="none" stroke="#f4b300" stroke-miterlimit="10" stroke-width="2"/><path d="M71.039,335.842S39.918,396.464,70,396.464C99.547,396.464,71.039,335.842,71.039,335.842Z" transform="translate(-56.895 98.914)" fill="#f49b00"/><ellipse cx="7.32" cy="13.042" rx="7.32" ry="13.042" transform="translate(5.626 462.704)" fill="#ca006c"/><path d="M69.092,383.776c-1.3,0-3.8-3.707-3.8-9.519s2.492-9.519,3.8-9.519,3.8,3.706,3.8,9.519S70.4,383.776,69.092,383.776Z" transform="translate(-56.147 101.489)" fill="#ca006c" stroke="#ca006c" stroke-miterlimit="10" stroke-width="1"/><rect width="12.512" height="7.746" rx="2.762" transform="translate(7.586 433.433)" fill="#f4b300"/></g><g transform="translate(11.985 -279.698)"><line y2="457.723" transform="translate(14.27)" fill="none" stroke="#f4b300" stroke-miterlimit="10" stroke-width="2"/><path d="M22.954,119.494s-31.121,60.622-1.036,60.622C51.463,180.116,22.954,119.494,22.954,119.494Z" transform="translate(-8.81 315.262)" fill="#f49b00"/><ellipse cx="7.32" cy="13.042" rx="7.32" ry="13.042" transform="translate(5.626 462.704)" fill="#ca006c"/><path d="M21.009,167.429c-1.3,0-3.8-3.708-3.8-9.52s2.492-9.519,3.8-9.519,3.8,3.706,3.8,9.519S22.312,167.429,21.009,167.429Z" transform="translate(-8.062 317.836)" fill="#ca006c" stroke="#ca006c" stroke-miterlimit="10" stroke-width="1"/><rect width="12.512" height="7.746" rx="2.762" transform="translate(7.587 433.433)" fill="#f4b300"/></g><g transform="translate(97.293 -28.466)"><g transform="translate(0 266.255)"><g transform="translate(0 0)" clip-path="url(#b)"><path d="M107.3,195.791s-11.771,3.653-12.177,21.917-7.986,21.943-7.986,21.943a63.245,63.245,0,0,0,45.162,0s-5.383-11.548-6.175-19.23C125.087,210.323,122.069,193.43,107.3,195.791Z" transform="translate(-87.14 -195.448)" fill="#f4b300"/><path d="M90.925,204.645A82.662,82.662,0,0,0,130.99,203.3" transform="translate(-86.803 -194.759)" fill="none" stroke="#f47e00" stroke-miterlimit="10" stroke-width="1"/><path d="M88.687,229.687a75.2,75.2,0,0,0,48.913-4.1" transform="translate(-87.002 -192.773)" fill="none" stroke="#f47e00" stroke-miterlimit="10" stroke-width="1"/><path d="M91.7,229.982a7.087,7.087,0,0,1,2.644-2.932,4.9,4.9,0,0,1,3.851-.538,6.463,6.463,0,0,1,1.459.7,9.092,9.092,0,0,1,3.929,4.433" transform="translate(-86.734 -192.708)" fill="none" stroke="#f47e00" stroke-miterlimit="10" stroke-width="1"/><path d="M102.182,231.3c1.615-2.159,3.609-4.259,6.227-4.9a6.872,6.872,0,0,1,8.181,4.571" transform="translate(-85.8 -192.719)" fill="none" stroke="#f47e00" stroke-miterlimit="10" stroke-width="1"/><path d="M115.317,230.459a10.142,10.142,0,0,1,3.508-4.13,5.44,5.44,0,0,1,7.546,2.289" transform="translate(-84.63 -192.77)" fill="none" stroke="#f47e00" stroke-miterlimit="10" stroke-width="1"/></g></g><line y1="267.92" transform="translate(23.046)" fill="#181540" stroke="#f4b300" stroke-miterlimit="10" stroke-width="1"/><path d="M111.38,194.083a3.216,3.216,0,1,1-3.215-3.216A3.215,3.215,0,0,1,111.38,194.083Z" transform="translate(-85.553 70.388)" fill="#f4b300"/><path d="M111.38,127.2a3.216,3.216,0,1,1-3.215-3.215A3.216,3.216,0,0,1,111.38,127.2Z" transform="translate(-85.553 64.43)" fill="#f4b300"/></g><g transform="translate(104.105 -12.864)"><path d="M106.179,56.51s-8.617-2.224-7.894,1.393,5.425,4.7,5.425,4.7-3.616,4.34,1.085,5.786,6.149-3.616,6.149-3.616,4.7,3.977,7.956,1.808-3.978-6.148-3.978-6.148,7.743.516,6.872-2.171c-1.186-3.655-6.872-2.531-6.872-2.531s2.087-.384-1.085-2.894C109.572,49.465,106.179,56.51,106.179,56.51Z" transform="translate(-92.963 42.408)" fill="#f49b00"/><path d="M104.422,44.712s-10.955-2.828-10.036,1.77,6.9,5.978,6.9,5.978-4.6,5.517,1.38,7.357,7.816-4.6,7.816-4.6,5.978,5.058,10.115,2.3-1.512-8-1.512-8,6.86-.685,5.526-4.02c-1.105-2.764-6.238-3.524-6.238-3.524s-.182,1.259-4.213-1.931C108.735,35.754,104.422,44.712,104.422,44.712Z" transform="translate(-93.312 41.246)" fill="#ca006c"/><path d="M104.422,38.01s-10.955-2.828-10.036,1.77,6.9,5.978,6.9,5.978-4.6,5.517,1.38,7.357,7.816-4.6,7.816-4.6,5.978,5.058,10.115,2.3S115.538,43,115.538,43s9.844.657,8.737-2.759c-1.507-4.648-8.737-3.219-8.737-3.219s2.652-.488-1.379-3.678C108.735,29.051,104.422,38.01,104.422,38.01Z" transform="translate(-93.312 40.649)" fill="#f49b00"/><path d="M104.422,26.435S93.467,23.607,94.386,28.2s6.9,5.978,6.9,5.978-4.6,5.517,1.38,7.357,7.816-4.6,7.816-4.6S116.458,42,120.6,39.24s-1.512-8-1.512-8,6.86-.685,5.526-4.02c-1.105-2.764-6.238-3.524-6.238-3.524s-.182,1.259-4.213-1.931C108.735,17.477,104.422,26.435,104.422,26.435Z" transform="translate(-93.312 39.618)" fill="#ca006c"/><path d="M124.572,17.62c-1.507-4.647-8.737-3.218-8.737-3.218s2.652-.489-1.38-3.679c-5.423-4.291-9.736,4.667-9.736,4.667s-10.954-2.827-10.035,1.771a6.578,6.578,0,0,0,2.552,3.883c-1.24.93-2.1,2.161-1.435,3.688a3.689,3.689,0,0,0,4.111,2.184c-.1,1.389.539,2.809,3.048,3.581,5.978,1.838,7.817-4.6,7.817-4.6s5.977,5.058,10.115,2.3c1.568-1.047,1.22-2.422.184-3.728a2.372,2.372,0,0,0,2.233-1.613,3.042,3.042,0,0,0-.465-3.024C124.108,19.421,124.936,18.743,124.572,17.62Z" transform="translate(-93.285 38.634)" fill="#f49b00"/><path d="M123.367,8.019c-1.378-4.367-7.982-3.024-7.982-3.024s2.423-.46-1.26-3.457c-4.955-4.033-8.9,4.386-8.9,4.386S95.22,3.266,96.061,7.587a6.192,6.192,0,0,0,2.332,3.648c-1.134.873-1.917,2.03-1.312,3.465a3.35,3.35,0,0,0,3.756,2.052c-.087,1.3.493,2.639,2.786,3.364,5.461,1.728,7.141-4.32,7.141-4.32s5.462,4.753,9.242,2.16c1.433-.982,1.114-2.275.168-3.5a2.171,2.171,0,0,0,2.04-1.516,2.921,2.921,0,0,0-.425-2.841C122.943,9.71,123.7,9.074,123.367,8.019Z" transform="translate(-93.162 37.822)" fill="#ca006c"/><path d="M127.34-4.5c-1.709-5.269-9.9-3.65-9.9-3.65s3.007-.553-1.564-4.17c-6.148-4.865-11.038,5.291-11.038,5.291S92.415-10.237,93.457-5.025a7.462,7.462,0,0,0,2.894,4.4c-1.407,1.054-2.379,2.449-1.628,4.18a4.182,4.182,0,0,0,4.661,2.475c-.109,1.574,1.909,4.589,4.827,5.181,5.209,1.056,7.491-6.334,7.491-6.334s6.776,5.734,11.468,2.606c1.778-1.185,1.383-2.745.208-4.226a2.688,2.688,0,0,0,2.532-1.829A3.448,3.448,0,0,0,125.383-2C126.815-2.464,127.752-3.231,127.34-4.5Z" transform="translate(-93.395 36.567)" fill="#f49b00"/><path d="M127-13.63c-1.688-5.354-9.783-3.707-9.783-3.707s2.97-.563-1.545-4.238c-6.073-4.942-10.9,5.376-10.9,5.376S92.5-19.456,93.533-14.16a7.593,7.593,0,0,0,2.858,4.472C95-8.616,94.042-7.2,94.782-5.441a4.108,4.108,0,0,0,4.6,2.516c-.107,1.6,2.993,6.331,5.8,7.221,6.694,2.118,6.366-8.394,6.366-8.394S115.2,6.417,119.833,3.24c1.756-1.2,4.416-7.478,3.256-8.982a2.663,2.663,0,0,0,2.5-1.858,3.583,3.583,0,0,0-.522-3.484C126.483-11.558,127.41-12.338,127-13.63Z" transform="translate(-93.388 35.741)" fill="#ca006c"/><path d="M127.34-25.554c-1.709-5.269-9.9-3.648-9.9-3.648s3.007-.554-1.564-4.17c-6.148-4.865-11.038,5.29-11.038,5.29s-12.419-3.205-11.377,2.007a7.462,7.462,0,0,0,2.894,4.4c-1.407,1.054-2.379,2.45-1.628,4.181a4.183,4.183,0,0,0,4.661,2.475c-.109,1.574.611,3.183,3.456,4.059,6.777,2.085,8.862-5.213,8.862-5.213s6.776,5.734,11.468,2.606c1.778-1.185,1.383-2.745.208-4.225a2.691,2.691,0,0,0,2.532-1.83,3.448,3.448,0,0,0-.527-3.428C126.815-23.514,127.752-24.28,127.34-25.554Z" transform="translate(-93.395 34.691)" fill="#f49b00"/></g></g></g></svg>