<svg xmlns="http://www.w3.org/2000/svg" xmlns:xlink="http://www.w3.org/1999/xlink" width="260" height="443" viewBox="0 0 260 443"><defs><clipPath id="a"><rect width="260" height="443" fill="#fff" stroke="#707070" stroke-width="1"/></clipPath><clipPath id="b"><path d="M112.139,195.681s11.771,3.654,12.177,21.918,7.986,21.942,7.986,21.942a63.238,63.238,0,0,1-45.162,0s5.383-11.547,6.175-19.229C94.355,210.214,97.373,193.321,112.139,195.681Z" transform="translate(-87.14 -195.458)" fill="none"/></clipPath></defs><g clip-path="url(#a)"><g transform="translate(6.991 -295)"><g transform="translate(0 264.412)"><g transform="translate(108.352 16.306)"><g transform="translate(143.196 135.528)"><path d="M-26.649,106.583a5.224,5.224,0,0,0,3.889,6.453,5.191,5.191,0,0,0,6.311-4.135,5.4,5.4,0,0,0-3.929-6.275A5.353,5.353,0,0,0-26.649,106.583Z" transform="translate(26.827 -102.499)" fill="#f4b300"/></g><g transform="translate(133.067 132.906)"><path d="M-17.3,103.925a5.241,5.241,0,0,0,3.546,6.629A5.232,5.232,0,0,0-7.238,106.8a5.347,5.347,0,0,0-3.579-6.512A5.335,5.335,0,0,0-17.3,103.925Z" transform="translate(17.545 -100.092)" fill="#f4b300"/></g><g transform="translate(123.074 129.799)"><path d="M-8.052,100.845a5.254,5.254,0,0,0,3.24,6.785,5.242,5.242,0,0,0,6.677-3.451,5.333,5.333,0,0,0-3.277-6.673A5.321,5.321,0,0,0-8.052,100.845Z" transform="translate(8.373 -97.238)" fill="#f4b300"/></g><g transform="translate(113.231 126.263)"><path d="M1.067,97.363a5.234,5.234,0,1,0,9.759,3.772,5.348,5.348,0,0,0-2.981-6.816A5.341,5.341,0,0,0,1.067,97.363Z" transform="translate(-0.662 -93.992)" fill="#f4b300"/></g><g transform="translate(103.54 122.281)"><path d="M10.046,93.513a5.233,5.233,0,1,0,9.592,4.176,5.354,5.354,0,0,0-2.68-6.933A5.355,5.355,0,0,0,10.046,93.513Z" transform="translate(-9.541 -90.335)" fill="#f4b300"/></g><g transform="translate(94.054 117.89)"><path d="M18.866,89.24a5.234,5.234,0,1,0,9.381,4.632,5.231,5.231,0,1,0-9.381-4.632Z" transform="translate(-18.257 -86.304)" fill="#f4b300"/></g><g transform="translate(84.761 113.052)"><path d="M27.5,84.607a5.234,5.234,0,1,0,9.174,5.029A5.232,5.232,0,1,0,27.5,84.607Z" transform="translate(-26.77 -81.861)" fill="#f4b300"/></g><g transform="translate(75.728 107.8)"><path d="M35.951,79.506a5.233,5.233,0,1,0,8.88,5.53,5.231,5.231,0,1,0-8.88-5.53Z" transform="translate(-35.07 -77.039)" fill="#f4b300"/></g><g transform="translate(66.978 102.056)"><path d="M44.126,74.011A5.231,5.231,0,1,0,51.4,72.692,5.295,5.295,0,0,0,44.126,74.011Z" transform="translate(-43.09 -71.765)" fill="#f4b300"/></g><g transform="translate(58.535 95.87)"><path d="M52.044,68.107a5.234,5.234,0,1,0,8.268,6.409,5.231,5.231,0,1,0-8.268-6.409Z" transform="translate(-50.833 -66.085)" fill="#f4b300"/></g><g transform="translate(50.445 89.239)"><path d="M59.685,61.742a5.147,5.147,0,0,0,.372,7.5,5.171,5.171,0,0,0,7.483-.6,5.412,5.412,0,0,0-.438-7.43,5.062,5.062,0,0,0-3.755-1.208A5.474,5.474,0,0,0,59.685,61.742Z" transform="translate(-58.24 -59.996)" fill="#f4b300"/></g><g transform="translate(42.809 82.097)"><path d="M66.915,54.934a5.311,5.311,0,0,0-1.677,3.741,5.248,5.248,0,0,0,.347,2.043,5.337,5.337,0,0,0,1.209,1.757,5.232,5.232,0,0,0,7.523-.149,5.346,5.346,0,0,0,0-7.426,4.9,4.9,0,0,0-1.716-1.076,5.191,5.191,0,0,0-1.927-.384A5.455,5.455,0,0,0,66.915,54.934Z" transform="translate(-65.236 -53.439)" fill="#f4b300"/></g><g transform="translate(35.638 74.484)"><path d="M73.745,47.715a5.23,5.23,0,1,0,7.36.473A5.29,5.29,0,0,0,73.745,47.715Z" transform="translate(-71.815 -46.449)" fill="#f4b300"/></g><g transform="translate(28.981 66.426)"><path d="M80.128,40.093A5.277,5.277,0,0,0,79,47.568a5.03,5.03,0,0,0,3.607,2,5.278,5.278,0,0,0,3.913-1.2,5.487,5.487,0,0,0,1.956-3.555,5.191,5.191,0,0,0-8.346-4.726Z" transform="translate(-77.931 -39.05)" fill="#f4b300"/></g><g transform="translate(22.885 57.94)"><path d="M86.028,32.089a5.223,5.223,0,0,0-1.611,7.355,5.168,5.168,0,0,0,7.419,1.344,5.421,5.421,0,0,0,1.472-7.26A5.355,5.355,0,0,0,86.028,32.089Z" transform="translate(-83.543 -31.258)" fill="#f4b300"/></g><g transform="translate(17.396 49.05)"><path d="M91.346,23.73a5.18,5.18,0,0,0-2.094,7.205,5.248,5.248,0,0,0,3.213,2.539,5.418,5.418,0,0,0,6.471-3.892,5.089,5.089,0,0,0-.4-3.92A5.407,5.407,0,0,0,91.346,23.73Z" transform="translate(-88.557 -23.095)" fill="#f4b300"/></g><g transform="translate(12.556 39.789)"><path d="M96.08,15.051a5.232,5.232,0,1,0,4.515,9.437,5.464,5.464,0,0,0,2.54-7.007A5.448,5.448,0,0,0,96.08,15.051Z" transform="translate(-92.966 -14.592)" fill="#f4b300"/></g><g transform="translate(8.387 30.196)"><path d="M100.24,6.092a5.125,5.125,0,0,0-3.085,6.832,5.153,5.153,0,0,0,6.9,2.911,5.437,5.437,0,0,0,3.044-6.818A5.468,5.468,0,0,0,100.24,6.092Z" transform="translate(-96.768 -5.783)" fill="#f4b300"/></g><g transform="translate(4.905 20.329)"><path d="M103.766-3.082a5.122,5.122,0,0,0-3.552,6.6A5.169,5.169,0,0,0,106.9,6.9,5.42,5.42,0,0,0,110.4.313,5.475,5.475,0,0,0,103.766-3.082Z" transform="translate(-99.949 3.277)" fill="#f4b300"/></g><g transform="translate(2.118 10.247)"><path d="M106.646-12.424a5.123,5.123,0,0,0-3.975,6.346,5.17,5.17,0,0,0,6.443,3.821,5.413,5.413,0,0,0,3.936-6.336A5.47,5.47,0,0,0,106.646-12.424Z" transform="translate(-102.509 12.534)" fill="#f4b300"/></g><g transform="translate(0)"><path d="M108.891-21.89a5.143,5.143,0,0,0-4.35,6.073,5.161,5.161,0,0,0,6.17,4.231,5.424,5.424,0,0,0,4.35-6.073A5.446,5.446,0,0,0,108.891-21.89Z" transform="translate(-104.456 21.943)" fill="#f4b300"/></g></g><g transform="translate(119.197)"><path d="M97.287-27.111a5.229,5.229,0,0,0,7.254-2.066,5.2,5.2,0,0,0-2.323-7.19,5.392,5.392,0,0,0-7.093,2.151A5.363,5.363,0,0,0,97.287-27.111Z" transform="translate(-94.531 36.915)" fill="#f4b300"/></g><g transform="translate(113.977 9.072)"><path d="M101.828-18.91a5.234,5.234,0,0,0,7.357-1.643,5.234,5.234,0,0,0-1.875-7.3,5.359,5.359,0,0,0-7.232,1.721A5.358,5.358,0,0,0,101.828-18.91Z" transform="translate(-99.334 28.585)" fill="#f4b300"/></g><g transform="translate(108.256 17.854)"><path d="M106.826-11.016a5.226,5.226,0,0,0,7.445-1.213,5.228,5.228,0,0,0-1.456-7.4,5.366,5.366,0,0,0-7.315,1.3A5.368,5.368,0,0,0,106.826-11.016Z" transform="translate(-104.599 20.522)" fill="#f4b300"/></g><g transform="translate(102.015 26.273)"><path d="M112.274-3.5a5.215,5.215,0,0,0,7.519-.72,5.219,5.219,0,0,0-.985-7.484,5.375,5.375,0,0,0-7.373.835A5.38,5.38,0,0,0,112.274-3.5Z" transform="translate(-110.341 12.792)" fill="#f4b300"/></g><g transform="translate(95.201 34.228)"><path d="M118.206,3.517a5.2,5.2,0,0,0,7.568-.118,5.2,5.2,0,0,0-.414-7.551,5.4,5.4,0,0,0-7.4.272A5.407,5.407,0,0,0,118.206,3.517Z" transform="translate(-116.614 5.487)" fill="#f4b300"/></g><g transform="translate(87.731 41.558)"><path d="M124.69,9.85a5.17,5.17,0,0,0,7.564.644,5.181,5.181,0,0,0,.3-7.577,5.425,5.425,0,0,0-7.373-.427A5.442,5.442,0,0,0,124.69,9.85Z" transform="translate(-123.493 -1.243)" fill="#f4b300"/></g><g transform="translate(79.51 48.005)"><path d="M131.816,15.207a5.008,5.008,0,0,0,3.275,2.449,5.445,5.445,0,0,0,2.118.042,5.688,5.688,0,0,0,2.053-.863,5.322,5.322,0,0,0,2.287-3.557,5.141,5.141,0,0,0-1.061-3.957A5.633,5.633,0,0,0,137,7.25a5.04,5.04,0,0,0-3.746.756,4.6,4.6,0,0,0-1.346,1.4,5.078,5.078,0,0,0-.724,1.786A5.805,5.805,0,0,0,131.816,15.207Z" transform="translate(-131.07 -7.163)" fill="#f4b300"/></g><g transform="translate(70.428 53.172)"><path d="M139.73,19.143a4.893,4.893,0,0,0,2.774,3.006,5.325,5.325,0,0,0,2.108.411,6.015,6.015,0,0,0,2.214-.517,5.347,5.347,0,0,0,2.878-3.189,5.042,5.042,0,0,0-.451-4.069,5.769,5.769,0,0,0-3.138-2.576,5,5,0,0,0-3.752.131,4.278,4.278,0,0,0-1.523,1.13,5.189,5.189,0,0,0-1,1.613A5.974,5.974,0,0,0,139.73,19.143Z" transform="translate(-139.426 -11.907)" fill="#f4b300"/></g><g transform="translate(60.483 56.497)"><path d="M148.567,21.1a4.815,4.815,0,0,0,2.013,3.562,5.259,5.259,0,0,0,1.991.872,6.194,6.194,0,0,0,2.32-.03,5.379,5.379,0,0,0,3.546-2.554,4.942,4.942,0,0,0,.356-4.08,5.921,5.921,0,0,0-2.57-3.14,4.958,4.958,0,0,0-3.622-.658,4.085,4.085,0,0,0-1.686.761,5.308,5.308,0,0,0-1.31,1.34A6.108,6.108,0,0,0,148.567,21.1Z" transform="translate(-148.544 -14.96)" fill="#f4b300"/></g><g transform="translate(49.977 57.443)"><path d="M158.243,20.649a4.831,4.831,0,0,0,1.041,3.949,5.526,5.526,0,0,0,8.09.3,4.865,4.865,0,0,0,1.325-3.875,6.038,6.038,0,0,0-1.741-3.665,4.735,4.735,0,0,0-6.71-.25A6.1,6.1,0,0,0,158.243,20.649Z" transform="translate(-158.17 -15.829)" fill="#f4b300"/></g><g transform="translate(39.604 55.758)"><path d="M168.137,17.806a5.035,5.035,0,0,0,.053,4.119,5.489,5.489,0,0,0,3.358,2.786,6.2,6.2,0,0,0,2.309.2,5.119,5.119,0,0,0,2.049-.725,4.821,4.821,0,0,0,2.263-3.4,6.088,6.088,0,0,0-.748-4,5.486,5.486,0,0,0-1.21-1.431,4.1,4.1,0,0,0-1.628-.883,4.844,4.844,0,0,0-3.667.411A5.8,5.8,0,0,0,168.137,17.806Z" transform="translate(-167.723 -14.282)" fill="#f4b300"/></g><g transform="translate(29.947 51.732)"><path d="M177.466,13.126a5.135,5.135,0,0,0,1.911,7.413,5.508,5.508,0,0,0,4.291.426,5.029,5.029,0,0,0,2.994-2.829,5.794,5.794,0,0,0,.166-4.03,4.835,4.835,0,0,0-2.321-2.934A5.5,5.5,0,0,0,177.466,13.126Z" transform="translate(-176.591 -10.585)" fill="#f4b300"/></g><g transform="translate(21.223 45.956)"><path d="M185.92,7.148a5.19,5.19,0,0,0-1.324,3.887,5.4,5.4,0,0,0,6.14,4.8,5.067,5.067,0,0,0,3.444-2.233,5.736,5.736,0,0,0,.894-3.949,4.927,4.927,0,0,0-5.547-4.333A5.576,5.576,0,0,0,185.92,7.148Z" transform="translate(-184.58 -5.282)" fill="#f4b300"/></g><g transform="translate(13.417 38.971)"><path d="M193.442.314a5.193,5.193,0,0,0-.162,7.571,5.172,5.172,0,0,0,7.587-.167,5.438,5.438,0,0,0-.029-7.38A5.412,5.412,0,0,0,193.442.314Z" transform="translate(-191.721 1.132)" fill="#f4b300"/></g><g transform="translate(6.384 31.202)"><path d="M200.211-7.116A5.241,5.241,0,0,0,199.365.4a5.224,5.224,0,0,0,7.55.554,5.37,5.37,0,0,0,.674-7.369A5.352,5.352,0,0,0,200.211-7.116Z" transform="translate(-198.159 8.265)" fill="#f4b300"/></g><g transform="translate(0 22.883)"><path d="M206.333-14.963a5.254,5.254,0,0,0-1.356,7.417,5.246,5.246,0,0,0,7.464,1.111,5.347,5.347,0,0,0,1.225-7.322A5.337,5.337,0,0,0,206.333-14.963Z" transform="translate(-204.005 15.904)" fill="#f4b300"/></g></g><g transform="translate(144.315 235.622)"><line y2="457.723" transform="translate(12.243)" fill="none" stroke="#f4b300" stroke-miterlimit="10" stroke-width="2"/><path d="M69.264,335.842s31.121,60.622,1.036,60.622C40.756,396.464,69.264,335.842,69.264,335.842Z" transform="translate(-56.895 98.914)" fill="#f49b00"/><ellipse cx="7.32" cy="13.042" rx="7.32" ry="13.042" transform="translate(6.247 462.704)" fill="#ca006c"/><path d="M69.094,383.776c1.3,0,3.8-3.707,3.8-9.519s-2.492-9.519-3.8-9.519-3.8,3.706-3.8,9.519S67.789,383.776,69.094,383.776Z" transform="translate(-55.527 101.489)" fill="#ca006c" stroke="#ca006c" stroke-miterlimit="10" stroke-width="1"/><rect width="12.512" height="7.746" rx="2.762" transform="translate(6.414 433.433)" fill="#f4b300"/></g><g transform="translate(196.683)"><line y2="457.723" transform="translate(12.243)" fill="none" stroke="#f4b300" stroke-miterlimit="10" stroke-width="2"/><path d="M21.18,119.494s31.121,60.622,1.036,60.622C-7.329,180.116,21.18,119.494,21.18,119.494Z" transform="translate(-8.81 315.262)" fill="#f49b00"/><ellipse cx="7.32" cy="13.042" rx="7.32" ry="13.042" transform="translate(6.247 462.704)" fill="#ca006c"/><path d="M21.009,167.429c1.3,0,3.8-3.708,3.8-9.52s-2.492-9.519-3.8-9.519-3.8,3.706-3.8,9.519S19.7,167.429,21.009,167.429Z" transform="translate(-7.442 317.836)" fill="#ca006c" stroke="#ca006c" stroke-miterlimit="10" stroke-width="1"/><rect width="12.512" height="7.746" rx="2.762" transform="translate(6.414 433.433)" fill="#f4b300"/></g><g transform="translate(92.726 251.232)"><g transform="translate(0 266.255)"><g transform="translate(0 0)" clip-path="url(#b)"><path d="M112.139,195.791s11.771,3.653,12.177,21.917,7.986,21.943,7.986,21.943a63.245,63.245,0,0,1-45.162,0s5.383-11.548,6.175-19.23C94.355,210.323,97.373,193.43,112.139,195.791Z" transform="translate(-87.14 -195.448)" fill="#f4b300"/><path d="M130.99,204.645A82.662,82.662,0,0,1,90.925,203.3" transform="translate(-89.95 -194.759)" fill="none" stroke="#f47e00" stroke-miterlimit="10" stroke-width="1"/><path d="M137.6,229.687a75.2,75.2,0,0,1-48.913-4.1" transform="translate(-94.123 -192.773)" fill="none" stroke="#f47e00" stroke-miterlimit="10" stroke-width="1"/><path d="M103.584,229.982a7.087,7.087,0,0,0-2.644-2.932,4.9,4.9,0,0,0-3.851-.538,6.463,6.463,0,0,0-1.459.7,9.092,9.092,0,0,0-3.929,4.433" transform="translate(-63.388 -192.708)" fill="none" stroke="#f47e00" stroke-miterlimit="10" stroke-width="1"/><path d="M116.591,231.3c-1.615-2.159-3.609-4.259-6.227-4.9a6.872,6.872,0,0,0-8.181,4.571" transform="translate(-87.81 -192.719)" fill="none" stroke="#f47e00" stroke-miterlimit="10" stroke-width="1"/><path d="M126.371,230.459a10.142,10.142,0,0,0-3.508-4.13,5.44,5.44,0,0,0-7.546,2.289" transform="translate(-111.896 -192.77)" fill="none" stroke="#f47e00" stroke-miterlimit="10" stroke-width="1"/></g></g><line y1="267.92" transform="translate(22.117)" fill="#181540" stroke="#f4b300" stroke-miterlimit="10" stroke-width="1"/><path d="M104.949,194.083a3.216,3.216,0,1,0,3.215-3.216A3.215,3.215,0,0,0,104.949,194.083Z" transform="translate(-85.613 70.388)" fill="#f4b300"/><path d="M104.949,127.2a3.216,3.216,0,1,0,3.215-3.215A3.216,3.216,0,0,0,104.949,127.2Z" transform="translate(-85.613 64.43)" fill="#f4b300"/></g><g transform="translate(97.034 266.834)"><path d="M113.925,56.51s8.617-2.224,7.894,1.393-5.425,4.7-5.425,4.7,3.616,4.34-1.085,5.786-6.149-3.616-6.149-3.616-4.7,3.977-7.956,1.808,3.978-6.148,3.978-6.148-7.743.516-6.872-2.171c1.186-3.655,6.872-2.531,6.872-2.531s-2.087-.384,1.085-2.894C110.533,49.465,113.925,56.51,113.925,56.51Z" transform="translate(-93.099 42.408)" fill="#f49b00"/><path d="M114.691,44.712s10.955-2.828,10.036,1.77-6.9,5.978-6.9,5.978,4.6,5.517-1.38,7.357-7.816-4.6-7.816-4.6-5.978,5.058-10.115,2.3,1.512-8,1.512-8-6.86-.685-5.526-4.02c1.105-2.764,6.238-3.524,6.238-3.524s.182,1.259,4.213-1.931C110.378,35.754,114.691,44.712,114.691,44.712Z" transform="translate(-91.759 41.246)" fill="#ca006c"/><path d="M114.271,38.01s10.955-2.828,10.036,1.77-6.9,5.978-6.9,5.978,4.6,5.517-1.38,7.357-7.816-4.6-7.816-4.6-5.978,5.058-10.115,2.3S103.155,43,103.155,43s-9.844.657-8.737-2.759c1.507-4.648,8.737-3.219,8.737-3.219s-2.652-.488,1.379-3.678C109.958,29.051,114.271,38.01,114.271,38.01Z" transform="translate(-91.339 40.649)" fill="#f49b00"/><path d="M114.691,26.435s10.955-2.828,10.036,1.77-6.9,5.978-6.9,5.978,4.6,5.517-1.38,7.357-7.816-4.6-7.816-4.6S102.656,42,98.518,39.24s1.512-8,1.512-8-6.86-.685-5.526-4.02c1.105-2.764,6.238-3.524,6.238-3.524s.182,1.259,4.213-1.931C110.378,17.477,114.691,26.435,114.691,26.435Z" transform="translate(-91.759 39.618)" fill="#ca006c"/><path d="M94.716,17.62c1.507-4.647,8.737-3.218,8.737-3.218s-2.652-.489,1.38-3.679c5.423-4.291,9.736,4.667,9.736,4.667s10.954-2.827,10.035,1.771a6.578,6.578,0,0,1-2.552,3.883c1.24.93,2.1,2.161,1.435,3.688a3.689,3.689,0,0,1-4.111,2.184c.1,1.389-.539,2.809-3.048,3.581-5.978,1.838-7.817-4.6-7.817-4.6s-5.977,5.058-10.115,2.3c-1.568-1.047-1.22-2.422-.184-3.728a2.372,2.372,0,0,1-2.233-1.613,3.042,3.042,0,0,1,.465-3.024C95.18,19.421,94.352,18.743,94.716,17.62Z" transform="translate(-91.961 38.634)" fill="#f49b00"/><path d="M96.09,8.019c1.378-4.367,7.982-3.024,7.982-3.024s-2.423-.46,1.26-3.457c4.955-4.033,8.9,4.386,8.9,4.386s10.009-2.657,9.168,1.664a6.192,6.192,0,0,1-2.332,3.648c1.134.873,1.917,2.03,1.312,3.465a3.35,3.35,0,0,1-3.756,2.052c.087,1.3-.493,2.639-2.786,3.364-5.461,1.728-7.141-4.32-7.141-4.32s-5.462,4.753-9.242,2.16c-1.433-.982-1.114-2.275-.168-3.5a2.171,2.171,0,0,1-2.04-1.516,2.921,2.921,0,0,1,.425-2.841C96.513,9.71,95.757,9.074,96.09,8.019Z" transform="translate(-92.252 37.822)" fill="#ca006c"/><path d="M93.493-4.5c1.709-5.269,9.9-3.65,9.9-3.65s-3.007-.553,1.564-4.17C111.109-17.188,116-7.032,116-7.032s12.419-3.205,11.377,2.007a7.462,7.462,0,0,1-2.894,4.4c1.407,1.054,2.379,2.449,1.628,4.18a4.182,4.182,0,0,1-4.661,2.475c.109,1.574-1.909,4.589-4.827,5.181-5.209,1.056-7.491-6.334-7.491-6.334s-6.776,5.734-11.468,2.606C95.885,6.3,96.28,4.741,97.455,3.26a2.688,2.688,0,0,1-2.532-1.829A3.448,3.448,0,0,1,95.45-2C94.018-2.464,93.08-3.231,93.493-4.5Z" transform="translate(-93.395 36.567)" fill="#f49b00"/><path d="M93.568-13.63c1.688-5.354,9.783-3.707,9.783-3.707s-2.97-.563,1.545-4.238c6.073-4.942,10.9,5.376,10.9,5.376s12.269-3.256,11.238,2.04a7.593,7.593,0,0,1-2.858,4.472c1.39,1.072,2.349,2.49,1.609,4.247a4.108,4.108,0,0,1-4.6,2.516c.107,1.6-2.993,6.331-5.8,7.221-6.694,2.118-6.366-8.394-6.366-8.394s-3.643,10.515-8.278,7.337c-1.756-1.2-4.416-7.478-3.256-8.982a2.663,2.663,0,0,1-2.5-1.858,3.583,3.583,0,0,1,.522-3.484C94.088-11.558,93.161-12.338,93.568-13.63Z" transform="translate(-93.14 35.741)" fill="#ca006c"/><path d="M93.493-25.554c1.709-5.269,9.9-3.648,9.9-3.648s-3.007-.554,1.564-4.17c6.148-4.865,11.038,5.29,11.038,5.29s12.419-3.205,11.377,2.007a7.462,7.462,0,0,1-2.894,4.4c1.407,1.054,2.379,2.45,1.628,4.181a4.183,4.183,0,0,1-4.661,2.475c.109,1.574-.611,3.183-3.456,4.059-6.777,2.085-8.862-5.213-8.862-5.213s-6.776,5.734-11.468,2.606c-1.778-1.185-1.383-2.745-.208-4.225a2.691,2.691,0,0,1-2.532-1.83,3.448,3.448,0,0,1,.527-3.428C94.018-23.514,93.08-24.28,93.493-25.554Z" transform="translate(-93.395 34.691)" fill="#f49b00"/></g></g></g></svg>