<svg xmlns="http://www.w3.org/2000/svg" width="404.84" height="8.068" viewBox="0 0 404.84 8.068">
    <path d="M522.861,420.645c-2.523,0-4.625.9-5.216,2.1H366.458c-.592-1.206-2.693-2.1-5.215-2.1s-4.625.9-5.216,2.1h-.643c-2.413-1.9-14.7-3.352-29.544-3.352s-27.131,1.45-29.544,3.352h-.643c-.592-1.206-2.693-2.1-5.216-2.1s-4.625.9-5.216,2.1H134.035c-.593-1.206-2.695-2.1-5.216-2.1-2.981,0-5.4,1.247-5.4,2.784s2.418,2.786,5.4,2.786c2.522,0,4.622-.9,5.215-2.1H285.222c.593,1.206,2.693,2.1,5.215,2.1s4.622-.9,5.215-2.1h.646c2.418,1.9,14.707,3.35,29.543,3.35s27.123-1.449,29.543-3.35h.646c.592,1.206,2.693,2.1,5.215,2.1s4.621-.9,5.215-2.1H517.646c.593,1.206,2.693,2.1,5.215,2.1,2.981,0,5.4-1.247,5.4-2.786S525.842,420.645,522.861,420.645Z" transform="translate(-123.42 -419.396)" fill="#f05522"/>
</svg>